<?xml version="1.0" encoding="UTF-8"?>
<svg version="1.1" xmlns="http://www.w3.org/2000/svg" width="512" height="512">
<path d="M0 0 C0.99914079 -0.00384115 1.99828157 -0.00768229 3.02769935 -0.01163983 C4.67869249 -0.01034011 4.67869249 -0.01034011 6.36303902 -0.00901413 C7.52997044 -0.01198525 8.69690186 -0.01495637 9.89919484 -0.01801753 C13.1436223 -0.02520489 16.38801754 -0.0278774 19.63245177 -0.028615 C23.12946591 -0.0304646 26.62646854 -0.03801141 30.12347603 -0.04475021 C37.77214891 -0.0583373 45.42081655 -0.06435869 53.06949949 -0.06876087 C57.84375018 -0.07152236 62.61799884 -0.07575951 67.39224815 -0.08026505 C80.60646309 -0.09245763 93.82067641 -0.10275734 107.03489685 -0.10614014 C108.30370732 -0.10646949 108.30370732 -0.10646949 109.59815032 -0.10680549 C110.44606385 -0.10702377 111.29397738 -0.10724204 112.16758525 -0.10746694 C113.88582285 -0.1079104 115.60406045 -0.10835697 117.32229805 -0.10880661 C118.17460582 -0.10902804 119.02691359 -0.10924947 119.90504886 -0.10947761 C133.7204717 -0.11342699 147.53584184 -0.13088532 161.35124432 -0.15416613 C175.52963113 -0.17786614 189.70799148 -0.19034135 203.88639843 -0.19150805 C211.8493837 -0.19242552 219.81230028 -0.19819576 227.77526665 -0.21632767 C234.55481905 -0.23171037 241.33428154 -0.23685994 248.11384808 -0.22858956 C251.57371137 -0.22467668 255.0333935 -0.22564353 258.49323463 -0.23964691 C262.24214871 -0.25227614 265.99059367 -0.24653846 269.73950386 -0.23606491 C270.83570451 -0.24412132 271.93190515 -0.25217772 273.061324 -0.26047826 C279.93730056 -0.21536318 283.46341523 0.44715377 288.45816803 5.38567162 C290.62188526 8.83958977 290.68603596 11.00160257 290.6996479 15.06352615 C290.707299 15.74889611 290.71495009 16.43426607 290.72283304 17.14040482 C290.74342472 19.43053308 290.73552326 21.71965201 290.72757149 24.00984573 C290.73626844 25.6543864 290.74663565 27.29891896 290.75854683 28.94343948 C290.78532242 33.40637237 290.78648473 37.86896647 290.78142023 42.33196402 C290.77928026 46.05957518 290.78904902 49.78711787 290.79863107 53.51471436 C290.82082034 62.31034413 290.82169717 71.10580308 290.80960274 79.9014473 C290.7975241 88.97036893 290.82214218 98.03866991 290.86474288 107.10748565 C290.89999048 114.89790514 290.91197514 122.68812722 290.90546739 130.47862351 C290.90184342 135.12966353 290.90709553 139.78026092 290.93489647 144.43122864 C290.96007009 148.80637883 290.95615158 153.18056285 290.93007469 157.55569839 C290.92534726 159.15887276 290.9307984 160.76211529 290.94732094 162.36521149 C291.07745311 175.97558976 291.07745311 175.97558976 287.31921577 180.5775032 C283.97975038 183.76871741 280.86675933 184.25635567 276.35930347 184.26285553 C274.86151734 184.26861725 274.86151734 184.26861725 273.33347291 184.27449536 C272.23349294 184.27362888 271.13351297 184.2727624 270.00020027 184.27186966 C268.25086149 184.27632634 268.25086149 184.27632634 266.46618253 184.28087306 C263.22368567 184.28806044 259.98122106 184.29073293 256.73871744 184.29147053 C253.24372918 184.29332014 249.74875244 184.300867 246.25377083 184.30760574 C238.60916291 184.32119327 230.96456022 184.3272144 223.31994224 184.3316164 C218.54769387 184.33437804 213.77544753 184.33861524 209.00320053 184.34312057 C195.79327681 184.35531365 182.58335471 184.36561298 169.37342548 184.36899567 C168.5278034 184.36921523 167.68218132 184.3694348 166.81093432 184.36966102 C165.53944722 184.36998843 165.53944722 184.36998843 164.24227351 184.37032247 C162.52456359 184.37076593 160.80685367 184.3712125 159.08914375 184.37166214 C157.81107557 184.37199428 157.81107557 184.37199428 156.50718782 184.37233314 C142.69890705 184.37628172 128.89067903 184.39373741 115.08241864 184.41702166 C100.90967706 184.44072786 86.73696196 184.45319718 72.56420022 184.45436358 C64.60509545 184.45528074 56.64605942 184.46104331 48.68697357 184.4791832 C41.91001159 184.4945743 35.13313959 184.49971052 28.35616346 184.49144509 C24.89820148 184.48753509 21.44042075 184.48848508 17.982481 184.50250244 C14.233917 184.5151472 10.4858211 184.50938537 6.73726082 184.49892044 C5.64397301 184.50697685 4.55068521 184.51503325 3.42426747 184.52333379 C-2.06950767 184.48735901 -6.10560584 184.29156965 -10.82174492 181.13142776 C-14.66950759 176.88562068 -14.94832973 173.16957963 -14.96218681 167.58496475 C-14.96515794 166.91693229 -14.96812906 166.24889982 -14.97119021 165.56062394 C-14.97987609 163.31752965 -14.98138536 161.07448873 -14.98287773 158.83137894 C-14.98750599 157.22492738 -14.99253066 155.61847692 -14.9979229 154.01202774 C-15.01104823 149.64417365 -15.01749212 145.27633493 -15.02193356 140.90846419 C-15.02486408 138.17983337 -15.02896885 135.45120676 -15.03343773 132.72257805 C-15.04711304 124.18600776 -15.05677952 115.64944707 -15.06063962 107.11286658 C-15.06512054 97.25737792 -15.08266984 87.40202794 -15.11164021 77.54658145 C-15.1332539 69.9295022 -15.14334373 62.31246197 -15.14468074 54.69535238 C-15.145729 50.14559526 -15.15164119 45.59596851 -15.16950035 41.04624367 C-15.18597562 36.76576992 -15.18813922 32.48552459 -15.17936134 28.20503044 C-15.17859067 26.63529855 -15.18293765 25.0655544 -15.1928196 23.49585342 C-15.20553529 21.34991126 -15.19966512 19.20477858 -15.18923759 17.05884171 C-15.19070415 15.85887652 -15.19217072 14.65891134 -15.19368172 13.42258358 C-14.67686514 8.84943057 -13.25344375 5.42890483 -9.82174492 2.31892776 C-6.48391681 0.33709233 -3.79721325 0.00547224 0 0 Z M213.57669258 51.85799026 C210.20769077 56.43155138 209.34575204 60.74724703 209.63528633 66.38142776 C210.73442853 71.94830622 213.57712066 76.11377633 218.04153633 79.57674026 C222.89261588 82.35711852 227.67890826 82.96961817 233.17825508 82.13142776 C238.97571114 80.01312651 242.62138587 76.49357416 245.99075508 71.38142776 C248.1068696 65.58995644 248.07488421 60.45989257 245.49075508 54.81892776 C242.82967264 50.08915933 239.13529064 47.24440875 234.17825508 45.13142776 C225.59547975 43.86533513 219.48540796 45.48810686 213.57669258 51.85799026 Z M35.17825508 62.13142776 C35.17825508 64.44142776 35.17825508 66.75142776 35.17825508 69.13142776 C75.76825508 69.13142776 116.35825508 69.13142776 158.17825508 69.13142776 C158.17825508 66.82142776 158.17825508 64.51142776 158.17825508 62.13142776 C117.58825508 62.13142776 76.99825508 62.13142776 35.17825508 62.13142776 Z M35.17825508 91.13142776 C35.17825508 93.77142776 35.17825508 96.41142776 35.17825508 99.13142776 C62.23825508 99.13142776 89.29825508 99.13142776 117.17825508 99.13142776 C117.17825508 96.49142776 117.17825508 93.85142776 117.17825508 91.13142776 C90.11825508 91.13142776 63.05825508 91.13142776 35.17825508 91.13142776 Z M196.17825508 117.13142776 C188.27477699 127.30056957 188.17825508 136.25706209 188.17825508 149.13142776 C214.24825508 149.13142776 240.31825508 149.13142776 267.17825508 149.13142776 C267.4962247 130.33952692 267.4962247 130.33952692 258.24075508 115.88924026 C249.16543339 108.1545911 239.3579166 107.93024005 227.99075508 107.88142776 C226.8093293 107.86080276 225.62790352 107.84017776 224.41067696 107.81892776 C213.67269429 107.7713356 203.98008821 109.17891545 196.17825508 117.13142776 Z " fill="#000000" transform="translate(35.82174491882324,214.86857223510742)"/>
<path d="M0 0 C4.08382829 1.59298267 6.67749494 4.51525958 9.5625 7.6875 C10.08626221 8.26129395 10.61002441 8.83508789 11.1496582 9.42626953 C39.95960042 41.57592991 57 83.75391627 57 127 C24.33 127 -8.34 127 -42 127 C-42.99 115.45 -43.98 103.9 -45 92 C-46.92927073 79.07388613 -49.31359296 66.80417296 -53.046875 54.32421875 C-54 51 -54 51 -54 49 C-51.58972243 47.40020473 -49.17552001 45.90721294 -46.6875 44.4375 C-39.61894993 40.13520879 -33.21296029 35.48796197 -27 30 C-26.01386719 29.14664063 -25.02773438 28.29328125 -24.01171875 27.4140625 C-14.76439491 19.2809449 -6.94677756 10.18860709 0 0 Z " fill="#000000" transform="translate(434,125)"/>
<path d="M0 0 C32.67 0 65.34 0 99 0 C99 25.75483537 93.08999996 50.76963686 82 74 C81.65598145 74.72380859 81.31196289 75.44761719 80.95751953 76.19335938 C73.47363697 91.67051696 63.82298187 105.5226928 52 118 C50.63863663 119.53531536 49.28394666 121.07658634 47.9375 122.625 C47.36902344 123.27726562 46.80054688 123.92953125 46.21484375 124.6015625 C45.81394531 125.06304687 45.41304688 125.52453125 45 126 C41.21664297 124.73888099 40.59793712 123.32372257 38.375 120.0625 C34.29299314 114.30010416 29.85766676 109.11832205 25 104 C23.73349609 102.65421875 23.73349609 102.65421875 22.44140625 101.28125 C12.15265084 90.64903831 0.7347437 82.46160105 -12 75 C-10.8975424 69.39286822 -9.75093747 63.79659667 -8.5625 58.20703125 C-4.42654463 38.69622529 -1.90298482 19.98134064 0 0 Z " fill="#000000" transform="translate(392,260)"/>
<path d="M0 0 C3.35661674 1.40644416 4.95621888 2.93374811 7.0625 5.875 C20.32377121 23.45323821 37.96163013 38.61695379 58 48 C56.64567802 58.83457587 53.64822051 69.40711794 51 80 C19.32 80 -12.36 80 -45 80 C-44.10980046 73.76860323 -42.7842767 69.01923668 -40.5625 63.25 C-40.21050537 62.33476562 -39.85851074 61.41953125 -39.49584961 60.4765625 C-30.37088588 37.38887382 -16.73928661 18.21172386 0 0 Z " fill="#000000" transform="translate(180,128)"/>
<path d="M0 0 C0 0.99 0 1.98 0 3 C-1.80078125 4.69140625 -1.80078125 4.69140625 -4.3125 6.5625 C-12.99350466 13.26384212 -21.10029896 20.45463723 -28 29 C-28.72316406 29.87398437 -29.44632812 30.74796875 -30.19140625 31.6484375 C-45.39708187 50.63722663 -56.8299446 72.132056 -65 95 C-69.71259554 93.63826664 -73.61423333 91.61493608 -77.6875 88.9375 C-78.2969043 88.54046875 -78.90630859 88.1434375 -79.53417969 87.734375 C-85.35467152 83.87635951 -90.72506318 79.57373676 -96 75 C-96.85335937 74.28070313 -97.70671875 73.56140625 -98.5859375 72.8203125 C-106.97945695 65.56314645 -113.72180925 57.1135027 -120 48 C-89.52370545 17.03126981 -43.32867011 -1.20171966 0 0 Z " fill="#000000" transform="translate(306,75)"/>
<path d="M0 0 C20.41586446 7.4340376 40.07119258 28.3179182 52 46 C52 46.66 52 47.32 52 48 C52.66 48 53.32 48 54 48 C52.66838317 51.0521672 51.34781394 52.8163364 48.71875 54.84765625 C48.05101562 55.36497314 47.38328125 55.88229004 46.6953125 56.4152832 C45.97085938 56.95886475 45.24640625 57.50244629 44.5 58.0625 C43.74460937 58.63250732 42.98921875 59.20251465 42.2109375 59.78979492 C13.78193351 80.89164534 -21.52779502 96.40838659 -57.5 96.0625 C-58.7271875 96.05347656 -59.954375 96.04445313 -61.21875 96.03515625 C-62.59546875 96.01775391 -62.59546875 96.01775391 -64 96 C-63.64434242 93.29107474 -63.21098895 92.1943082 -61.171875 90.31640625 C-60.37265625 89.73761719 -59.5734375 89.15882813 -58.75 88.5625 C-41.53582999 75.24171979 -28.52138917 57.91621764 -18 39 C-17.45182617 38.03489502 -17.45182617 38.03489502 -16.89257812 37.05029297 C-10.15721759 25.14668134 -4.9706888 12.72773369 0 0 Z " fill="#000000" transform="translate(377,341)"/>
<path d="M0 0 C39.99529057 -1.81491235 82.07311763 14.71875603 112 41 C113.67962707 42.65360468 115.34933689 44.31748199 117 46 C111.37811278 53.73507887 105.57127613 61.03675301 99 68 C98.32710938 68.73734375 97.65421875 69.4746875 96.9609375 70.234375 C90.39851354 77.16547446 82.80882322 82.57639276 75 88 C74.12988281 88.6084375 73.25976562 89.216875 72.36328125 89.84375 C70.25 91.25 70.25 91.25 67 93 C64 92 64 92 62.93188477 90.01660156 C62.60502686 89.1500293 62.27816895 88.28345703 61.94140625 87.390625 C61.56201904 86.41875244 61.18263184 85.44687988 60.79174805 84.44555664 C60.38609619 83.39102295 59.98044434 82.33648926 59.5625 81.25 C48.29705637 53.23360386 28.99528132 21.4735006 2.6796875 4.91015625 C1.79539062 4.27980469 0.91109375 3.64945312 0 3 C0 2.01 0 1.02 0 0 Z " fill="#000000" transform="translate(313,75)"/>
<path d="M0 0 C0 33.66 0 67.32 0 102 C-18.87156899 100.82052694 -18.87156899 100.82052694 -25.8125 99.375 C-26.63363281 99.20822754 -27.45476562 99.04145508 -28.30078125 98.86962891 C-38.86053603 96.57376759 -49.37026411 92.92976213 -59 88 C-57.72697912 81.34163422 -55.78082693 75.57935285 -52.9375 69.4375 C-52.33869019 68.13268677 -52.33869019 68.13268677 -51.7277832 66.80151367 C-42.6114281 47.23527027 -31.15700258 29.43768781 -16 14 C-15.51047852 13.49678223 -15.02095703 12.99356445 -14.51660156 12.47509766 C-2.36783013 0 -2.36783013 0 0 0 Z " fill="#000000" transform="translate(306,86)"/>
<path d="M0 0 C28.70040153 17.22024092 48.54679707 53.2903709 59 84 C59 84.66 59 85.32 59 86 C39.66070894 94.9238484 21.36263125 100.21978073 0 102 C0 68.34 0 34.68 0 0 Z " fill="#000000" transform="translate(313,86)"/>
<path d="M0 0 C11.11539179 11.11539179 11.07554954 43.47111678 11.2043457 58.48632812 C11.18194226 63.65795214 11.08340323 68.82900002 11 74 C-5.83 74 -22.66 74 -40 74 C-40.1875 60.625 -40.1875 60.625 -40.20776367 56.47119141 C-40.40449709 48.69092019 -41.30658471 42.38978121 -46 36 C-48.38778766 33.88423547 -48.38778766 33.88423547 -51.0625 32.9375 C-51.89910156 32.57527344 -52.73570312 32.21304688 -53.59765625 31.83984375 C-56.23719841 30.87609541 -56.23719841 30.87609541 -60 30 C-60 25.71 -60 21.42 -60 17 C-57.82268359 15.91134179 -56.25408146 15.70489855 -53.84375 15.421875 C-34.51305918 13.00783336 -17.77000788 7.93937159 0 0 Z " fill="#000000" transform="translate(373,178)"/>
<path d="M0 0 C16.83 0 33.66 0 51 0 C49.8284627 23.43074602 49.8284627 23.43074602 48.3125 32.75 C48.05847412 34.35476196 48.05847412 34.35476196 47.79931641 35.99194336 C46.48170535 43.92842761 44.79606587 51.75122391 42.875 59.5625 C42.62145752 60.59793945 42.36791504 61.63337891 42.10668945 62.70019531 C40.71497413 68.09429827 40.71497413 68.09429827 40 70 C38 71 38 71 36.22265625 70.45849609 C35.50980469 70.14992676 34.79695313 69.84135742 34.0625 69.5234375 C33.2478125 69.18183594 32.433125 68.84023438 31.59375 68.48828125 C29.92585272 67.7723916 28.25908671 67.05385739 26.59375 66.33203125 C17.77721316 62.64486847 9.49329241 60.63702567 0 58 C0 38.86 0 19.72 0 0 Z " fill="#000000" transform="translate(334,260)"/>
<path d="M0 0 C16.10656999 2.9766873 16.10656999 2.9766873 23.5625 6 C24.20767578 6.2475 24.85285156 6.495 25.51757812 6.75 C29.46192258 8.28769368 33.24193838 10.05437796 37 12 C28.67967162 41.75219659 12.57286592 69.00055199 -9 91 C-9.78890625 91.82757813 -10.5778125 92.65515625 -11.390625 93.5078125 C-14.59332319 96.8172673 -16.811144 98.905572 -21 101 C-21 94.4 -21 87.8 -21 81 C-17.04 80.01 -17.04 80.01 -13 79 C-7.22363371 75.77856496 -3.76024456 72.65708728 -1.91650391 66.21313477 C-0.57735147 59.78412088 -0.64462604 53.32055287 -0.5859375 46.77734375 C-0.56719032 45.4225603 -0.54761437 44.06778809 -0.5272522 42.71302795 C-0.47629924 39.1769987 -0.43647859 35.64093173 -0.39910889 32.10473633 C-0.35883586 28.48444578 -0.30785083 24.86430704 -0.2578125 21.24414062 C-0.1614906 14.16287204 -0.07694843 7.0815078 0 0 Z " fill="#000000" transform="translate(334,325)"/>
<path d="M0 0 C8.65808042 -0.30286271 17.31430667 -0.53299555 25.97655106 -0.67355824 C30.00028356 -0.74106943 34.0203629 -0.83239938 38.04199219 -0.98071289 C66.22438828 -1.99318319 66.22438828 -1.99318319 72.64306641 2.74072266 C75.80021946 5.79312114 77.80276963 9.22010172 80 13 C81.86068316 15.1270335 83.8359929 17.03450848 85.875 19 C86.76574219 19.886875 87.65648437 20.77375 88.57421875 21.6875 C90.55270573 23.57359387 92.54227435 25.31195359 94.6875 27 C95.450625 27.66 96.21375 28.32 97 29 C97 29.99 97 30.98 97 32 C63.42689805 30.20129052 27.55777543 22.63122505 0 2 C0 1.34 0 0.68 0 0 Z " fill="#000000" transform="translate(209,406)"/>
<path d="M0 0 C4.39605494 1.45189041 8.78585026 2.91489416 13.1484375 4.46484375 C29.11333978 10.07301775 45.19311099 13.23817439 62 15 C62 19.29 62 23.58 62 28 C39.56 28 17.12 28 -6 28 C-4.875 17.875 -4.875 17.875 -3.80859375 13.96484375 C-3.58623047 13.13662109 -3.36386719 12.30839844 -3.13476562 11.45507812 C-2.90466797 10.62427734 -2.67457031 9.79347656 -2.4375 8.9375 C-2.20353516 8.07189453 -1.96957031 7.20628906 -1.72851562 6.31445312 C-1.1582666 4.20802305 -0.57998166 2.10377111 0 0 Z " fill="#000000" transform="translate(244,180)"/>
<path d="M0 0 C6.6 0 13.2 0 20 0 C20 6.6 20 13.2 20 20 C14.83266139 16.12449604 10.51855773 12.79355665 6.0625 8.3125 C5.58232422 7.84005859 5.10214844 7.36761719 4.60742188 6.88085938 C2.33144473 4.59204174 1.03607564 3.10822693 0 0 Z " fill="#000000" transform="translate(286,406)"/>
</svg>
