<?xml version="1.0" encoding="UTF-8"?>
<svg version="1.1" xmlns="http://www.w3.org/2000/svg" width="512" height="512">
<path d="M0 0 C1.95531626 1.54014637 3.89208702 3.10404603 5.8125 4.6875 C6.3703418 5.14527832 6.92818359 5.60305664 7.50292969 6.07470703 C27.09649758 22.23696891 27.09649758 22.23696891 33.8125 31.6875 C37.11039353 30.58820216 37.75625315 29.84946748 39.90234375 27.24609375 C50.89965603 14.30587493 62.73055313 1.75595085 77.8125 -6.3125 C78.64265625 -6.79332031 79.4728125 -7.27414063 80.328125 -7.76953125 C98.44005321 -17.6951078 119.78127916 -20.24259925 139.63671875 -14.70703125 C161.5706455 -7.82408588 180.10943652 7.42812984 190.8125 27.6875 C191.29203125 28.57824219 191.7715625 29.46898437 192.265625 30.38671875 C202.48207342 50.97347777 203.19200224 75.22221172 196.1875 96.875 C191.41390996 110.63850728 184.13741681 121.48160241 173.8125 131.6875 C172.71808594 132.79738281 172.71808594 132.79738281 171.6015625 133.9296875 C161.81734486 143.27743446 149.64366905 148.83190541 136.8125 152.6875 C136.02101563 152.93371094 135.22953125 153.17992187 134.4140625 153.43359375 C115.0144489 158.36858318 96.255279 153.55579057 79.34765625 143.85546875 C69.94492929 138.21996646 61.83731638 131.09502282 53.8125 123.6875 C52.966875 122.945 52.12125 122.2025 51.25 121.4375 C45.65827989 116.52769697 40.61980872 111.3676441 35.8125 105.6875 C32.13963766 108.68575497 28.75375325 111.63043789 25.6875 115.25 C9.10957863 134.56014004 -9.24133247 147.69268455 -34.1875 153.6875 C-35.36699219 153.97560547 -35.36699219 153.97560547 -36.5703125 154.26953125 C-56.62205637 157.47182467 -77.53100246 151.99874832 -94.1953125 140.63671875 C-96.61219177 138.73351872 -98.90222214 136.74551266 -101.1875 134.6875 C-102.19103516 133.91212891 -102.19103516 133.91212891 -103.21484375 133.12109375 C-118.91400858 120.71719916 -128.01275651 99.75093388 -130.5 80.375 C-133.14562817 56.16234136 -126.76068262 32.4266997 -111.53173828 13.31738281 C-82.50104947 -21.88219556 -36.21505964 -26.52234727 0 0 Z M-87.1875 9.6875 C-83.20764369 10.85044503 -80.30246743 10.28483398 -76.1875 9.6875 C-54.06123802 7.44160123 -29.97678582 19.41339408 -13.1875 32.6875 C-1.65141089 42.27888014 9.27944084 53.15371891 18.56640625 64.93359375 C22.18479975 69.37005882 26.12388999 73.50281217 30.02734375 77.6875 C32.78846347 80.64894168 35.46304651 83.67735638 38.11328125 86.73828125 C40.87070815 89.90139854 43.68763936 93.01037737 46.50390625 96.12109375 C48.00418331 97.78891445 49.49196879 99.46808755 50.96484375 101.16015625 C66.91756395 119.36298888 89.50922851 139.78090258 114.8125 141.6875 C131.90583677 141.61369811 146.02265114 135.30686266 159.8125 125.6875 C156.90971313 124.23610657 155.28591795 125.26005702 152.1875 126.125 C129.65493509 131.41805037 110.74013312 122.98019009 91.51171875 111.76171875 C76.11065941 101.67264155 62.65874366 86.65447244 50.8125 72.6875 C50.31806396 72.10967773 49.82362793 71.53185547 49.31420898 70.93652344 C48.35423016 69.81379004 47.39553506 68.68995753 46.43823242 67.56494141 C41.40727612 61.6535037 36.28574775 55.85029159 31.0390625 50.12890625 C29.12116793 48.02595167 27.23873955 45.90080844 25.375 43.75 C7.3884393 23.15790948 -15.53497473 -1.62153322 -44.55859375 -4.2734375 C-59.97813417 -4.502554 -74.79883445 0.75014668 -87.1875 9.6875 Z M69.53857422 17.06567383 C67.95224498 18.59544069 66.3810707 20.13953225 64.8125 21.6875 C64.18311523 22.30318848 63.55373047 22.91887695 62.90527344 23.55322266 C53.48151223 32.77161468 53.48151223 32.77161468 44.8125 42.6875 C46.18434347 46.75248881 48.03318459 49.36146561 50.9375 52.5 C51.66195312 53.29019531 52.38640625 54.08039063 53.1328125 54.89453125 C53.68710937 55.48621094 54.24140625 56.07789063 54.8125 56.6875 C58.98740966 53.42903393 62.38064575 49.98421007 65.80078125 45.94921875 C68.97554043 42.37992639 72.43117625 39.10081616 75.87109375 35.7890625 C78.03868786 33.91949491 78.03868786 33.91949491 77.8125 31.6875 C78.4003125 31.41421875 78.988125 31.1409375 79.59375 30.859375 C81.74731556 29.7219284 83.4301844 28.47307325 85.3125 26.9375 C96.56952656 18.41134469 109.41763769 13.51490224 123.5859375 15.12109375 C138.15387462 17.67841927 150.65951596 25.02848211 159.49609375 36.9609375 C168.43046435 50.73011712 169.90817968 66.57223939 167.15234375 82.50390625 C164.08754114 93.52923512 158.35069618 103.10034053 149.8125 110.6875 C148.80674971 111.68171645 147.80499844 112.6800543 146.8125 113.6875 C159.33925047 111.77663976 170.84680109 105.12095023 178.78125 95.234375 C187.25075523 83.64087194 188.19405139 70.86424075 186.04321289 56.91870117 C182.58548335 37.05277529 171.95842648 20.40621391 155.7109375 8.39453125 C127.29082504 -10.0335952 94.09894926 -6.09558864 69.53857422 17.06567383 Z M-107.06640625 38.69921875 C-108.58412418 40.63535516 -109.91137222 42.58539955 -111.1875 44.6875 C-111.57550781 45.31269531 -111.96351562 45.93789062 -112.36328125 46.58203125 C-119.8656128 59.97710321 -117.95360801 76.47006415 -114.1875 90.6875 C-108.08841868 109.18581258 -95.72703231 124.60458936 -78.38232422 133.62646484 C-71.56870899 136.93385023 -64.68930864 139.57817525 -57.1875 140.6875 C-56.45917969 140.831875 -55.73085937 140.97625 -54.98046875 141.125 C-39.03942931 143.66287693 -20.88126557 136.49272192 -7.8671875 127.7265625 C-2.6326226 123.74340962 2.10648176 119.2693405 6.8125 114.6875 C7.71484375 113.81351562 8.6171875 112.93953125 9.546875 112.0390625 C13.40969392 108.23477114 17.2011485 104.36247297 20.875 100.375 C21.42285156 99.78074219 21.97070312 99.18648438 22.53515625 98.57421875 C24.14092551 96.20239442 24.68691973 94.55342105 24.8125 91.6875 C23.492793 89.6797138 23.492793 89.6797138 21.5 88.0625 C19.14871746 85.95445359 17.59226619 84.35714928 15.8125 81.6875 C12.70550927 83.04011234 10.93710908 84.43993567 8.8125 87.0625 C4.26151582 92.45078647 -0.75685842 97.34458532 -5.77661133 102.2902832 C-7.13858631 103.63906029 -8.48561827 105.00287538 -9.83203125 106.3671875 C-19.8374612 116.22328267 -33.46604411 123.39870658 -47.66796875 123.78125 C-61.65675734 123.17105202 -73.6202849 117.81220637 -84.1875 108.6875 C-97.3155102 93.57039734 -99.48842755 77.97305897 -98.1875 58.6875 C-97.37867051 54.33564569 -96.1311727 50.65156932 -94.1875 46.6875 C-93.836875 45.90890625 -93.48625 45.1303125 -93.125 44.328125 C-90.36480299 38.76939492 -86.51464288 34.44373845 -82.2734375 29.94921875 C-80.42200059 27.94176187 -78.7793663 25.90293177 -77.1875 23.6875 C-88.20928657 23.04623242 -99.80936224 30.92920282 -107.06640625 38.69921875 Z M86.8125 42.6875 C85.08592637 44.59936446 83.4077503 46.54590874 81.73828125 48.5078125 C79.643979 50.8782398 77.44069149 53.09293824 75.1875 55.3125 C70.1591895 60.21178402 70.1591895 60.21178402 65.8125 65.6875 C65.95779283 70.48266627 68.54892622 72.99499155 71.80859375 76.1796875 C72.31616714 76.68871613 72.82374054 77.19774475 73.34669495 77.72219849 C74.42382447 78.79767071 75.50590248 79.86820649 76.5925293 80.93408203 C78.22539392 82.53832522 79.83913461 84.16001702 81.45117188 85.78515625 C87.47894099 91.80180006 93.55199457 97.16066309 100.8125 101.6875 C101.50512939 102.120625 102.19775879 102.55375 102.91137695 103 C112.18618922 108.65032458 112.18618922 108.65032458 122.6875 109.5 C125.31010617 108.75605511 125.31010617 108.75605511 127.8125 107.6875 C128.66328125 107.35878906 129.5140625 107.03007812 130.390625 106.69140625 C140.50570672 102.20788076 148.31700583 94.82749643 152.8125 84.6875 C156.97902541 72.69156969 156.77481697 61.13259835 151.45703125 49.546875 C146.97688751 41.75717139 140.81074023 35.74457838 132.8125 31.6875 C131.719375 31.11 130.62625 30.5325 129.5 29.9375 C113.53704483 24.52632876 98.63846225 31.64993523 86.8125 42.6875 Z M-71.1875 37.6875 C-80.86136923 46.70976146 -85.39132195 57.09578491 -86.21484375 70.2421875 C-86.1343846 80.38004014 -82.51094238 89.79518362 -75.8125 97.375 C-74.513125 98.5196875 -74.513125 98.5196875 -73.1875 99.6875 C-72.68605469 100.17992187 -72.18460938 100.67234375 -71.66796875 101.1796875 C-65.30527925 107.1698542 -56.22327916 111.13559317 -47.36328125 110.96484375 C-34.02196038 109.2642445 -21.50238857 101.26536628 -13 91.0625 C-12.401875 90.27875 -11.80375 89.495 -11.1875 88.6875 C-9.54320171 86.99876121 -7.87365782 85.33444485 -6.1875 83.6875 C-2.26522615 79.85356565 1.49130778 76.07147373 4.8125 71.6875 C3.40802044 67.36991866 1.37959947 64.86898681 -1.80859375 61.66796875 C-2.26798843 61.20570389 -2.72738312 60.74343903 -3.20069885 60.26716614 C-4.17462944 59.29120034 -5.15233385 58.31898769 -6.13354492 57.3503418 C-7.59971952 55.90000735 -9.04946155 54.43467359 -10.49804688 52.96679688 C-18.57377728 44.87096413 -27.18552971 37.80611289 -37.5 32.75 C-38.63050781 32.18410156 -39.76101562 31.61820313 -40.92578125 31.03515625 C-51.80741509 26.53915185 -62.21392714 30.84198837 -71.1875 37.6875 Z " fill="#000000" transform="translate(221.1875,187.3125)"/>
<path d="M0 0 C0.99422974 0.00215515 1.98845947 0.0043103 3.01281738 0.00653076 C17.48109955 0.05686686 31.66189071 0.35398296 45.875 3.3125 C46.85130371 3.51117676 47.82760742 3.70985352 48.83349609 3.91455078 C97.21339984 14.03634541 141.2005519 35.95291013 176.875 70.3125 C177.8640332 71.26068604 177.8640332 71.26068604 178.87304688 72.22802734 C188.36130305 81.37247479 197.1012044 90.66984009 204.875 101.3125 C205.73306152 102.46355017 206.59113451 103.61459177 207.44921875 104.765625 C213.48736829 112.95680614 218.84595521 121.47054105 223.875 130.3125 C224.23948242 130.94430176 224.60396484 131.57610352 224.97949219 132.22705078 C246.4740329 169.78084014 256.35126533 212.44304389 256.1875 255.4375 C256.18476578 256.9278476 256.18476578 256.9278476 256.18197632 258.44830322 C256.13719978 272.942192 255.67610213 287.05386097 252.875 301.3125 C252.71402832 302.20807617 252.55305664 303.10365234 252.38720703 304.02636719 C244.49797508 347.63313051 224.80850867 388.77106217 195.875 422.3125 C195.24078125 423.05757813 194.6065625 423.80265625 193.953125 424.5703125 C182.14198485 438.07529833 169.39139772 450.74668743 154.875 461.3125 C153.72505169 462.16899066 152.57531411 463.02576433 151.42578125 463.8828125 C143.23410474 469.9234414 134.71854922 475.28255071 125.875 480.3125 C125.24319824 480.67698242 124.61139648 481.04146484 123.96044922 481.41699219 C97.93166464 496.31500327 68.51361377 505.96041257 38.875 510.3125 C37.67254639 510.48910156 36.47009277 510.66570312 35.23120117 510.84765625 C23.51493596 512.45161689 11.87584274 512.71324553 0.0625 512.6875 C-0.92433777 512.68662384 -1.91117554 512.68574768 -2.92791748 512.68484497 C-67.88219852 512.49532667 -130.29571624 487.41579016 -177.125 442.3125 C-177.78435547 441.68037598 -178.44371094 441.04825195 -179.12304688 440.39697266 C-188.61130305 431.25252521 -197.3512044 421.95515991 -205.125 411.3125 C-205.98306152 410.16144983 -206.84113451 409.01040823 -207.69921875 407.859375 C-213.73736829 399.66819386 -219.09595521 391.15445895 -224.125 382.3125 C-224.48948242 381.68069824 -224.85396484 381.04889648 -225.22949219 380.39794922 C-240.15973018 354.31285999 -249.63885054 324.97664886 -254.125 295.3125 C-254.38990234 293.62882324 -254.38990234 293.62882324 -254.66015625 291.91113281 C-256.3170586 280.29802257 -256.52373513 268.78070055 -256.5 257.0625 C-256.49945618 256.05048523 -256.49891235 255.03847046 -256.49835205 253.99578857 C-256.4576051 237.46132605 -255.53386907 221.54185136 -252.125 205.3125 C-251.91601074 204.29720215 -251.70702148 203.2819043 -251.49169922 202.23583984 C-242.71380189 160.92383315 -223.71113066 122.2919774 -196.125 90.3125 C-195.49078125 89.56742187 -194.8565625 88.82234375 -194.203125 88.0546875 C-182.39198485 74.54970167 -169.64139772 61.87831257 -155.125 51.3125 C-153.97505169 50.45600934 -152.82531411 49.59923567 -151.67578125 48.7421875 C-143.48410474 42.7015586 -134.96854922 37.34244929 -126.125 32.3125 C-125.49319824 31.94801758 -124.86139648 31.58353516 -124.21044922 31.20800781 C-98.17975097 16.30890142 -68.76448404 6.66904478 -39.125 2.3125 C-37.32675781 2.04651001 -37.32675781 2.04651001 -35.4921875 1.77514648 C-23.66616559 0.14661384 -11.92341476 -0.04652724 0 0 Z M-151.125 66.3125 C-151.66366699 66.74965332 -152.20233398 67.18680664 -152.75732422 67.63720703 C-166.80021526 79.0866833 -180.19379292 91.8260966 -191.125 106.3125 C-191.53347168 106.83924316 -191.94194336 107.36598633 -192.36279297 107.90869141 C-223.16742862 147.66432285 -241.39518003 196.99046462 -243.125 247.3125 C-243.16584717 248.31023437 -243.16584717 248.31023437 -243.20751953 249.328125 C-244.30640432 279.1846173 -239.12551506 309.222818 -229.125 337.3125 C-228.71024414 338.48014893 -228.71024414 338.48014893 -228.28710938 339.67138672 C-220.71614259 360.55990626 -210.44710313 380.51621899 -197.125 398.3125 C-196.70653809 398.88355469 -196.28807617 399.45460938 -195.85693359 400.04296875 C-189.81317143 408.28682069 -183.21586067 415.95291987 -176.125 423.3125 C-175.49142578 423.97330566 -174.85785156 424.63411133 -174.20507812 425.31494141 C-165.07402781 434.78937795 -155.85272651 443.6729379 -145.125 451.3125 C-144.3942627 451.83875977 -143.66352539 452.36501953 -142.91064453 452.90722656 C-103.86045437 480.76008573 -57.34699211 498.08561303 -9.125 499.3125 C-8.46757812 499.33296387 -7.81015625 499.35342773 -7.1328125 499.37451172 C56.04930851 501.15077488 117.13347132 477.79480695 163.6640625 435.30078125 C165.42580083 433.7164618 167.20588787 432.21859002 169.0625 430.75 C171.98697547 428.21545459 174.40657391 425.53354125 176.90625 422.58984375 C179.07922487 420.07626369 181.35054183 417.67201004 183.625 415.25 C211.30172593 384.80560148 229.39024342 345.24771635 237.875 305.3125 C238.04080566 304.54679687 238.20661133 303.78109375 238.37744141 302.9921875 C251.18707309 242.45257482 237.80001926 176.73997967 204.46875 124.89453125 C198.76447273 116.30995835 192.65678158 108.07770377 185.875 100.3125 C185.24207031 99.57 184.60914063 98.8275 183.95703125 98.0625 C172.197405 84.59693184 159.49277261 71.66043928 144.875 61.3125 C144.12444336 60.77705566 143.37388672 60.24161133 142.60058594 59.68994141 C103.8536036 32.3078147 57.66456 14.55871302 9.875 13.3125 C8.80717285 13.2818042 8.80717285 13.2818042 7.71777344 13.25048828 C-49.19747897 11.81992211 -106.92082542 30.04384096 -151.125 66.3125 Z " fill="#000000" transform="translate(256.125,-0.3125)"/>
</svg>
