<?xml version="1.0" encoding="UTF-8"?>
<svg version="1.1" xmlns="http://www.w3.org/2000/svg" width="512" height="512">
<path d="M0 0 C1.38288208 0.00323273 1.38288208 0.00323273 2.79370117 0.00653076 C67.89027642 0.25014302 130.4813048 25.04030513 177.4375 70.3125 C178.12924316 70.97701172 178.82098633 71.64152344 179.53369141 72.32617188 C189.3031883 81.76111137 198.51753272 91.26301597 206.4375 102.3125 C206.88641602 102.93302246 207.33533203 103.55354492 207.79785156 104.19287109 C229.71058492 134.67316162 244.72621652 168.5337802 252.4375 205.3125 C252.64777832 206.2705957 252.85805664 207.22869141 253.07470703 208.21582031 C259.71991383 239.6477011 259.358047 275.97387788 252.4375 307.3125 C252.21787598 308.33585449 251.99825195 309.35920898 251.77197266 310.41357422 C237.12815478 377.16575466 196.6151614 435.9212553 139.16015625 472.984375 C98.23200419 498.82920756 51.71245796 513.2040777 3.20532227 512.83398438 C-0.12882939 512.8124753 -3.46083294 512.83398544 -6.79492188 512.859375 C-73.10272596 512.94565514 -134.28444904 483.50091335 -181.5625 438.3125 C-182.31015625 437.60609375 -183.0578125 436.8996875 -183.828125 436.171875 C-189.22678684 430.94324976 -193.87591764 425.17694908 -198.5625 419.3125 C-199.19800781 418.55582031 -199.83351562 417.79914063 -200.48828125 417.01953125 C-233.61515792 377.17125931 -255.52349214 321.92037093 -255.765625 269.92578125 C-255.77132507 268.94747849 -255.77702515 267.96917572 -255.78289795 266.96122742 C-255.79229879 264.89465395 -255.79886224 262.82806583 -255.80273438 260.76147461 C-255.81233315 257.67858773 -255.84335946 254.59639979 -255.875 251.51367188 C-255.94783299 237.87524948 -254.8285315 224.75829029 -252.5625 211.3125 C-252.37429687 210.17675537 -252.18609375 209.04101074 -251.9921875 207.87084961 C-244.17897419 164.29158416 -224.06205356 123.19518497 -194.97875977 89.93334961 C-193.96626824 88.77459574 -192.95958102 87.61075988 -191.95678711 86.44360352 C-181.50395078 74.34024137 -170.18506165 63.07421793 -157.28955078 53.59082031 C-155.51689667 52.27874554 -153.77153121 50.93556652 -152.02734375 49.5859375 C-122.24813163 26.80510106 -86.2809505 11.92398693 -49.6875 4.5 C-48.72690674 4.30510986 -47.76631348 4.11021973 -46.77661133 3.90942383 C-31.16852416 0.92159376 -15.86091856 -0.0669887 0 0 Z " fill="#160E23" transform="translate(255.5625,-0.31250000000000006)"/>
<path d="M0 0 C1.38288208 0.00323273 1.38288208 0.00323273 2.79370117 0.00653076 C67.89027642 0.25014302 130.4813048 25.04030513 177.4375 70.3125 C178.12924316 70.97701172 178.82098633 71.64152344 179.53369141 72.32617188 C189.3031883 81.76111137 198.51753272 91.26301597 206.4375 102.3125 C206.88641602 102.93302246 207.33533203 103.55354492 207.79785156 104.19287109 C229.71058492 134.67316162 244.72621652 168.5337802 252.4375 205.3125 C252.64777832 206.2705957 252.85805664 207.22869141 253.07470703 208.21582031 C259.71991383 239.6477011 259.358047 275.97387788 252.4375 307.3125 C252.21787598 308.33585449 251.99825195 309.35920898 251.77197266 310.41357422 C237.12815478 377.16575466 196.6151614 435.9212553 139.16015625 472.984375 C98.23200419 498.82920756 51.71245796 513.2040777 3.20532227 512.83398438 C-0.12882939 512.8124753 -3.46083294 512.83398544 -6.79492188 512.859375 C-73.10272596 512.94565514 -134.28444904 483.50091335 -181.5625 438.3125 C-182.31015625 437.60609375 -183.0578125 436.8996875 -183.828125 436.171875 C-189.22678684 430.94324976 -193.87591764 425.17694908 -198.5625 419.3125 C-199.19800781 418.55582031 -199.83351562 417.79914063 -200.48828125 417.01953125 C-233.61515792 377.17125931 -255.52349214 321.92037093 -255.765625 269.92578125 C-255.77132507 268.94747849 -255.77702515 267.96917572 -255.78289795 266.96122742 C-255.79229879 264.89465395 -255.79886224 262.82806583 -255.80273438 260.76147461 C-255.81233315 257.67858773 -255.84335946 254.59639979 -255.875 251.51367188 C-255.94783299 237.87524948 -254.8285315 224.75829029 -252.5625 211.3125 C-252.37429687 210.17675537 -252.18609375 209.04101074 -251.9921875 207.87084961 C-244.17897419 164.29158416 -224.06205356 123.19518497 -194.97875977 89.93334961 C-193.96626824 88.77459574 -192.95958102 87.61075988 -191.95678711 86.44360352 C-181.50395078 74.34024137 -170.18506165 63.07421793 -157.28955078 53.59082031 C-155.51689667 52.27874554 -153.77153121 50.93556652 -152.02734375 49.5859375 C-122.24813163 26.80510106 -86.2809505 11.92398693 -49.6875 4.5 C-48.72690674 4.30510986 -47.76631348 4.11021973 -46.77661133 3.90942383 C-31.16852416 0.92159376 -15.86091856 -0.0669887 0 0 Z M-89.5625 68.3125 C-90.78791504 68.89837891 -90.78791504 68.89837891 -92.03808594 69.49609375 C-140.62282143 93.08279383 -178.57285038 136.51006292 -196.56274414 187.33422852 C-198.00619435 191.62993311 -199.31838244 195.95520674 -200.5625 200.3125 C-200.92964111 201.59157227 -200.92964111 201.59157227 -201.30419922 202.89648438 C-206.52800062 221.59070952 -207.69781774 240.15445926 -207.8125 259.5 C-207.82192627 260.69302734 -207.83135254 261.88605469 -207.84106445 263.11523438 C-207.81294602 270.69978324 -207.05266031 277.87612482 -205.5625 285.3125 C-206.2225 285.3125 -206.8825 285.3125 -207.5625 285.3125 C-206.33507304 327.47461599 -184.86348189 370.46704484 -156.62890625 401.05859375 C-154.79509442 403.0588006 -153.05212633 405.10593238 -151.3125 407.1875 C-123.36780634 438.9428337 -82.53316723 459.0479587 -41.5625 467.3125 C-39.73380371 467.70417358 -39.73380371 467.70417358 -37.86816406 468.10375977 C-26.41360947 470.43778563 -15.22751884 470.83111599 -3.5625 470.75 C-2.61884583 470.74662628 -1.67519165 470.74325256 -0.70294189 470.73977661 C14.34190562 470.66203573 28.75374158 469.84812852 43.4375 466.3125 C44.99307617 465.9424585 44.99307617 465.9424585 46.58007812 465.56494141 C75.20383997 458.555304 102.06044037 446.36321857 125.4375 428.3125 C125.99276367 427.88565918 126.54802734 427.45881836 127.12011719 427.01904297 C169.55295409 393.8985076 195.31394695 346.76446254 205.4375 294.3125 C205.59976074 293.48105469 205.76202148 292.64960938 205.92919922 291.79296875 C209.99965534 269.91584233 210.53184383 245.2351274 206.4375 223.3125 C206.28152344 222.45462891 206.12554687 221.59675781 205.96484375 220.71289062 C198.73339371 182.01124132 181.58703634 146.72834768 155.4375 117.3125 C154.13425781 115.82556641 154.13425781 115.82556641 152.8046875 114.30859375 C147.97636171 108.88226431 143.02474719 103.94337155 137.4375 99.3125 C136.56738281 98.55453125 135.69726562 97.7965625 134.80078125 97.015625 C117.46462407 82.10977023 97.5750169 70.89338335 76.4375 62.3125 C75.68581543 62.00570312 74.93413086 61.69890625 74.15966797 61.3828125 C21.68976351 40.42619608 -38.98199933 44.04658933 -89.5625 68.3125 Z " fill="#4D4757" transform="translate(255.5625,-0.31250000000000006)"/>
<path d="M0 0 C17.05438952 13.70952861 27.85731043 31.707812 31.02734375 53.43359375 C33.16050673 78.6993551 26.36405267 100.0671679 10.02734375 119.43359375 C-2.05744155 133.38167194 -20.93577034 143.26211676 -39.31884766 144.60498047 C-66.6829513 146.0966028 -86.33982801 132.83938054 -106.09179688 115.16210938 C-114.20061711 107.71007832 -121.890177 99.86563078 -128.97265625 91.43359375 C-132.71887441 92.68233314 -133.57707252 94.18913991 -135.9765625 97.29296875 C-140.91988865 103.47887415 -146.30001438 109.09291802 -151.91015625 114.68359375 C-152.83505859 115.62460937 -153.75996094 116.565625 -154.71289062 117.53515625 C-162.51922025 125.34695632 -170.74966474 131.71925475 -180.66015625 136.62109375 C-181.66719604 137.12298218 -181.66719604 137.12298218 -182.69458008 137.63500977 C-189.55338121 140.92143521 -196.54969779 142.83327262 -203.97265625 144.43359375 C-205.27009766 144.72169922 -205.27009766 144.72169922 -206.59375 145.015625 C-224.87586269 148.22775317 -244.11022555 140.63103323 -258.97265625 130.43359375 C-275.84801677 116.99698594 -288.33207849 98.19713732 -290.97265625 76.43359375 C-292.65803224 51.67882569 -287.1601481 30.2067408 -271.15625 10.875 C-257.07339835 -4.87058547 -238.49008197 -14.53137063 -217.40234375 -15.890625 C-192.31672418 -17.00489265 -172.8732303 -3.59554313 -154.91015625 12.80859375 C-146.17305171 20.91904099 -137.62063727 29.27756014 -129.97265625 38.43359375 C-126.80797288 35.35606173 -123.9718563 32.24387306 -121.28515625 28.74609375 C-90.10840475 -9.61328163 -43.96120912 -32.2237293 0 0 Z " fill="#29A9E0" transform="translate(385.97265625,191.56640625)"/>
<path d="M0 0 C1.38288208 0.00323273 1.38288208 0.00323273 2.79370117 0.00653076 C67.89027642 0.25014302 130.4813048 25.04030513 177.4375 70.3125 C178.12924316 70.97701172 178.82098633 71.64152344 179.53369141 72.32617188 C189.3031883 81.76111137 198.51753272 91.26301597 206.4375 102.3125 C206.88641602 102.93302246 207.33533203 103.55354492 207.79785156 104.19287109 C241.4375 150.98512841 241.4375 150.98512841 241.4375 169.3125 C235.09318464 171.61952377 228.67875239 173.25217893 222.10644531 174.75415039 C215.92669848 176.17310804 209.81741572 177.78950238 203.70703125 179.48046875 C200.62590429 180.26455482 197.57997178 180.84041395 194.4375 181.3125 C194.03660156 180.42691406 193.63570313 179.54132813 193.22265625 178.62890625 C182.97574282 156.19498075 170.93133112 135.770482 154.4375 117.3125 C153.64472656 116.39855469 152.85195313 115.48460938 152.03515625 114.54296875 C147.48084421 109.3502745 142.74270879 104.72410093 137.4375 100.3125 C136.56609375 99.55324219 135.6946875 98.79398437 134.796875 98.01171875 C117.46025314 83.10871359 97.57380783 71.89289253 76.4375 63.3125 C75.68581543 63.00570312 74.93413086 62.69890625 74.15966797 62.3828125 C25.74960508 43.04770737 -31.59600431 44.23718999 -79.4375 64.625 C-82.83978887 66.13277417 -86.20731316 67.70285472 -89.5625 69.3125 C-90.37944336 69.70308594 -91.19638672 70.09367187 -92.03808594 70.49609375 C-140.31766351 93.93464713 -177.69434319 136.83183557 -195.5625 187.3347168 C-198.16066165 195.0632328 -200.3553198 202.89868439 -202.3125 210.8125 C-202.59262939 211.92939209 -202.59262939 211.92939209 -202.87841797 213.06884766 C-206.91700882 230.43877974 -208.04410769 247.85160573 -208.25 265.625 C-208.28329928 267.64910874 -208.31779966 269.67319809 -208.35351562 271.69726562 C-208.43694003 276.56889966 -208.50440448 281.44050084 -208.5625 286.3125 C-209.47926514 286.55629395 -210.39603027 286.80008789 -211.34057617 287.05126953 C-212.60361572 287.38755371 -213.86665527 287.72383789 -215.16796875 288.0703125 C-215.84482224 288.25046906 -216.52167572 288.43062561 -217.21903992 288.61624146 C-221.77155481 289.82978292 -226.31832811 291.06306035 -230.86328125 292.3046875 C-233.2003944 292.93276233 -235.53763322 293.56036973 -237.875 294.1875 C-239.68000977 294.68636719 -239.68000977 294.68636719 -241.52148438 295.1953125 C-242.66552734 295.49953125 -243.80957031 295.80375 -244.98828125 296.1171875 C-246.01348877 296.39546387 -247.03869629 296.67374023 -248.0949707 296.96044922 C-248.90925537 297.07662598 -249.72354004 297.19280273 -250.5625 297.3125 C-256.73817564 291.13682436 -254.78730392 274.00264777 -254.79592896 265.684021 C-254.79002285 263.74538916 -254.78078733 261.80676475 -254.76831055 259.86816406 C-254.75006859 256.94847796 -254.74780177 254.02911226 -254.74804688 251.109375 C-254.72007528 234.85658993 -254.6517394 218.79735055 -251.0625 202.875 C-250.79969238 201.69180176 -250.53688477 200.50860352 -250.26611328 199.28955078 C-240.89529486 158.77217255 -222.35815167 121.24647501 -194.97875977 89.93334961 C-193.96626824 88.77459574 -192.95958102 87.61075988 -191.95678711 86.44360352 C-181.50395078 74.34024137 -170.18506165 63.07421793 -157.28955078 53.59082031 C-155.51689667 52.27874554 -153.77153121 50.93556652 -152.02734375 49.5859375 C-122.24813163 26.80510106 -86.2809505 11.92398693 -49.6875 4.5 C-48.72690674 4.30510986 -47.76631348 4.11021973 -46.77661133 3.90942383 C-31.16852416 0.92159376 -15.86091856 -0.0669887 0 0 Z " fill="#837F8A" transform="translate(255.5625,-0.31250000000000006)"/>
<path d="M0 0 C17.01783062 13.68013997 27.91709771 31.72427771 31.02734375 53.43359375 C31.30450757 57.06433992 31.36030569 60.66828594 31.33984375 64.30859375 C31.33791016 65.74452881 31.33791016 65.74452881 31.3359375 67.20947266 C31.2393313 74.33297211 30.42102853 80.67998313 28.02734375 87.43359375 C27.36734375 87.43359375 26.70734375 87.43359375 26.02734375 87.43359375 C25.82109375 88.09359375 25.61484375 88.75359375 25.40234375 89.43359375 C19.08238587 103.22259277 6.69997212 111.18330446 -6.97265625 116.43359375 C-20.32588863 119.57195462 -35.25553873 118.29474447 -47.97265625 113.43359375 C-47.97265625 113.10359375 -47.97265625 112.77359375 -47.97265625 112.43359375 C-47.0290625 112.28664063 -46.08546875 112.1396875 -45.11328125 111.98828125 C-31.05659058 109.53259433 -18.58471063 104.6492251 -9.96875 92.640625 C-2.05240146 79.8653903 -0.3090463 67.02416757 -2.59765625 52.18359375 C-5.46573373 40.1735193 -13.40353719 29.97827539 -23.78515625 23.55859375 C-33.63102538 18.22747617 -43.88293429 15.57400831 -54.98046875 18.125 C-66.68814125 21.70317612 -75.24570515 28.01977818 -83.97265625 36.43359375 C-84.80925781 37.23023438 -85.64585937 38.026875 -86.5078125 38.84765625 C-92.49244501 44.67504185 -97.77896516 50.90058468 -102.97265625 57.43359375 C-104.62919739 59.44234341 -106.3005093 61.43780546 -107.97265625 63.43359375 C-113.07999837 59.63582653 -116.81461181 55.13185067 -120.78125 50.171875 C-123.43537985 46.85539545 -126.1909799 43.6432203 -128.97265625 40.43359375 C-127.50878392 35.91650198 -124.99195095 32.70426926 -121.91015625 29.18359375 C-121.38993896 28.58587158 -120.86972168 27.98814941 -120.33374023 27.37231445 C-87.94926686 -9.29121668 -44.13846907 -32.35366151 0 0 Z " fill="#F7B144" transform="translate(385.97265625,191.56640625)"/>
<path d="M0 0 C0 0.33 0 0.66 0 1 C-0.90621094 1.17015625 -1.81242187 1.3403125 -2.74609375 1.515625 C-15.57748244 4.06832455 -28.109664 8.27277614 -36.58984375 18.87890625 C-45.56283523 32.37567737 -48.16779258 45.9662878 -45.3125 61.81640625 C-42.0843596 73.20905175 -35.36091108 83.57953276 -25.06640625 89.76171875 C-13.65005887 95.64805017 -3.90567836 97.92824481 8.625 94.3125 C20.36818438 90.33340447 30.29814833 83.79509351 38 74 C39.45457891 72.8040129 40.9098966 71.60885225 42.375 70.42578125 C49.07067325 64.55097179 54.41376272 56.89095936 60 50 C63.89252812 51.55701125 66.06142977 54.01434106 68.8125 57.125 C70.11767578 58.60033203 70.11767578 58.60033203 71.44921875 60.10546875 C72.29097656 61.06066406 73.13273438 62.01585937 74 63 C74.72832031 63.77988281 75.45664063 64.55976563 76.20703125 65.36328125 C77.15642578 66.39001953 77.15642578 66.39001953 78.125 67.4375 C78.68445313 68.03433594 79.24390625 68.63117188 79.8203125 69.24609375 C81 71 81 71 81 75 C79.49095952 77.15927743 77.99187576 79.04173688 76.25 81 C75.73066895 81.59304932 75.21133789 82.18609863 74.67626953 82.79711914 C69.58560667 88.51161644 64.25038419 93.9918887 58.875 99.4375 C58.05290039 100.27732422 57.23080078 101.11714844 56.38378906 101.98242188 C48.90157627 109.45570246 40.79890241 115.49542017 31.3125 120.1875 C30.30546021 120.68938843 30.30546021 120.68938843 29.27807617 121.20141602 C22.41927504 124.48784146 15.42295846 126.39967887 8 128 C6.70255859 128.28810547 6.70255859 128.28810547 5.37890625 128.58203125 C-12.90320644 131.79415942 -32.1375693 124.19743948 -47 114 C-63.87536052 100.56339219 -76.35942224 81.76354357 -79 60 C-79.92145389 46.46570415 -80.73426132 32.4762589 -72.8125 20.875 C-72.4088623 20.27099365 -72.00522461 19.6669873 -71.58935547 19.04467773 C-63.77949101 7.61112271 -53.15725353 0.36229796 -40 -4 C-39.41347656 -4.19464844 -38.82695312 -4.38929688 -38.22265625 -4.58984375 C-25.29208038 -6.97597814 -12.14860612 -4.40166888 0 0 Z " fill="#D32A81" transform="translate(174,208)"/>
<path d="M0 0 C0.69883301 0.3616626 1.39766602 0.7233252 2.11767578 1.09594727 C16.01288983 8.46510525 26.97667945 19.165235 38.0625 30.125 C38.79227051 30.84163818 39.52204102 31.55827637 40.27392578 32.29663086 C44.4334414 36.4499211 47.9837888 40.61030857 51.25 45.5 C13.73764568 90.3579294 13.73764568 90.3579294 -10.2578125 92.75 C-22.70055704 93.31719063 -32.76346247 88.3570473 -42.09375 80.53515625 C-51.1190655 72.2168238 -56.38825802 61.30608346 -57.12109375 49.01953125 C-57.52609909 33.44732186 -53.75557056 21.08718033 -42.875 9.50390625 C-31.61019776 -1.05684585 -14.27109091 -7.56663322 0 0 Z " fill="#160E23" transform="translate(183.75,212.5)"/>
<path d="M0 0 C9.93245161 6.82404244 16.32457211 15.47723972 20.25 26.875 C23.14834755 42.57586436 21.3362402 57.08509902 12.21875 70.375 C4.52781847 80.14126226 -6.42926238 86.85520695 -18.75 88.875 C-19.38550781 89.00390625 -20.02101563 89.1328125 -20.67578125 89.265625 C-31.67068236 90.50798671 -44.01794179 81.2429197 -52.25 74.921875 C-80.54727723 51.75347927 -80.54727723 51.75347927 -85.65234375 40.96875 C-85.80496826 37.69648059 -84.16343662 36.37575978 -82.0625 33.9375 C-81.23234375 32.97070312 -80.4021875 32.00390625 -79.546875 31.0078125 C-78.61725455 29.96116302 -77.68487636 28.91695754 -76.75 27.875 C-76.27240234 27.34100586 -75.79480469 26.80701172 -75.30273438 26.25683594 C-72.31283486 22.93230529 -69.27468621 19.65755768 -66.19921875 16.41210938 C-64.85888205 14.99048541 -63.53790578 13.55067483 -62.21875 12.109375 C-44.9208 -6.19949416 -22.50822974 -13.29745975 0 0 Z " fill="#160E23" transform="translate(363.75,215.125)"/>
<path d="M0 0 C2.2793584 2.2793584 2.68837027 3.69019215 3.62890625 6.7421875 C3.93691162 7.71599365 4.24491699 8.6897998 4.56225586 9.69311523 C4.89233643 10.74313721 5.22241699 11.79315918 5.5625 12.875 C9.27688744 24.32420391 13.69787261 35.19987625 19 46 C19.36738281 46.74862305 19.73476563 47.49724609 20.11328125 48.26855469 C27.5566676 63.24080798 36.73003402 76.81929499 47 90 C47.67160156 90.86625 48.34320313 91.7325 49.03515625 92.625 C86.26981103 139.3945103 137.60933539 167.76711518 195 182 C195 182.33 195 182.66 195 183 C187.92595897 182.4244601 181.48280303 180.95720279 174.6875 178.9375 C173.11742187 178.47331665 173.11742187 178.47331665 171.515625 177.99975586 C155.65642095 173.1951379 140.60468817 166.8034131 126 159 C125.34580078 158.65356445 124.69160156 158.30712891 124.01757812 157.95019531 C102.09829677 146.26347603 82.91707897 131.12516388 65 114 C64.25234375 113.29359375 63.5046875 112.5871875 62.734375 111.859375 C57.33571316 106.63074976 52.68658236 100.86444908 48 95 C47.36449219 94.24332031 46.72898438 93.48664063 46.07421875 92.70703125 C26.56397991 69.23819322 12.03158823 40.94336813 2.66015625 12.01611328 C2.07476509 10.22833213 1.44666327 8.45466156 0.8125 6.68359375 C0 4 0 4 0 0 Z " fill="#191226" transform="translate(9,324)"/>
<path d="M0 0 C0.33 0 0.66 0 1 0 C0.99476318 1.05799805 0.98952637 2.11599609 0.98413086 3.20605469 C0.96582798 7.18700288 0.95447699 11.16794747 0.94506836 15.14892578 C0.94008528 16.86149728 0.9332964 18.57406463 0.92456055 20.28662109 C0.87675238 29.91012342 0.93511837 39.41966694 2 49 C0.515 49.495 0.515 49.495 -1 50 C-1.02477198 43.8435902 -1.04289416 37.68720961 -1.05493164 31.53076172 C-1.05995146 29.43765762 -1.06676868 27.34455701 -1.07543945 25.25146484 C-1.08760805 22.23794695 -1.09325191 19.22447554 -1.09765625 16.2109375 C-1.10539818 14.81371964 -1.10539818 14.81371964 -1.11329651 13.38827515 C-1.1136895 8.80717591 -0.94262248 4.50762724 0 0 Z " fill="#565160" transform="translate(48,236)"/>
</svg>
