<?xml version="1.0" encoding="UTF-8"?>
<svg version="1.1" xmlns="http://www.w3.org/2000/svg" width="512" height="512">
<path d="M0 0 C6.46710986 3.81366113 10.64524401 9.71199356 12.91650391 16.83056641 C14.56878543 23.71068527 13.07788479 30.53891551 11.625 37.3125 C9.56661321 47.69464948 8.54878273 58.09070499 7.6875 68.625 C7.62283539 69.39663483 7.55817078 70.16826965 7.49154663 70.96328735 C6.74425343 79.99117008 6.23967555 88.93304594 6.4375 98 C7.28054687 97.566875 8.12359375 97.13375 8.9921875 96.6875 C10.08789062 96.130625 11.18359375 95.57375 12.3125 95 C13.40304688 94.443125 14.49359375 93.88625 15.6171875 93.3125 C18.4375 92 18.4375 92 20.4375 92 C20.42702637 91.23969482 20.41655273 90.47938965 20.40576172 89.69604492 C20.36374179 86.19323134 20.3380292 82.69047108 20.3125 79.1875 C20.29574219 77.99189453 20.27898437 76.79628906 20.26171875 75.56445312 C20.18987123 62.3804336 21.45695285 51.28295725 30.625 41.25 C37.91171182 34.36365696 46.34252088 31.85069384 56.12098694 31.85282898 C57.01895963 31.84915229 57.91693231 31.8454756 58.8421163 31.8416875 C61.8635813 31.83063808 64.88501194 31.82680465 67.90649414 31.82299805 C70.0680248 31.81673425 72.22955437 31.81008753 74.39108276 31.80308533 C80.27361661 31.7856657 86.15614232 31.77512051 92.03869557 31.7668798 C95.71412183 31.76173071 99.38954555 31.75565487 103.06497002 31.74936867 C114.56489132 31.7303122 126.06480618 31.71608314 137.56474024 31.7077567 C150.83819449 31.69798761 164.11148182 31.67167841 177.38487726 31.63125581 C187.64403393 31.60108551 197.9031428 31.58628687 208.16234297 31.58297569 C214.28950267 31.58062589 220.41648416 31.57167453 226.54359627 31.54651451 C232.31134575 31.5232136 238.07879995 31.51900888 243.84658432 31.52927589 C245.9596842 31.5297709 248.0727987 31.52346096 250.18585396 31.50971985 C264.86404784 31.41963581 275.14345741 31.9869264 286.234375 42.5546875 C292.48045975 49.48739859 294.55895622 55.93100847 294.57172108 65.11725807 C294.57407331 65.83812467 294.57642554 66.55899128 294.57884905 67.30170232 C294.58553383 69.72992801 294.58508098 72.15810011 294.58467102 74.58633423 C294.58796997 76.33982531 294.5916956 78.09331563 294.5958125 79.84680498 C294.60583707 84.67553303 294.60955003 89.50424865 294.61220181 94.33298564 C294.61610349 99.5369779 294.6256819 104.74096031 294.63441467 109.94494629 C294.65418262 122.51740582 294.66424557 135.08986617 294.67314246 147.66233736 C294.6775247 153.581445 294.68289166 159.50055174 294.68813133 165.41965866 C294.70514371 185.09340797 294.71963831 204.76715671 294.72688007 224.44091225 C294.72879 229.54703395 294.73071033 234.65315565 294.73266602 239.75927734 C294.73314976 241.02839413 294.7336335 242.29751091 294.7341319 243.60508578 C294.74243381 264.16812432 294.76777344 284.73110473 294.80024669 305.29411788 C294.83330686 326.40066559 294.85132788 347.50718375 294.85452431 368.61375749 C294.85669034 380.46637411 294.86545263 392.31890594 294.89098549 404.17149734 C294.91267818 414.2648165 294.92074991 424.35803026 294.91101871 434.45137008 C294.90646993 439.60094672 294.90839396 444.75030585 294.92778015 449.89985275 C294.94538307 454.61645189 294.94443734 459.33267437 294.92888286 464.04927735 C294.92650244 465.7532321 294.93085284 467.45721273 294.94271151 469.16112788 C295.02288418 481.44411195 293.94128083 491.08226192 285.1484375 500.3203125 C274.02628434 511.23932131 261.85749326 510.57939417 247.17382812 510.51757812 C245.01126129 510.52300357 242.84869815 510.53012859 240.68614197 510.53881836 C234.83285084 510.55700421 228.97984274 510.55000363 223.12654686 510.53730202 C216.99064771 510.52714985 210.85477221 510.53657385 204.71887207 510.54284668 C194.41621567 510.55011661 184.11367411 510.54055248 173.81103516 510.52148438 C161.912824 510.499717 150.01488705 510.50676882 138.11668253 510.52879 C127.8870861 510.54696256 117.65757205 510.54949321 107.42796469 510.53903532 C101.32441306 510.53281064 95.22099017 510.53193663 89.1174469 510.54518127 C83.37828852 510.55676608 77.63948247 510.54866566 71.90036201 510.52560425 C69.79856004 510.52033125 67.69672824 510.52180668 65.59493828 510.53065491 C52.08640223 510.58226539 41.39934135 510.48082522 31.1171875 500.71484375 C21.02095759 490.4072974 20.276549 479.49664416 20.33984375 465.72265625 C20.34196617 463.97292763 20.34196617 463.97292763 20.34413147 462.18785095 C20.34970794 458.47937403 20.36225616 454.77095853 20.375 451.0625 C20.38001804 448.5410165 20.38458041 446.01953205 20.38867188 443.49804688 C20.39966967 437.33201046 20.41638435 431.16600962 20.4375 425 C19.53636475 424.88897949 18.63522949 424.77795898 17.70678711 424.66357422 C10.53588551 423.72052286 3.8175264 422.53992761 -3 420.125 C-3.73669922 419.88136719 -4.47339844 419.63773437 -5.23242188 419.38671875 C-8.83864023 418.15158096 -11.9570958 416.81690725 -15.16015625 414.7421875 C-19.35314887 412.5951442 -21.06130884 412.77916976 -25.5625 414 C-28.18986075 414.99899123 -30.71370897 416.16576209 -33.25 417.375 C-54.91729207 427.27932921 -78.40869516 427.65292851 -100.72265625 419.90234375 C-119.31485413 412.67612718 -134.27086031 400.5929373 -148.5625 387 C-149.19542969 386.41992188 -149.82835937 385.83984375 -150.48046875 385.2421875 C-156.56707271 379.48810584 -161.52395409 372.66209932 -166.5625 366 C-167.16964844 365.19949219 -167.77679688 364.39898437 -168.40234375 363.57421875 C-194.9736529 326.99806459 -208.64773998 284.23097742 -215.5625 240 C-215.76383545 238.77144287 -215.76383545 238.77144287 -215.96923828 237.51806641 C-217.84964385 225.67759419 -217.79063989 213.70965621 -217.875 201.75 C-217.88471832 200.93629944 -217.89443665 200.12259888 -217.90444946 199.28424072 C-218.23836077 166.30311787 -205.77428106 137.40733481 -182.875 113.8125 C-172.2309282 103.21067814 -153.18936221 88 -137.5625 88 C-138.25085938 86.36417969 -138.25085938 86.36417969 -138.953125 84.6953125 C-145.94244141 67.6714707 -153.81757515 44.84090477 -148.84375 26.32421875 C-146.49987786 21.30568607 -143.20579833 18.23827672 -138.25585938 15.91943359 C-116.07989351 8.34921174 -85.64553729 18.07594053 -65.3203125 27.50390625 C-58.60035364 30.99714265 -52.58043219 35.42559125 -46.5625 40 C-45.22943648 41.00035964 -43.89620457 42.00049518 -42.5625 43 C-42.53671875 42.33097656 -42.5109375 41.66195312 -42.484375 40.97265625 C-41.66515058 27.10169725 -39.74320137 12.37895939 -29.0625 2.625 C-21.31215822 -3.91892066 -9.0152657 -4.06920047 0 0 Z M-18.8125 17.75 C-31.62268178 41.5403376 -29.05714221 79.77254812 -28.5625 106 C-26.27089681 106.02692484 -23.97920454 106.04636124 -21.6875 106.0625 C-19.77324219 106.07990234 -19.77324219 106.07990234 -17.8203125 106.09765625 C-14.67585348 106.23176569 -14.67585348 106.23176569 -12.5625 105 C-12.51762451 104.0205542 -12.47274902 103.0411084 -12.42651367 102.03198242 C-10.03194885 50.61251984 -10.03194885 50.61251984 -5.015625 28.0390625 C-4.38693181 23.82248232 -4.7334969 21.17973518 -7.1875 17.6875 C-11.18816954 14.84491901 -14.89765693 14.70512206 -18.8125 17.75 Z M-131.5625 33 C-131.67166632 38.87199879 -131.43209544 44.35152687 -130.375 50.125 C-130.24335449 50.85074219 -130.11170898 51.57648437 -129.97607422 52.32421875 C-128.5388343 59.77777411 -126.47163991 66.98112277 -123.5625 74 C-123.264646 74.79422363 -122.96679199 75.58844727 -122.65991211 76.40673828 C-121.5182818 78.99178285 -120.48636988 80.92427504 -118.5625 83 C-114.9912777 84.19758165 -111.60836767 84.02216088 -107.875 83.875 C-105.79292373 83.88252715 -103.71086196 83.89823849 -101.62890625 83.921875 C-100.08420654 83.92864258 -100.08420654 83.92864258 -98.50830078 83.93554688 C-80.10761105 84.33814774 -62.54193151 91.2926451 -46.5625 100 C-46.23768011 94.18224371 -45.94851024 88.3645817 -45.69140625 82.54345703 C-45.58173928 80.37961144 -45.42124636 78.21843848 -45.25 76.05859375 C-44.94637003 70.70078988 -44.88678452 67.01244947 -48.375 62.75 C-49.73086478 61.45675548 -51.1312721 60.20931277 -52.5625 59 C-53.38492188 58.26136719 -54.20734375 57.52273437 -55.0546875 56.76171875 C-77.16806549 37.69293628 -103.16957233 32.20722953 -131.5625 33 Z M42.1875 56.3125 C38.89078033 61.3753195 38.18756063 66.62389287 38.18581772 72.57056332 C38.18060222 73.85797324 38.17538673 75.14538317 38.17001319 76.47180551 C38.17433667 77.8881002 38.17884996 79.30439432 38.18353271 80.72068787 C38.18122712 82.23483097 38.17804992 83.74897295 38.17407823 85.2631126 C38.16573514 89.41626037 38.16985331 93.56931612 38.17605066 97.7224642 C38.18057616 102.2044783 38.17359087 106.68647659 38.16809082 111.16848755 C38.15919602 119.94603666 38.16111929 128.72355157 38.1669161 137.50110202 C38.17143252 144.63521388 38.17204558 151.76931615 38.16986847 158.90342903 C38.169562 159.91872839 38.16925554 160.93402776 38.16893978 161.98009377 C38.16830033 164.04265618 38.16765191 166.10521859 38.1669946 168.167781 C38.16129098 187.51036504 38.16784956 206.85293012 38.17859533 226.19551105 C38.18752952 242.79091335 38.18597995 259.38628766 38.17675781 275.98168945 C38.16605343 295.2534276 38.16184172 314.52514913 38.16798234 333.79688984 C38.16861944 335.85217829 38.16924818 337.90746675 38.16986847 339.9627552 C38.17017702 340.97399306 38.17048557 341.98523092 38.17080347 343.02711235 C38.17253001 350.15181652 38.16961617 357.27651015 38.16490936 364.40121269 C38.15929862 373.08512014 38.16082102 381.76899143 38.17147085 390.45289474 C38.17672514 394.88321266 38.17878843 399.3134703 38.17217255 403.74378777 C38.16620592 407.80071309 38.16950001 411.85752236 38.18012765 415.91443718 C38.18235866 417.38071204 38.1812321 418.84699674 38.17637607 420.31326526 C37.93673307 432.91465513 37.93673307 432.91465513 42.625 444.3125 C48.2715849 449.70812558 53.72845579 450.44412728 61.20458984 450.38095093 C62.06317785 450.3856309 62.92176586 450.39031087 63.80637169 450.39513266 C66.67055284 450.40705609 69.53425317 450.3976358 72.3984375 450.38818359 C74.45705443 450.39225047 76.51566917 450.397593 78.57427979 450.40411377 C84.1568564 450.41777931 89.73926651 450.41249179 95.32184601 450.40297651 C101.16687974 450.39537602 107.0118993 450.40242661 112.85693359 450.40713501 C122.67222653 450.41259141 132.48745173 450.40540393 142.30273438 450.39111328 C153.64706794 450.37478703 164.99123974 450.38007562 176.33556938 450.3965925 C186.07927776 450.41021061 195.82293747 450.41212542 205.5666523 450.40427649 C211.38452938 450.39960178 217.20233045 450.39896963 223.02020264 450.40888596 C228.4900443 450.41755801 233.95967759 450.41152916 239.42949677 450.39420319 C241.4358053 450.39023965 243.4421314 450.39137011 245.44843292 450.39799118 C248.18932798 450.4062019 250.92955739 450.39589071 253.67041016 450.38095093 C254.46234457 450.38764309 255.25427898 450.39433526 256.07021141 450.40123022 C262.57453533 450.33257201 267.22013838 448.92171341 272.25 444.5625 C275.97329939 440.20092071 276.68766808 437.38494217 276.69476891 431.63681984 C276.70444224 429.66056364 276.70444224 429.66056364 276.714311 427.64438307 C276.7113686 426.17858125 276.70823315 424.7127798 276.70492554 423.24697876 C276.70866082 421.69275071 276.71326185 420.13852453 276.71865618 418.58430135 C276.73091669 414.30650764 276.73062214 410.02879195 276.72826743 405.75098467 C276.72786004 401.14011453 276.73889098 396.52926968 276.74838257 391.91841125 C276.76501004 382.88244672 276.7704929 373.84650827 276.77160732 364.81052972 C276.77255693 357.46751789 276.77666285 350.12451469 276.78300858 342.78150558 C276.80062542 321.97327957 276.8098467 301.16507421 276.80834763 280.35684069 C276.80822776 278.67345162 276.80822776 278.67345162 276.80810547 276.95605469 C276.80798283 275.27061584 276.80798283 275.27061584 276.80785771 273.55112772 C276.80704459 255.3359616 276.82618767 237.12087813 276.8543822 218.90573592 C276.88308836 200.21290928 276.89692376 181.52012298 276.89519465 162.82727373 C276.89452998 152.3284744 276.90005582 141.82976172 276.92155075 131.33098221 C276.93973269 122.39293104 276.94413449 113.4550058 276.9305319 104.51694418 C276.92398724 99.95518465 276.9239389 95.39366692 276.9412384 90.83193016 C276.95690816 86.65707315 276.95416836 82.48265088 276.93667014 78.30780487 C276.93358674 76.79638566 276.93728284 75.2849345 276.94839029 73.77355297 C276.96248352 71.72012839 276.95194994 69.6682347 276.93527794 67.61486244 C276.93571267 66.47407254 276.93614741 65.33328264 276.93659532 64.15792334 C276.13780728 59.10375571 273.58493923 56.01083932 269.8125 52.6875 C263.82846024 48.43568228 256.06575084 48.37023114 248.94970703 49.26123047 C241.9210577 51.32815883 237.37608095 58.27230944 233.09863281 63.8527832 C225.20522569 74.0559748 217.46727817 80.80486357 204.4375 83 C197.46930378 83.56052447 190.46180954 83.4473607 183.4765625 83.43359375 C181.43834257 83.43816349 179.40012417 83.4434714 177.36190796 83.44947815 C173.10383824 83.45837802 168.84595639 83.45602212 164.58789062 83.44604492 C159.16246698 83.43456394 153.73769507 83.45476978 148.31235695 83.48396206 C144.10669922 83.50241105 139.90119514 83.50201425 135.69550705 83.49632454 C133.69665997 83.49617236 131.69780177 83.50212981 129.69899368 83.51461601 C114.51826456 83.59609932 100.98183288 83.18001468 89.4375 72 C87.62311206 70.0612857 85.89159491 68.08240619 84.19140625 66.04296875 C81.76271352 63.21400149 79.10869228 60.64476266 76.4296875 58.0546875 C74.4375 56 74.4375 56 72.28515625 52.796875 C68.83066396 49.40398546 67.20810468 49.26994708 62.53710938 49.27734375 C61.28124023 49.32568359 61.28124023 49.32568359 60 49.375 C58.74993164 49.36533203 58.74993164 49.36533203 57.47460938 49.35546875 C50.75636811 49.47230773 46.92619396 51.44217565 42.1875 56.3125 Z M94.4375 50 C96.4175 52.31 98.3975 54.62 100.4375 57 C101.118125 57.9075 101.79875 58.815 102.5 59.75 C105.58550497 63.33316706 108.86306265 65.05381742 113.4375 66 C116.28312071 66.1048193 119.1045968 66.15718995 121.95043945 66.16113281 C122.80784729 66.16609772 123.66525513 66.17106262 124.54864502 66.17617798 C127.38269862 66.19077239 130.21669625 66.19759709 133.05078125 66.203125 C135.02369691 66.20887871 136.99661256 66.21463641 138.9695282 66.22039795 C143.10623434 66.2309002 147.24292108 66.23674794 151.37963867 66.24023438 C156.67232247 66.24571734 161.96474879 66.26974449 167.25735188 66.29820633 C171.33321372 66.31685813 175.40901386 66.32203967 179.48491478 66.32357025 C181.43569534 66.32659158 183.38647495 66.33460251 185.33721352 66.34775543 C188.07046559 66.36486897 190.80309258 66.36292274 193.53637695 66.35644531 C194.33714157 66.3656601 195.13790619 66.37487488 195.9629364 66.3843689 C202.31406267 66.33737765 207.08355436 65.11855108 211.9375 60.75 C213.175 59.38875 213.175 59.38875 214.4375 58 C215.70458311 56.74619868 216.97557176 55.49633463 218.25 54.25 C219.33331113 53.18747736 220.40246587 52.10960431 221.4375 51 C221.4375 50.67 221.4375 50.34 221.4375 50 C179.5275 50 137.6175 50 94.4375 50 Z M-170.5625 128 C-171.24699219 128.61101562 -171.93148437 129.22203125 -172.63671875 129.8515625 C-187.89773971 143.94327144 -198.70997675 167.55169088 -199.72363281 188.29785156 C-199.7702009 192.28213032 -199.80921071 196.26544374 -199.8125 200.25 C-199.81317474 200.98241913 -199.81384949 201.71483826 -199.81454468 202.4694519 C-199.7511186 246.07873049 -189.08833121 289.49710699 -168.5625 328 C-168.04284668 328.9892749 -168.04284668 328.9892749 -167.51269531 329.99853516 C-150.50935107 362.19288183 -123.87783385 393.10855976 -88.5625 405 C-87.45841797 405.37318359 -87.45841797 405.37318359 -86.33203125 405.75390625 C-69.86920556 410.30745378 -51.53710659 406.17900257 -36.5625 399 C-35.27048077 398.22975776 -33.97877815 397.45898398 -32.6875 396.6875 C-26.8918988 393.81945094 -20.82700511 393.94551657 -14.5625 395 C-10.04140141 396.60946943 -5.82096508 398.83249921 -1.55859375 401.01953125 C5.81539 404.78418994 12.16547969 406 20.4375 406 C20.4375 308.98 20.4375 211.96 20.4375 112 C15.1575 114.31 9.8775 116.62 4.4375 119 C-16.1174546 125.46486475 -36.33713867 124.99321913 -55.6875 115.125 C-57.67460199 114.08626563 -59.65717718 113.03923822 -61.63964844 111.99169922 C-98.96471124 92.74152082 -140.59696836 98.92661204 -170.5625 128 Z M38.4375 464 C37.75498597 476.26972785 37.75498597 476.26972785 43.125 486.8515625 C48.37889328 491.47061034 51.84389154 492.14872239 58.79986572 492.14717102 C59.67530493 492.15084771 60.55074415 492.1545244 61.45271182 492.1583125 C64.40370174 492.1693781 67.35465648 492.17319804 70.30566406 492.17700195 C72.41442477 492.18326442 74.52318437 492.18991103 76.63194275 492.19691467 C82.37377576 492.21434433 88.11560042 492.22488174 93.85745335 492.2331202 C97.44255532 492.23826608 101.02765469 492.24434199 104.61275482 492.25063133 C115.82327794 492.26968869 127.03379444 492.2839188 138.24433064 492.2922433 C151.19692385 492.30201942 164.14934633 492.32834655 177.10187936 492.36874419 C187.10532919 492.39887624 197.10873 492.4137094 207.11222434 492.41702431 C213.0906021 492.41937808 219.06879758 492.42838109 225.04712677 492.45348549 C230.67121708 492.47672024 236.29500451 492.48101786 241.91913033 492.47072411 C243.98392047 492.47022752 246.0487253 492.47658395 248.11347008 492.49028015 C250.93174497 492.50792941 253.74892471 492.50092715 256.56719971 492.48774719 C257.3849123 492.49871644 258.2026249 492.50968568 259.04511666 492.52098733 C264.30494057 492.4615726 267.24771764 491.45125647 271.4375 488 C276.15796179 482.64163797 276.57382491 479.37133016 276.5 472.375 C276.49323242 471.17230469 276.49323242 471.17230469 276.48632812 469.9453125 C276.47453168 467.96350994 276.45659605 465.98174567 276.4375 464 C275.88468825 464.21205896 275.33187651 464.42411793 274.76231289 464.64260292 C264.88626721 467.90106276 254.9156169 467.42166466 244.64282227 467.38818359 C242.54246753 467.3922538 240.44211493 467.3975982 238.34176636 467.40411377 C232.66198726 467.41774048 226.98237242 467.41250767 221.30259061 467.40297651 C215.34380749 467.39535482 209.38503797 467.40243258 203.42625427 467.40713501 C193.42045582 467.41258568 183.41472389 467.40541945 173.40893555 467.39111328 C161.86126163 467.37479261 150.31374668 467.38007389 138.76607662 467.3965925 C128.8311285 467.4102323 118.89622808 467.4121147 108.96127361 467.40427649 C103.03654466 467.39961312 97.11189029 467.3989382 91.18716621 467.40888596 C85.61466072 467.41758951 80.04235896 467.41147194 74.46987534 467.39420319 C72.43179982 467.39025621 70.39370699 467.39134149 68.3556385 467.39799118 C57.96121594 467.42876337 48.38366107 467.38280537 38.4375 464 Z " fill="#000000" transform="translate(217.5625,2)"/>
<path d="M0 0 C2.3020949 3.22293286 2.47510654 6.11996324 2 10 C0.20006226 12.69990662 -1.083773 14.5418865 -4 16 C-6.10173518 16.26967871 -8.20652264 16.51574223 -10.3125 16.75 C-21.44719771 18.30155624 -31.09373042 22.13723396 -40 29 C-40.66386719 29.48855469 -41.32773438 29.97710937 -42.01171875 30.48046875 C-54.96783341 40.78936156 -62.38533637 56.9758472 -65 73 C-65.28340554 76.3784924 -65.49208845 79.73628174 -65.59375 83.125 C-66.15141749 87.07156995 -67.59789011 89.89834223 -70.75 92.375 C-74.14112087 93.31697802 -76.60991203 92.84752199 -80 92 C-82.1875 90.4609375 -82.1875 90.4609375 -84 88 C-84.41053689 85.0900179 -84.5707795 82.65165328 -84.5 79.75 C-84.48078491 78.55334717 -84.48078491 78.55334717 -84.46118164 77.33251953 C-83.84972761 59.01067137 -76.65662765 41.05780563 -65 27 C-64.31164062 26.14921875 -63.62328125 25.2984375 -62.9140625 24.421875 C-51.38184556 10.849663 -19.17887663 -11.69238532 0 0 Z " fill="#000000" transform="translate(118,121)"/>
<path d="M0 0 C2.58455285 1.89533875 2.96275506 2.88826517 4 6 C4.1068684 8.84887201 4.15726232 11.67363794 4.16113281 14.52294922 C4.16609772 15.39317719 4.17106262 16.26340515 4.17617798 17.16000366 C4.19079445 20.04157296 4.19760048 22.92308721 4.203125 25.8046875 C4.20887653 27.80624391 4.21463427 29.80780031 4.22039795 31.80935669 C4.23090623 36.00750994 4.23675015 40.20564404 4.24023438 44.40380859 C4.2457211 49.78303348 4.26975373 55.1620055 4.29820633 60.54115105 C4.31682941 64.67612447 4.32203812 68.81103692 4.32357025 72.94604874 C4.32659766 74.92918405 4.33462913 76.91231826 4.34775543 78.89541245 C4.36481019 81.66989141 4.36293715 84.4437516 4.35644531 87.21826172 C4.3656601 88.03713867 4.37487488 88.85601562 4.3843689 89.69970703 C4.35062019 94.30411702 3.93570302 97.23195185 1 101 C-1.65499724 103.08606926 -3.06750504 102.99879455 -6.5 102.9375 C-10.83279136 101.77693088 -11.70194271 100.80959415 -14 97 C-14.5727632 93.98262911 -14.546927 91.02290469 -14.51757812 87.95874023 C-14.5245874 87.05735321 -14.53159668 86.15596619 -14.53881836 85.2272644 C-14.55639343 82.25405889 -14.54477823 79.28180858 -14.53125 76.30859375 C-14.53394481 74.2402376 -14.53782715 72.17188269 -14.54284668 70.10353088 C-14.54874087 65.77177858 -14.54018026 61.44035647 -14.52148438 57.10864258 C-14.4986808 51.55434396 -14.51182758 46.00081787 -14.53577423 40.44654751 C-14.55022205 36.17688668 -14.5456311 31.90740932 -14.53526306 27.637743 C-14.53259371 25.58959932 -14.53587283 23.54143901 -14.54518127 21.49331474 C-14.55533156 18.632382 -14.53986763 15.77270439 -14.51757812 12.91186523 C-14.52567505 12.06448288 -14.53377197 11.21710052 -14.54211426 10.34403992 C-14.45944243 4.62122997 -14.45944243 4.62122997 -12.15515137 1.50550842 C-7.92830389 -1.44720969 -4.90320927 -1.0506877 0 0 Z " fill="#000000" transform="translate(466,205)"/>
<path d="M0 0 C3.06194285 2.80123922 4.24086869 4.99957399 4.50793457 9.06030273 C4.53161215 10.68456368 4.53334002 12.3092367 4.51757812 13.93359375 C4.5245874 14.82362091 4.53159668 15.71364807 4.53881836 16.63064575 C4.55639371 19.56658315 4.54477718 22.50155315 4.53125 25.4375 C4.53394504 27.48104029 4.53782757 29.52457933 4.54284668 31.56811523 C4.54874111 35.84859439 4.54018039 40.1287394 4.52148438 44.40917969 C4.49869504 49.89388119 4.51181839 55.37779975 4.53577423 60.86247253 C4.55023358 65.08156221 4.54562555 69.30046649 4.53526306 73.51956177 C4.53259616 75.54175916 4.53586422 77.56397343 4.54518127 79.58615112 C4.55534897 82.41335588 4.53984262 85.23929563 4.51757812 88.06640625 C4.52567505 88.90084259 4.53377197 89.73527893 4.54211426 90.59500122 C4.48474238 94.53066103 4.268734 96.55703742 2.18249512 99.99584961 C-0.84253543 102.77368682 -2.93596727 103 -7 103 C-9.76378677 101.83306781 -11.37854265 100.87344187 -13.11955261 98.42649841 C-14.438354 94.79190364 -14.28620247 91.18144076 -14.2746582 87.36352539 C-14.27976913 86.4931514 -14.28488007 85.6227774 -14.29014587 84.72602844 C-14.30404221 81.84983437 -14.3030851 78.9738799 -14.30078125 76.09765625 C-14.3046681 74.09752819 -14.30900274 72.09740095 -14.31376648 70.09727478 C-14.32122874 65.90507329 -14.32093731 61.71295601 -14.31567383 57.52075195 C-14.30987859 52.14937964 -14.32681156 46.77835209 -14.3500185 41.40703678 C-14.36475231 37.27634161 -14.36562803 33.14572954 -14.36250877 29.01501274 C-14.36302214 27.03467564 -14.3682628 25.05433391 -14.37832069 23.07402229 C-14.39066112 20.30441017 -14.38390783 17.53547055 -14.37231445 14.76586914 C-14.37995819 13.94856323 -14.38760193 13.13125732 -14.39547729 12.28918457 C-14.35294765 7.69100638 -13.92902048 4.76365339 -11 1 C-7.44724114 -1.79145339 -4.20120319 -1.12532228 0 0 Z " fill="#000000" transform="translate(295,205)"/>
<path d="M0 0 C2.74799284 2.1191043 3.86703533 3.28484758 4.50793457 6.73193359 C4.51111694 7.77687988 4.51429932 8.82182617 4.51757812 9.8984375 C4.53018677 11.08646973 4.54279541 12.27450195 4.55578613 13.49853516 C4.54768921 14.77776855 4.53959229 16.05700195 4.53125 17.375 C4.5350769 18.69161621 4.53890381 20.00823242 4.54284668 21.36474609 C4.54873724 24.14895434 4.54019414 26.93264849 4.52148438 29.71679688 C4.49869376 33.28149333 4.5118194 36.84498518 4.53577423 40.40963745 C4.5537233 43.8148543 4.54114777 47.21974894 4.53125 50.625 C4.53934692 51.9042334 4.54744385 53.1834668 4.55578613 54.50146484 C4.54317749 55.68949707 4.53056885 56.8775293 4.51757812 58.1015625 C4.51280457 59.66898193 4.51280457 59.66898193 4.50793457 61.26806641 C3.86953061 64.70173156 2.71247424 65.86530081 0 68 C-3.768956 69.22900739 -5.50664753 69.1802634 -9.25 67.8125 C-12.17444869 65.88502245 -12.79772989 65.17379604 -14 62 C-14.26069641 59.426651 -14.26069641 59.426651 -14.2746582 56.48461914 C-14.28419022 55.37989761 -14.29372223 54.27517609 -14.30354309 53.13697815 C-14.30263168 51.94837692 -14.30172028 50.7597757 -14.30078125 49.53515625 C-14.30506638 48.30969589 -14.3093515 47.08423553 -14.31376648 45.82164001 C-14.31950931 43.23013934 -14.3200104 40.63862255 -14.31567383 38.04711914 C-14.31251495 34.08126334 -14.33597127 30.11615413 -14.36132812 26.15039062 C-14.3636012 23.63281344 -14.36430458 21.11523425 -14.36328125 18.59765625 C-14.372491 17.41107925 -14.38170074 16.22450226 -14.39118958 15.00196838 C-14.38496078 13.8940947 -14.37873199 12.78622101 -14.37231445 11.64477539 C-14.37294388 10.67310928 -14.3735733 9.70144318 -14.3742218 8.70033264 C-13.83897461 4.83806312 -12.32615824 2.04198148 -9.25 -0.375 C-5.85887913 -1.31697802 -3.39008797 -0.84752199 0 0 Z " fill="#000000" transform="translate(329,205)"/>
<path d="M0 0 C2.25726011 1.89121793 3.68646424 3.37292849 5 6 C5.10598025 7.76040754 5.14878647 9.52477852 5.16113281 11.28833008 C5.17074036 12.39320267 5.1803479 13.49807526 5.19024658 14.63642883 C5.19449646 15.83535263 5.19874634 17.03427643 5.203125 18.26953125 C5.20882507 19.4978215 5.21452515 20.72611176 5.22039795 21.99162292 C5.2298587 24.59507381 5.23638618 27.19853672 5.24023438 29.80200195 C5.24678795 33.78548148 5.28094669 37.76859436 5.3125 41.75195312 C5.31903039 44.27864276 5.32428072 46.8053361 5.328125 49.33203125 C5.3404718 50.52488235 5.3528186 51.71773346 5.36553955 52.94673157 C5.36253845 54.06106064 5.35953735 55.17538971 5.35644531 56.32348633 C5.36009094 57.30118484 5.36373657 58.27888336 5.36749268 59.28620911 C4.927149 62.53797642 3.9714012 64.39070975 2 67 C-1.63892246 68.54991142 -3.87880579 69.28029855 -7.75 68.3125 C-10.01850224 66.98920703 -11.39174695 66.06692853 -13 64 C-13.38768005 61.38832092 -13.38768005 61.38832092 -13.40405273 58.21508789 C-13.41673691 57.02698013 -13.42942108 55.83887238 -13.44248962 54.61476135 C-13.43955399 53.33036667 -13.43661835 52.04597198 -13.43359375 50.72265625 C-13.4388356 49.40462509 -13.44407745 48.08659393 -13.44947815 46.72862244 C-13.45841271 43.93853185 -13.45598285 41.14872742 -13.44604492 38.35864258 C-13.434559 34.78611365 -13.45475732 31.2145737 -13.48396206 27.64217472 C-13.50674067 24.23144946 -13.49985686 20.82095579 -13.49609375 17.41015625 C-13.50732773 16.1277858 -13.51856171 14.84541534 -13.53013611 13.52418518 C-13.52075516 12.33292526 -13.51137421 11.14166534 -13.50170898 9.91430664 C-13.50154282 8.86634415 -13.50137665 7.81838165 -13.50120544 6.73866272 C-12.87070355 3.29350454 -11.72279677 2.13775339 -9 0 C-5.41563853 -1.19478716 -3.63093708 -0.96330984 0 0 Z " fill="#000000" transform="translate(431,205)"/>
<path d="M0 0 C2.74799284 2.1191043 3.86703533 3.28484758 4.50793457 6.73193359 C4.51111694 7.77687988 4.51429932 8.82182617 4.51757812 9.8984375 C4.53018677 11.08646973 4.54279541 12.27450195 4.55578613 13.49853516 C4.54768921 14.77776855 4.53959229 16.05700195 4.53125 17.375 C4.5350769 18.69161621 4.53890381 20.00823242 4.54284668 21.36474609 C4.54873724 24.14895434 4.54019414 26.93264849 4.52148438 29.71679688 C4.49869376 33.28149333 4.5118194 36.84498518 4.53577423 40.40963745 C4.5537233 43.8148543 4.54114777 47.21974894 4.53125 50.625 C4.53934692 51.9042334 4.54744385 53.1834668 4.55578613 54.50146484 C4.54317749 55.68949707 4.53056885 56.8775293 4.51757812 58.1015625 C4.51280457 59.66898193 4.51280457 59.66898193 4.50793457 61.26806641 C3.87162402 64.69047213 2.68317776 65.85320968 0 68 C-3.50778024 69.42207307 -5.01108233 68.99661895 -8.6875 67.875 C-12.47295298 65.73229077 -12.80411537 65.01831923 -14 61 C-14.26069641 58.38905334 -14.26069641 58.38905334 -14.2746582 55.57055664 C-14.28895622 53.97849144 -14.28895622 53.97849144 -14.30354309 52.35426331 C-14.30263168 51.21770798 -14.30172028 50.08115265 -14.30078125 48.91015625 C-14.30506638 47.7328746 -14.3093515 46.55559296 -14.31376648 45.34263611 C-14.31950382 42.85546511 -14.32001445 40.36827734 -14.31567383 37.88110352 C-14.3125145 34.0799492 -14.33597953 30.27957373 -14.36132812 26.47851562 C-14.36360125 24.05989681 -14.36430455 21.64127591 -14.36328125 19.22265625 C-14.372491 18.08812515 -14.38170074 16.95359406 -14.39118958 15.78468323 C-14.35814136 10.13659116 -14.29503968 5.83025743 -11 1 C-7.51811815 -1.86011723 -4.17847912 -1.04461978 0 0 Z " fill="#000000" transform="translate(363,205)"/>
<path d="M0 0 C2.86942113 2.26533247 3.83907612 3.51722837 5 7 C5.09755907 8.70672146 5.13817923 10.41697201 5.14526367 12.12646484 C5.15164352 13.17119965 5.15802338 14.21593445 5.16459656 15.29232788 C5.16570938 16.42046906 5.1668222 17.54861023 5.16796875 18.7109375 C5.17129715 19.87122467 5.17462555 21.03151184 5.17805481 22.22695923 C5.18312095 24.68320316 5.18546323 27.13945398 5.18530273 29.59570312 C5.1874872 33.3529801 5.20564096 37.10996257 5.22460938 40.8671875 C5.22754375 43.25260316 5.22952825 45.63802022 5.23046875 48.0234375 C5.23765427 49.14753021 5.24483978 50.27162292 5.25224304 51.42977905 C5.24916641 52.48081818 5.24608978 53.5318573 5.24291992 54.61474609 C5.24434494 55.53613373 5.24576996 56.45752136 5.24723816 57.40682983 C4.90437657 61.00295126 3.85542983 63.8594269 1.6875 66.75 C-0.57843201 68.42846816 -2.18953604 68.79925257 -5 69 C-8.45453658 68.01298955 -10.79863683 66.85149368 -13 64 C-13.38768005 61.38832092 -13.38768005 61.38832092 -13.40405273 58.21508789 C-13.41673691 57.02698013 -13.42942108 55.83887238 -13.44248962 54.61476135 C-13.43955399 53.33036667 -13.43661835 52.04597198 -13.43359375 50.72265625 C-13.4388356 49.40462509 -13.44407745 48.08659393 -13.44947815 46.72862244 C-13.45841271 43.93853185 -13.45598285 41.14872742 -13.44604492 38.35864258 C-13.434559 34.78611365 -13.45475732 31.2145737 -13.48396206 27.64217472 C-13.50674067 24.23144946 -13.49985686 20.82095579 -13.49609375 17.41015625 C-13.50732773 16.1277858 -13.51856171 14.84541534 -13.53013611 13.52418518 C-13.52075516 12.33292526 -13.51137421 11.14166534 -13.50170898 9.91430664 C-13.50154282 8.86634415 -13.50137665 7.81838165 -13.50120544 6.73866272 C-12.87428585 3.31307879 -11.67085599 2.15957245 -9 0 C-5.81452856 -1.59273572 -3.39809153 -0.76164121 0 0 Z " fill="#000000" transform="translate(397,205)"/>
<path d="M0 0 C2.58059298 0.66490954 4.34714082 1.65232324 6.16235352 3.62133789 C8.563356 8.24672142 7.82970484 13.9243251 7.73046875 18.99609375 C7.74142578 20.21103516 7.75238281 21.42597656 7.76367188 22.67773438 C7.6730942 33.69801803 7.6730942 33.69801803 3.16796875 38.55859375 C-3.4459417 44.38513391 -8.56162232 43.83611105 -17.14453125 43.93359375 C-18.99981445 43.98966797 -18.99981445 43.98966797 -20.89257812 44.046875 C-31.07737551 44.14591679 -31.07737551 44.14591679 -34.15234375 41.2890625 C-36.7106015 37.1304063 -36.52084641 35.38029987 -35.83203125 30.55859375 C-33.62462444 27.59001218 -32.34605752 26.72993584 -28.83203125 25.55859375 C-27.42378232 25.47837376 -26.01205894 25.45093398 -24.6015625 25.4609375 C-23.39790039 25.46577148 -23.39790039 25.46577148 -22.16992188 25.47070312 C-20.91985352 25.48327148 -20.91985352 25.48327148 -19.64453125 25.49609375 C-18.79955078 25.50060547 -17.95457031 25.50511719 -17.08398438 25.50976562 C-14.9999697 25.52153972 -12.91599148 25.53947485 -10.83203125 25.55859375 C-10.86683594 24.31722656 -10.90164063 23.07585937 -10.9375 21.796875 C-10.96564709 20.15496149 -10.99294626 18.51303329 -11.01953125 16.87109375 C-11.04466797 16.05447266 -11.06980469 15.23785156 -11.09570312 14.39648438 C-11.15415493 9.5839526 -10.93247459 6.48482103 -7.83203125 2.55859375 C-5.30409213 0.03065463 -3.4598896 0.20745953 0 0 Z " fill="#000000" transform="translate(470.83203125,323.44140625)"/>
<path d="M0 0 C1.21494141 -0.01095703 2.42988281 -0.02191406 3.68164062 -0.03320312 C14.70192428 0.05737455 14.70192428 0.05737455 19.5625 4.5625 C25.38904016 11.17641045 24.8400173 16.29209107 24.9375 24.875 C24.99357422 26.7302832 24.99357422 26.7302832 25.05078125 28.62304688 C25.14982304 38.80784426 25.14982304 38.80784426 22.29296875 41.8828125 C18.13431255 44.44107025 16.38420612 44.25131516 11.5625 43.5625 C8.59391843 41.35509319 7.73384209 40.07652627 6.5625 36.5625 C6.48228001 35.15425107 6.45484023 33.74252769 6.46484375 32.33203125 C6.46806641 31.52958984 6.47128906 30.72714844 6.47460938 29.90039062 C6.48298828 29.06701172 6.49136719 28.23363281 6.5 27.375 C6.50451172 26.53001953 6.50902344 25.68503906 6.51367188 24.81445312 C6.52544597 22.73043845 6.5433811 20.64646023 6.5625 18.5625 C4.70044922 18.61470703 4.70044922 18.61470703 2.80078125 18.66796875 C1.15886774 18.69611584 -0.48306046 18.72341501 -2.125 18.75 C-2.94162109 18.77513672 -3.75824219 18.80027344 -4.59960938 18.82617188 C-9.41214115 18.88462368 -12.51127272 18.66294334 -16.4375 15.5625 C-18.96543912 13.03456088 -18.78863422 11.19035835 -18.99609375 7.73046875 C-18.33118421 5.14987577 -17.34377051 3.38332793 -15.37475586 1.56811523 C-10.74937233 -0.83288725 -5.07176865 -0.09923609 0 0 Z " fill="#000000" transform="translate(453.4375,144.4375)"/>
<path d="M0 0 C3.38939556 2.13679285 4.72582557 3.1774767 6 7 C6.08021999 8.40824893 6.10765977 9.81997231 6.09765625 11.23046875 C6.09443359 12.03291016 6.09121094 12.83535156 6.08789062 13.66210938 C6.07951172 14.49548828 6.07113281 15.32886719 6.0625 16.1875 C6.05798828 17.03248047 6.05347656 17.87746094 6.04882812 18.74804688 C6.03705403 20.83206155 6.0191189 22.91603977 6 25 C7.86205078 24.94779297 7.86205078 24.94779297 9.76171875 24.89453125 C11.40363226 24.86638416 13.04556046 24.83908499 14.6875 24.8125 C15.50412109 24.78736328 16.32074219 24.76222656 17.16210938 24.73632812 C21.9425753 24.67826579 25.14632382 24.83895395 29 28 C31.50031654 31.75047482 31.53603554 33.55856266 31 38 C29.34515621 40.63932261 28.67261246 41.58538471 26 43 C21.51171692 43.73014026 17.09949662 43.65127254 12.5625 43.5625 C11.34755859 43.57345703 10.13261719 43.58441406 8.88085938 43.59570312 C-2.13942428 43.50512545 -2.13942428 43.50512545 -7 39 C-12.82654016 32.38608955 -12.2775173 27.27040893 -12.375 18.6875 C-12.41238281 17.45064453 -12.44976562 16.21378906 -12.48828125 14.93945312 C-12.58731658 4.75531959 -12.58731658 4.75531959 -9.6953125 1.6796875 C-6.13336817 -0.54007491 -4.1281823 -0.66345787 0 0 Z " fill="#000000" transform="translate(285,324)"/>
<path d="M0 0 C1.23685547 -0.03738281 2.47371094 -0.07476562 3.74804688 -0.11328125 C13.93218041 -0.21231658 13.93218041 -0.21231658 17.0078125 2.6796875 C19.22757491 6.24163183 19.35095787 8.2468177 18.6875 12.375 C16.55070715 15.76439556 15.5100233 17.10082557 11.6875 18.375 C10.27925107 18.45521999 8.86752769 18.48265977 7.45703125 18.47265625 C6.65458984 18.46943359 5.85214844 18.46621094 5.02539062 18.46289062 C3.77532227 18.45032227 3.77532227 18.45032227 2.5 18.4375 C1.65501953 18.43298828 0.81003906 18.42847656 -0.06054688 18.42382812 C-2.14456155 18.41205403 -4.22853977 18.3941189 -6.3125 18.375 C-6.26029297 20.23705078 -6.26029297 20.23705078 -6.20703125 22.13671875 C-6.17888416 23.77863226 -6.15158499 25.42056046 -6.125 27.0625 C-6.09986328 27.87912109 -6.07472656 28.69574219 -6.04882812 29.53710938 C-5.99076579 34.3175753 -6.15145395 37.52132382 -9.3125 41.375 C-13.06297482 43.87531654 -14.87106266 43.91103554 -19.3125 43.375 C-21.95182261 41.72015621 -22.89788471 41.04761246 -24.3125 38.375 C-25.04264026 33.88671692 -24.96377254 29.47449662 -24.875 24.9375 C-24.89143555 23.11508789 -24.89143555 23.11508789 -24.90820312 21.25585938 C-24.81762545 10.23557572 -24.81762545 10.23557572 -20.3125 5.375 C-13.69858955 -0.45154016 -8.58290893 0.0974827 0 0 Z " fill="#000000" transform="translate(297.3125,144.625)"/>
<path d="M0 0 C3.09824425 2.01385876 3.79896026 3.38347812 4.9375 6.875 C5.0154753 10.7737648 4.13513938 12.76047819 2 16 C-0.64444635 18.17222379 -2.02987018 17.99893321 -5.5 17.875 C-9.43821339 16.89044665 -10.85029357 16.43953029 -13 13 C-13.76398394 8.71538902 -13.70980107 5.26529756 -11.5625 1.4375 C-7.7385792 -0.7076263 -4.28070856 -0.77115706 0 0 Z " fill="#000000" transform="translate(397,290)"/>
<path d="M0 0 C2.99380345 1.99586897 4.63808488 3.38259171 5.44140625 6.97265625 C5.63651403 10.33983897 5.25780968 12.5978169 3.4375 15.4375 C0.1454077 17.54781557 -2.08699373 18 -6 18 C-9.375 16.5625 -9.375 16.5625 -12 14 C-13.22545428 10.4750168 -13.38726046 7.22632479 -12.25 3.625 C-9.02963666 -0.56147234 -4.8895967 -0.90371923 0 0 Z " fill="#000000" transform="translate(328,290)"/>
<path d="M0 0 C3.75979392 1.05909688 5.09536663 3.27164342 6.94140625 6.546875 C7.01041036 10.54911335 6.57243668 12.6587581 4.25390625 15.921875 C1.35261708 17.96061874 -0.51354364 18.47452704 -4.05859375 18.546875 C-6.93731952 17.1729377 -8.80848812 15.79698063 -11.05859375 13.546875 C-11.61393676 8.70745732 -11.78288899 6.63331786 -9.05859375 2.546875 C-5.74874389 0.34030843 -3.91052086 -0.26713235 0 0 Z " fill="#000000" transform="translate(429.05859375,289.453125)"/>
<path d="M0 0 C3 1.4375 3 1.4375 5 4 C5.89214866 8.3028409 5.78461578 11.74461475 3.4375 15.5 C0.18533206 17.50133412 -2.18732499 17.93311096 -6 18 C-9.24798106 16.70080758 -10.58941682 15.69052626 -12.375 12.6875 C-13.15024358 9.35395262 -12.97718613 7.28055344 -12 4 C-8.98118072 -0.58860531 -5.14413997 -0.9677095 0 0 Z " fill="#000000" transform="translate(362,290)"/>
</svg>
