<?xml version="1.0" encoding="UTF-8"?>
<svg version="1.1" xmlns="http://www.w3.org/2000/svg" width="512" height="512">
<path d="M0 0 C0.85795487 -0.00507454 1.71590973 -0.01014909 2.59986323 -0.0153774 C3.54284103 -0.01587516 4.48581883 -0.01637292 5.45737171 -0.01688576 C6.95958065 -0.02345914 6.95958065 -0.02345914 8.49213725 -0.03016531 C11.86375475 -0.04357018 15.2353461 -0.04973598 18.60698414 -0.0558567 C21.01806221 -0.06375632 23.4291391 -0.07202518 25.84021473 -0.08063698 C33.08711198 -0.10460733 40.334011 -0.11978701 47.58093402 -0.13269705 C49.62807007 -0.13640955 51.67520545 -0.14038273 53.72234082 -0.14444971 C66.43704633 -0.16968685 79.15175294 -0.19173814 91.86647797 -0.20417786 C94.81123006 -0.20710751 97.75598213 -0.21006918 100.70073414 -0.21308327 C101.79857851 -0.21420234 101.79857851 -0.21420234 102.91860155 -0.21534403 C114.77268923 -0.22799543 126.62662683 -0.26121601 138.48064437 -0.3028851 C150.65327255 -0.3453231 162.82582395 -0.36887503 174.99852592 -0.37409842 C181.83211579 -0.37751044 188.66547115 -0.38924065 195.49898815 -0.42220116 C201.92826659 -0.45316122 208.35724834 -0.458608 214.78659344 -0.4468174 C217.1456476 -0.44659632 219.5047205 -0.45492935 221.86370945 -0.47247124 C225.0864226 -0.4951304 228.30764907 -0.48688164 231.53036976 -0.47098732 C232.46219395 -0.48486941 233.39401814 -0.49875149 234.35407943 -0.51305425 C240.63924344 -0.43676622 244.99382052 1.00545166 249.81132984 5.13701439 C253.74743326 9.98322652 254.16394191 15.26865418 254.74882984 21.32451439 C256.28138683 37.12771972 263.08607518 50.08538333 275.33476734 60.35576439 C284.79308336 67.15859105 295.41776569 70.90609663 306.99882984 71.57451439 C313.07722766 71.99968729 318.00492215 73.04806232 322.2313509 77.70000076 C326.39149852 83.73434135 326.51221514 89.04856981 326.42656422 96.22734642 C326.43211323 97.41902931 326.43766224 98.6107122 326.4433794 99.8385067 C326.45313649 103.09445871 326.44060369 106.34936064 326.41709423 109.60521364 C326.39680765 113.04914811 326.4028757 116.4930531 326.40520191 119.9370327 C326.40514837 125.74243982 326.38544879 131.54752136 326.35332203 137.3528347 C326.31681329 143.98037793 326.30759388 150.60748928 326.31461954 157.23511994 C326.32103396 163.68183378 326.30994873 170.12840547 326.29065418 176.57509041 C326.28266441 179.28003247 326.28048609 181.98477666 326.28134632 184.68975258 C326.24229828 265.63087332 301.58853502 349.35517609 244.81132984 409.13701439 C243.74241667 410.38153473 242.67958161 411.63130963 241.62382984 412.88701439 C232.60151243 423.23175184 222.64783809 432.72545903 211.81132984 441.13701439 C210.72260945 442.01408566 209.63544761 442.89309407 208.54961109 443.77373314 C186.06590288 461.90657786 160.49952326 476.10567468 133.43632984 486.19951439 C132.67006275 486.48657249 131.90379566 486.7736306 131.11430836 487.06938744 C123.79490304 489.69697034 117.8790292 490.70366963 110.31132984 488.32451439 C109.59138844 488.10440697 108.87144703 487.88429955 108.12968922 487.6575222 C69.45770636 475.26098515 35.91480118 451.84911384 6.43632984 424.44951439 C5.78213062 423.84389671 5.1279314 423.23827904 4.45390797 422.61430931 C-0.0680161 418.36261745 -4.15818996 413.85244811 -8.18867016 409.13701439 C-9.13717864 408.06491814 -10.08758486 406.99449669 -11.04023266 405.92607689 C-16.64901133 399.5605979 -21.90184614 393.01150956 -26.87617016 386.13701439 C-27.37390942 385.45074974 -27.87164867 384.76448509 -28.38447094 384.05742455 C-28.88059887 383.36181419 -29.3767268 382.66620384 -29.88788891 381.94951439 C-30.39839291 381.26069176 -30.9088969 380.57186913 -31.43487072 379.86217308 C-33.18867016 377.13701439 -33.18867016 377.13701439 -34.60882092 373.65535545 C-36.43861824 369.45939079 -38.43600699 365.8804356 -42.18867016 363.13701439 C-50.01106712 360.51091496 -58.83950104 361.47102232 -66.96210766 361.69170189 C-69.41151139 361.70554954 -71.86096198 361.71261386 -74.31040478 361.71321678 C-80.74887935 361.73030192 -87.18353348 361.82752689 -93.6208601 361.94530296 C-103.91412591 362.11946262 -114.20880904 362.16839553 -124.50326443 362.22356606 C-128.08610882 362.25366838 -131.66724649 362.31576457 -135.24955273 362.3835659 C-137.4641154 362.40983905 -139.67868432 362.43559237 -141.89326 362.46074486 C-143.36962681 362.50128235 -143.36962681 362.50128235 -144.87581921 362.54263878 C-154.71704655 362.60907597 -163.2506669 359.96537 -170.40742016 353.04326439 C-180.83376882 341.88524214 -181.64011863 330.59544662 -181.59272289 315.7644558 C-181.59843621 314.13862199 -181.60540417 312.51279219 -181.61352062 310.88696861 C-181.63136179 306.50046483 -181.63030069 302.11416207 -181.62457824 297.727633 C-181.62147298 294.0524915 -181.6275937 290.37738788 -181.63361698 286.70225179 C-181.64763117 278.02520008 -181.64612711 269.34824688 -181.63471508 260.67119408 C-181.62323917 251.74894895 -181.63730776 242.82700461 -181.66411155 233.9047991 C-181.68633401 226.2169429 -181.69289117 218.52918066 -181.68703514 210.84129465 C-181.68367971 206.26179188 -181.6859858 201.68248181 -181.70328617 197.10300636 C-181.71885789 192.79359389 -181.71468764 188.48462376 -181.69598103 184.17522812 C-181.69232312 182.60359908 -181.69532082 181.03193651 -181.70586681 179.46033859 C-181.77650541 168.05307417 -181.39435222 155.27519318 -172.93867016 146.63701439 C-166.29233596 139.92530641 -159.57301885 135.60637341 -149.91720104 134.89650536 C-148.23508778 134.90316719 -148.23508778 134.90316719 -146.51899242 134.90996361 C-145.23819302 134.91011467 -143.95739361 134.91026573 -142.6377821 134.91042137 C-141.26021191 134.9206315 -139.88264335 134.93106343 -138.50507641 134.94170189 C-137.08018728 134.94543718 -135.65529557 134.94828171 -134.23040295 134.95027733 C-130.50021161 134.95787318 -126.77017875 134.9774863 -123.04004955 134.99968529 C-119.22567926 135.02023148 -115.41128309 135.02929772 -111.59687328 135.03935814 C-104.12740039 135.06073651 -96.65805758 135.09482284 -89.18867016 135.13701439 C-89.19866291 134.23951721 -89.19866291 134.23951721 -89.20885754 133.32388878 C-89.27539582 127.07813978 -89.32054743 120.83249204 -89.35346508 114.58647728 C-89.36852104 112.25765961 -89.3889702 109.92887015 -89.41498852 107.60014915 C-89.45151149 104.24648118 -89.46842886 100.8931892 -89.48163891 97.53935814 C-89.50486469 95.98582886 -89.50486469 95.98582886 -89.52855968 94.40091515 C-89.53012631 87.62200078 -88.93119042 82.72651603 -84.70722485 77.19804955 C-79.88578207 72.97965573 -75.72080951 72.08414416 -69.43867016 71.51201439 C-57.25605874 70.02986677 -44.97477967 67.00902402 -36.02851391 57.94951439 C-34.18867016 56.13701439 -34.18867016 56.13701439 -32.18867016 56.13701439 C-31.92699047 55.56724876 -31.66531078 54.99748314 -31.39570141 54.41045189 C-30.09924676 51.96858586 -28.56160501 49.95195857 -26.87617016 47.76201439 C-20.31708578 38.4016544 -17.68141687 28.26368686 -16.99604321 16.99809837 C-16.52011929 10.70915726 -14.25234527 6.99935534 -9.62617016 2.82451439 C-6.35835277 0.56217927 -3.87883795 0.0121866 0 0 Z M-4.18867016 15.13701439 C-4.77222151 17.0987595 -4.77222151 17.0987595 -4.92695141 19.27763939 C-5.02129467 20.09369652 -5.11563793 20.90975365 -5.21284008 21.75053978 C-5.30798901 22.6205764 -5.40313793 23.49061302 -5.50117016 24.38701439 C-7.84745242 42.23064355 -15.19863609 57.34934704 -29.18867016 69.13701439 C-41.43099288 78.20049597 -54.48070051 82.9453492 -69.55195141 83.89092064 C-72.294722 84.04642126 -72.294722 84.04642126 -75.18867016 85.13701439 C-76.39754306 87.5547602 -76.30926359 89.07032503 -76.30219555 91.77031517 C-76.30212002 92.7311602 -76.30204449 93.69200523 -76.30196667 94.68196678 C-76.29680538 95.72158562 -76.2916441 96.76120445 -76.28632641 97.83232689 C-76.28491146 98.89490715 -76.28349651 99.95748741 -76.28203869 101.05226707 C-76.2764285 104.45554448 -76.26387425 107.85875677 -76.25117016 111.26201439 C-76.24615647 113.56539886 -76.24159334 115.86878435 -76.23749828 118.17217064 C-76.22645575 123.82714088 -76.20970767 129.48207298 -76.18867016 135.13701439 C-74.44005939 135.14248283 -74.44005939 135.14248283 -72.65612316 135.14806175 C-61.6369921 135.18510192 -50.61813817 135.24297303 -39.59921837 135.32091713 C-33.9350953 135.36032245 -28.27112609 135.39254504 -22.60688305 135.40801048 C-17.13425479 135.42322271 -11.66204971 135.45774944 -6.18961048 135.50532341 C-4.10821569 135.52009015 -2.02676046 135.52805268 0.05468655 135.52889824 C14.72976265 135.54084872 26.52672113 135.85655274 37.64336109 146.56670189 C44.83540767 155.09348864 45.85286062 164.80225364 46.37382984 175.51201439 C46.41701344 176.3434597 46.46019703 177.17490501 46.50468922 178.03154564 C46.60994789 180.06654667 46.71106057 182.10176142 46.81132984 184.13701439 C53.58686908 184.46884281 60.36029312 184.69514947 67.14214039 184.85112572 C69.44436874 184.91618413 71.74606644 185.00466961 74.04643726 185.11772728 C87.62248533 186.36364918 87.62248533 186.36364918 99.65337086 181.42485619 C102.57622353 178.29472335 104.67866499 174.83811366 106.81132984 171.13701439 C107.80267431 169.8397157 108.81387616 168.55676238 109.86211109 167.30498314 C110.60847828 166.32142845 111.35484547 165.33787376 112.12382984 164.32451439 C112.53060963 163.79245384 112.93738941 163.2603933 113.35649586 162.7122097 C115.1546382 160.35471678 116.92464136 157.98043413 118.66289234 155.57842064 C119.18625172 154.85525658 119.70961109 154.13209251 120.24882984 153.38701439 C120.68066578 152.77342064 121.11250172 152.15982689 121.55742359 151.52763939 C123.42390349 149.45764922 125.38053212 149.17600921 128.07964039 148.93169212 C128.9437151 148.89503441 129.8077898 148.85837669 130.69804859 148.82060814 C132.10473804 148.75776634 132.10473804 148.75776634 133.53984547 148.69365501 C134.51631031 148.65433861 135.49277515 148.6150222 136.49882984 148.57451439 C137.48689625 148.5313308 138.47496265 148.4881472 139.49297047 148.44365501 C141.9322853 148.33759785 144.37170098 148.23553725 146.81132984 148.13701439 C147.14004078 147.06773705 147.14004078 147.06773705 147.47539234 145.97685814 C150.79413683 135.95317051 155.31620262 129.93139815 164.81132984 125.13701439 C172.80765468 121.77855796 183.04078426 121.7661108 191.18632984 124.69951439 C200.22583488 128.95951102 205.08189558 134.98149338 208.81132984 144.13701439 C211.47728668 152.1348849 210.73807625 162.35316826 207.12773609 169.92607689 C201.94565447 178.62951368 195.33718386 182.96172971 185.81132984 186.13701439 C174.9594003 186.93939948 165.81540089 186.29678956 156.99882984 179.38701439 C151.40117804 174.14581683 148.76513654 168.4836812 146.81132984 161.13701439 C136.86908736 159.96728764 136.86908736 159.96728764 127.51054859 162.42607689 C125.69177383 164.54722859 124.28669344 166.76254686 122.81132984 169.13701439 C121.51200298 170.84983508 120.17167655 172.52517403 118.82622242 174.2019558 C117.38032394 176.00392106 115.95651668 177.82133783 114.53789234 179.64482689 C112.12515021 182.73917291 109.69461161 185.81866999 107.24882984 188.88701439 C106.62879078 189.66560814 106.00875172 190.44420189 105.36992359 191.24638939 C102.20098542 195.09041464 102.20098542 195.09041464 99.48280811 195.41548729 C98.02386631 195.43547279 98.02386631 195.43547279 96.53545094 195.45586205 C95.43446064 195.47573174 94.33347034 195.49560143 93.19911671 195.51607323 C92.00638142 195.52762444 90.81364613 195.53917564 89.58476734 195.55107689 C87.75783848 195.58012611 87.75783848 195.58012611 85.89400196 195.60976219 C81.99151654 195.66969653 78.08900185 195.7159991 74.18632984 195.76201439 C71.54569175 195.80018138 68.90506627 195.83923234 66.26445484 195.87920189 C59.78014429 195.97707827 53.29597343 196.05653873 46.81132984 196.13701439 C46.81132984 211.31701439 46.81132984 226.49701439 46.81132984 242.13701439 C79.81132984 242.13701439 112.81132984 242.13701439 146.81132984 242.13701439 C148.13132984 238.50701439 149.45132984 234.87701439 150.81132984 231.13701439 C156.04509658 223.76216126 162.76728318 218.74160331 171.81132984 217.13701439 C182.79675838 216.26515498 191.34410142 217.34613893 200.12382984 224.26201439 C205.57720128 229.362131 209.49647481 236.87872906 210.04961109 244.35967064 C210.26567143 255.53795048 208.74028134 263.97624157 200.88164234 272.37920189 C192.27888836 279.68342697 182.72654224 280.95192509 171.81132984 280.13701439 C162.71098551 278.14382258 156.1567246 273.92888132 150.99882984 266.19951439 C148.68599094 262.48160612 148.11126372 259.68678298 146.81132984 255.13701439 C113.81132984 255.13701439 80.81132984 255.13701439 46.81132984 255.13701439 C46.81132984 270.31701439 46.81132984 285.49701439 46.81132984 301.13701439 C50.68882984 301.10478783 54.56632984 301.07256126 58.56132984 301.03935814 C62.33115419 301.03877555 66.1006271 301.05358798 69.87041187 301.06987572 C72.48339823 301.07295134 75.09645509 301.06010643 77.70927906 301.03081322 C81.47378078 300.9914056 85.2343128 301.00990867 88.99882984 301.03935814 C90.16059742 301.01478035 91.322365 300.99020256 92.51933765 300.96487999 C100.50456314 301.10521331 100.50456314 301.10521331 104.2819109 304.08774376 C106.31216974 306.34946491 108.0794525 308.64237533 109.81132984 311.13701439 C110.77233413 312.33985843 111.73945339 313.53789571 112.71757984 314.72685814 C113.58503655 315.84051135 114.44963465 316.95639722 115.31132984 318.07451439 C116.24587804 319.27530586 117.18077683 320.47582455 118.11601734 321.67607689 C118.56815601 322.25776634 119.02029469 322.8394558 119.48613453 323.4387722 C121.45122041 325.95703628 123.44178738 328.45454909 125.43632984 330.94951439 C126.06797047 331.7397097 126.69961109 332.52990501 127.35039234 333.34404564 C128.68764969 335.04717213 128.68764969 335.04717213 129.81132984 336.13701439 C132.67400551 336.21026607 135.51204884 336.22939644 138.37382984 336.19951439 C139.58329273 336.19274681 139.58329273 336.19274681 140.81718922 336.18584251 C142.8152674 336.17401957 144.81330767 336.15608353 146.81132984 336.13701439 C147.0188689 335.43576439 147.22640797 334.73451439 147.44023609 334.01201439 C150.4310836 324.80170573 154.25889082 318.71750937 162.99882984 314.19951439 C171.73527059 310.14085294 182.03517433 309.37440509 191.18632984 312.69951439 C200.22583488 316.95951102 205.08189558 322.98149338 208.81132984 332.13701439 C211.47728668 340.1348849 210.73807625 350.35316826 207.12773609 357.92607689 C201.94565447 366.62951368 195.33718386 370.96172971 185.81132984 374.13701439 C175.21029072 374.98788727 165.52048868 374.14357812 156.93632984 367.38701439 C151.4042524 362.1202644 148.75826037 356.45782556 146.81132984 349.13701439 C146.19088795 349.11195824 145.57044605 349.08690208 144.93120289 349.06108665 C142.12020587 348.94504718 139.30953743 348.8223568 136.49882984 348.69951439 C135.03413258 348.64053978 135.03413258 348.64053978 133.53984547 348.58037376 C132.6020525 348.53847923 131.66425953 348.4965847 130.69804859 348.45342064 C129.83397388 348.41676292 128.96989918 348.38010521 128.07964039 348.34233665 C124.3027363 348.00045996 123.02053312 347.37837561 120.49882984 344.46904564 C119.59617795 343.30110669 118.70080116 342.12752229 117.81132984 340.94951439 C116.82972287 339.67464862 115.84794705 338.39991285 114.86601734 337.12529564 C114.11143238 336.13843773 114.11143238 336.13843773 113.34160328 335.1316433 C110.89834238 331.94698447 108.41722446 328.79238087 105.93632984 325.63701439 C105.49675953 325.07474144 105.05718922 324.51246849 104.60429859 323.93315697 C104.18019703 323.39199242 103.75609547 322.85082787 103.31914234 322.29326439 C102.95449879 321.8272683 102.58985523 321.3612722 102.21416187 320.88115501 C101.7512273 320.30558861 101.28829273 319.7300222 100.81132984 319.13701439 C100.16575123 318.09400169 99.52017262 317.050989 98.85503101 315.97636986 C97.10081238 313.89558427 96.15502326 313.2140015 93.47209644 312.61302757 C90.49860021 312.44162053 87.58148973 312.46293537 84.60429859 312.55107689 C83.52376713 312.55956657 82.44323566 312.56805626 81.32996082 312.57680321 C77.88522816 312.61033927 74.44285264 312.68562468 70.99882984 312.76201439 C68.66097307 312.79211347 66.32307953 312.81948936 63.98515797 312.84404564 C58.25974695 312.9101311 52.53570679 313.01048293 46.81132984 313.13701439 C46.74784351 314.37765648 46.68435719 315.61829857 46.61894703 316.89653587 C46.53215822 318.53789992 46.4452372 320.17925699 46.35820484 321.82060814 C46.31679371 322.63670555 46.27538258 323.45280296 46.23271656 324.2936306 C45.53453223 337.30554706 42.43159406 346.26178864 32.67851734 355.31279564 C24.85602901 360.28977391 16.80253846 361.734577 7.67461109 361.74638939 C6.66915745 361.76292564 5.6637038 361.7794619 4.62778187 361.79649925 C1.45973309 361.84454976 -1.70783731 361.86625427 -4.87617016 361.88701439 C-7.0422093 361.91521001 -9.20822657 361.94514238 -11.37421703 361.97685814 C-16.64561575 362.05029625 -21.91688232 362.10218885 -27.18867016 362.13701439 C-26.41484176 363.55678444 -25.63764517 364.97471896 -24.85908031 366.3918972 C-24.4266502 367.18170982 -23.99422009 367.97152245 -23.54868603 368.78526878 C-21.48279193 372.35762223 -19.06942715 375.6144254 -16.56367016 378.88701439 C-15.78261913 379.91616966 -15.78261913 379.91616966 -14.9857893 380.96611595 C-2.04185149 397.87999807 12.27609585 414.51169223 28.94023609 427.82451439 C31.8680314 430.18268421 34.70984153 432.62491369 37.56132984 435.07451439 C57.9315751 452.00190129 82.30982444 464.78771165 106.99882984 474.13701439 C107.78918629 474.44034691 108.57954273 474.74367943 109.39384937 475.05620384 C110.14392262 475.33037132 110.89399586 475.6045388 111.66679859 475.88701439 C112.3231731 476.12935814 112.97954762 476.37170189 113.65581226 476.62138939 C118.57665986 477.79851365 122.52769075 477.15431705 127.16289234 475.30107689 C128.16908619 474.90146751 129.17528004 474.50185814 130.21196461 474.09013939 C131.27600513 473.65185814 132.34004566 473.21357689 133.43632984 472.76201439 C134.54355396 472.31084251 135.65077808 471.85967064 136.79155445 471.39482689 C179.75174747 453.61947226 219.84909897 424.35815308 247.60527515 386.74443626 C248.7818654 385.17628441 250.0110198 383.64801013 251.24101734 382.12138939 C276.7298766 350.36210789 293.67641105 311.32581959 303.81132984 272.13701439 C304.04545582 271.24417747 304.27958179 270.35134056 304.5208025 269.43144798 C312.22086132 239.55873227 313.96773516 209.44389762 314.04961109 178.74638939 C314.05368662 177.45101501 314.05776215 176.15564064 314.06196117 174.8210125 C314.08055966 168.68880399 314.09516848 162.55661463 314.10357314 156.42438388 C314.11340708 149.3705417 314.13993421 142.31700813 314.18007404 135.26327491 C314.21380301 129.12457778 314.22571025 122.98601174 314.22977734 116.8472271 C314.23465812 114.24280993 314.24631418 111.63839647 314.26481533 109.03404045 C314.28900035 105.41022928 314.28828171 101.78724764 314.28130054 98.16338158 C314.2941106 97.08499519 314.30692066 96.00660881 314.3201189 94.89554405 C314.31317509 93.91181313 314.30623127 92.9280822 314.29907703 91.91454124 C314.30265956 90.63159235 314.30265956 90.63159235 314.30631447 89.3227253 C313.98553081 86.98793939 313.98553081 86.98793939 312.00691986 85.37308693 C308.80065834 83.56802688 305.53142663 83.51731836 301.93632984 83.26201439 C284.64931715 81.59403426 269.59356244 73.96613357 257.81132984 61.13701439 C248.24253667 49.10658735 243.60394884 35.86570432 242.36601734 20.63310814 C241.75767023 16.7988077 241.38494182 15.04140256 238.81132984 12.13701439 C235.6773792 11.36249852 232.57303659 11.47197303 229.35942554 11.51555443 C228.3789264 11.50916561 227.39842726 11.50277678 226.38821602 11.49619436 C223.08743826 11.48087724 219.78784793 11.50145075 216.48711109 11.52178001 C214.12703013 11.51828085 211.76695151 11.5126246 209.40688038 11.50496483 C202.98541814 11.49067793 196.56438209 11.50781693 190.14296055 11.53125 C184.11327563 11.55142746 178.08357775 11.54611579 172.05386937 11.54377216 C160.1060876 11.54008006 148.15847205 11.560924 136.2107439 11.5950222 C124.61109179 11.62811484 113.01161415 11.64228074 101.41191578 11.63603783 C88.78774706 11.62927699 76.16365148 11.6317253 63.53949356 11.65139723 C62.53856502 11.65295646 62.53856502 11.65295646 61.5174157 11.65454718 C60.17711928 11.65663812 58.8368229 11.65874909 57.49652654 11.66088036 C52.82562136 11.66778208 48.15475364 11.66837356 43.48384571 11.66699791 C37.19984858 11.6661212 30.91606104 11.68027756 24.63211918 11.70622444 C22.32097991 11.71340795 20.00981838 11.71545944 17.69867039 11.7121067 C14.55329492 11.70841308 11.40853834 11.7230658 8.26323414 11.74260521 C6.87867008 11.73461332 6.87867008 11.73461332 5.46613503 11.72645998 C4.62599704 11.73551662 3.78585905 11.74457326 2.92026234 11.75390434 C2.19396468 11.75547554 1.46766703 11.75704675 0.71936035 11.75866556 C-1.74730099 12.24778689 -2.63880027 13.19659486 -4.18867016 15.13701439 Z M160.99882984 143.34795189 C157.53601488 148.56495601 156.99245302 154.0345226 158.20586109 160.11357689 C160.26542517 166.99650716 165.20825962 171.01212683 171.24882984 174.57451439 C177.68128138 175.98651595 183.151465 175.74009699 188.95586109 172.47295189 C193.50468371 169.1977996 197.49604737 164.66120079 198.81132984 159.13701439 C199.61523874 152.61781568 198.68041167 147.51073915 194.81132984 142.13701439 C190.06924179 137.06904825 185.51387066 134.14574312 178.49882984 133.76201439 C170.884777 133.97702917 165.62011863 137.4457624 160.99882984 143.34795189 Z M-164.18867016 155.13701439 C-169.36233468 162.74416383 -168.75448467 170.75768714 -168.70624828 179.61553001 C-168.71167412 181.28844371 -168.71879936 182.96135262 -168.72748852 184.63425255 C-168.74567005 189.16115107 -168.7386758 193.68768353 -168.72597218 198.21458817 C-168.71581765 202.96075333 -168.72524466 207.70688798 -168.73151684 212.45305443 C-168.73878611 220.42214627 -168.72922446 228.39108964 -168.71015453 236.36015892 C-168.68838717 245.56249087 -168.69543906 254.76446827 -168.71746016 263.96679163 C-168.7356347 271.8795698 -168.73816244 279.79224147 -168.72770548 287.70503378 C-168.72148184 292.42581268 -168.72060377 297.14642514 -168.73385143 301.86719322 C-168.74543926 306.30624799 -168.73733091 310.74484737 -168.71427441 315.18385315 C-168.70900293 316.80917481 -168.71047428 318.43453505 -168.71932507 320.05984116 C-168.89501401 333.21026502 -168.89501401 333.21026502 -162.22382641 344.16045189 C-161.24736156 344.82947533 -161.24736156 344.82947533 -160.25117016 345.51201439 C-159.2785725 346.20424095 -159.2785725 346.20424095 -158.28632641 346.91045189 C-153.55384493 349.6776757 -149.78712541 350.38845341 -144.30126476 350.3977108 C-143.2803935 350.40344912 -143.2803935 350.40344912 -142.23889858 350.40930337 C-139.9651592 350.41959752 -137.69167405 350.41564808 -135.41791821 350.41167259 C-133.78485919 350.41602113 -132.15180222 350.42120475 -130.51874828 350.42716026 C-126.08680737 350.4405481 -121.65495176 350.44112904 -117.22299457 350.43859696 C-113.52035169 350.43752684 -109.81772604 350.44241181 -106.11508685 350.44720238 C-97.37698757 350.45829739 -88.63893128 350.45873538 -79.90082836 350.45268822 C-70.8945919 350.44665115 -61.88851177 350.45895267 -52.88230199 350.48025829 C-45.14370119 350.49789022 -37.40515009 350.50387303 -29.66652995 350.50062054 C-25.04744455 350.49880967 -20.4284706 350.50142411 -15.80940342 350.51533508 C-11.46322199 350.52793427 -7.11728358 350.52594959 -2.77110577 350.51292419 C-1.17964183 350.5105632 0.41183931 350.51327597 2.0032835 350.52154732 C16.62089811 350.61766009 16.62089811 350.61766009 28.81132984 343.13701439 C32.8525709 337.63643628 33.93567561 334.09110719 33.95177174 327.32480431 C33.95474286 326.62818697 33.95771398 325.93156964 33.96077514 325.21384269 C33.96946326 322.87401217 33.97097048 320.53423281 33.97246265 318.19438744 C33.97709075 316.51897128 33.9821154 314.84355619 33.98750782 313.16814232 C34.00063464 308.61227768 34.00707733 304.05642777 34.01151848 299.50054717 C34.01444874 296.65465963 34.01855346 293.80877613 34.02302265 290.96289062 C34.03669831 282.06004024 34.04636464 273.15719908 34.05022454 264.25433892 C34.05470565 253.97492894 34.07225572 243.69565191 34.10122514 233.41628236 C34.1228365 225.47224202 34.13292853 217.52823911 34.13426566 209.58416969 C34.13531408 204.83879508 34.14122968 200.09354543 34.15908527 195.34820175 C34.17555652 190.88387706 34.17772608 186.4197714 34.16894627 181.95542717 C34.16817538 180.31796813 34.17252536 178.68049735 34.18240452 177.04306793 C34.19511334 174.80517637 34.1892536 172.56806178 34.17882252 170.3301754 C34.18028908 169.07858981 34.18175564 167.82700422 34.18326664 166.5374918 C33.55158707 160.76228447 30.7627234 156.30792981 26.81132984 152.13701439 C20.90372545 148.02377582 16.17172914 147.01400061 9.08214283 146.99657249 C8.40649997 146.99360137 7.7308571 146.99063025 7.03474021 146.98756909 C4.77178094 146.97890068 2.5088747 146.97737542 0.24590015 146.97588158 C-1.37715804 146.97125206 -3.00021515 146.96622722 -4.62327099 146.96083641 C-9.03252116 146.94772269 -13.4417561 146.94126938 -17.85102272 146.93682575 C-20.60697859 146.93389318 -23.36293031 146.92978801 -26.11888409 146.92532158 C-34.74515633 146.91164894 -43.37141908 146.90198132 -51.99770141 146.89811969 C-61.94881032 146.89364029 -71.89978179 146.87609692 -81.85084891 146.84711909 C-89.54695979 146.82548731 -97.24303204 146.8154146 -104.93917298 146.81407857 C-109.53369161 146.81303156 -114.12808099 146.80714585 -118.72256756 146.78925896 C-123.04656115 146.77275253 -127.3703287 146.77063522 -131.69434261 146.77939796 C-133.27774824 146.78016698 -134.86116614 146.7758435 -136.44454098 146.76593971 C-147.35349513 146.70172984 -156.09628148 146.86070779 -164.18867016 155.13701439 Z M160.99882984 237.34795189 C157.53601488 242.56495601 156.99245302 248.0345226 158.20586109 254.11357689 C160.26542517 260.99650716 165.20825962 265.01212683 171.24882984 268.57451439 C177.68128138 269.98651595 183.151465 269.74009699 188.95586109 266.47295189 C193.50468371 263.1977996 197.49604737 258.66120079 198.81132984 253.13701439 C199.61523874 246.61781568 198.68041167 241.51073915 194.81132984 236.13701439 C190.06924179 231.06904825 185.51387066 228.14574312 178.49882984 227.76201439 C170.884777 227.97702917 165.62011863 231.4457624 160.99882984 237.34795189 Z M160.99882984 331.34795189 C157.53601488 336.56495601 156.99245302 342.0345226 158.20586109 348.11357689 C160.26542517 354.99650716 165.20825962 359.01212683 171.24882984 362.57451439 C177.68128138 363.98651595 183.151465 363.74009699 188.95586109 360.47295189 C193.50468371 357.1977996 197.49604737 352.66120079 198.81132984 347.13701439 C199.61523874 340.61781568 198.68041167 335.51073915 194.81132984 330.13701439 C190.06924179 325.06904825 185.51387066 322.14574312 178.49882984 321.76201439 C170.884777 321.97702917 165.62011863 325.4457624 160.99882984 331.34795189 Z " fill="#000000" transform="translate(183.18867015838623,10.862985610961914)"/>
<path d="M0 0 C1.42848646 -0.01148483 2.85693119 -0.03188134 4.28515625 -0.06152344 C14.1400741 -0.26590651 21.11958266 -0.01498794 28.78100586 6.79516602 C34.38303288 13.19748261 36.27746069 18.40094123 36.22729492 26.99707031 C36.23079956 27.74415253 36.2343042 28.49123474 36.23791504 29.26095581 C36.24667019 31.71386181 36.24090715 34.16647618 36.23413086 36.61938477 C36.23547887 38.32998205 36.23742054 40.04057895 36.2399292 41.75117493 C36.24287166 45.32780624 36.2386095 48.90433739 36.22924805 52.48095703 C36.21782806 57.06771362 36.22443456 61.65423679 36.23639297 66.24098492 C36.2436132 69.76939154 36.24132335 73.29774262 36.23613739 76.82615089 C36.23480268 78.51786133 36.23644236 80.2095768 36.2410965 81.90128136 C36.24616725 84.2614725 36.23844515 86.6212826 36.22729492 88.98144531 C36.23134338 89.68124008 36.23539185 90.38103485 36.23956299 91.10203552 C36.20774326 94.7318714 36.04318148 96.18315259 33.96850586 99.29516602 C32.09350586 99.69360352 32.09350586 99.69360352 29.96850586 99.67016602 C29.26725586 99.67790039 28.56600586 99.68563477 27.84350586 99.69360352 C25.96850586 99.29516602 25.96850586 99.29516602 23.96850586 96.29516602 C23.72799683 94.41584778 23.72799683 94.41584778 23.74145508 92.28271484 C23.74169678 91.47096802 23.74193848 90.65922119 23.7421875 89.82287598 C23.7575354 88.55039001 23.7575354 88.55039001 23.77319336 87.25219727 C23.77520752 86.46889038 23.77722168 85.6855835 23.77929688 84.87854004 C23.78975425 81.95485572 23.81767688 79.03125494 23.84350586 76.10766602 C23.88475586 69.56954102 23.92600586 63.03141602 23.96850586 56.29516602 C10.10850586 56.29516602 -3.75149414 56.29516602 -18.03149414 56.29516602 C-17.91288731 68.9501445 -17.91288731 68.9501445 -17.76123047 81.60473633 C-17.75246652 83.19424841 -17.74482236 84.78376724 -17.73852539 86.37329102 C-17.72317749 87.19490723 -17.70782959 88.01652344 -17.6920166 88.86303711 C-17.69041706 92.3542968 -17.71393466 94.67877966 -19.33105469 97.81762695 C-21.03149414 99.29516602 -21.03149414 99.29516602 -24.53149414 99.85766602 C-28.03149414 99.29516602 -28.03149414 99.29516602 -29.72697449 97.19390869 C-31.30067149 93.69703332 -31.40578034 91.18415364 -31.40380859 87.3527832 C-31.40745926 86.6740062 -31.41110992 85.99522919 -31.41487122 85.29588318 C-31.4229492 83.06101121 -31.40938456 80.826871 -31.39477539 78.59204102 C-31.39425621 77.02891032 -31.39477616 75.46577897 -31.39628601 73.90264893 C-31.39619639 70.62762694 -31.38579331 67.35285163 -31.36767578 64.07788086 C-31.34506423 59.9008275 -31.34443209 55.72413666 -31.35119343 51.54703903 C-31.35455313 48.31775755 -31.34786463 45.08855712 -31.33806419 41.85929108 C-31.33424064 40.32047196 -31.33305205 38.78164378 -31.33465004 37.24282074 C-31.3385168 14.96090102 -31.3385168 14.96090102 -23.03149414 6.29516602 C-15.70291705 0.03792752 -9.19582753 0.05143198 0 0 Z M-17.03149414 18.29516602 C-18.03154718 21.29532513 -18.14724999 23.26940358 -18.12915039 26.40063477 C-18.12665283 27.2864624 -18.12415527 28.17229004 -18.12158203 29.08496094 C-18.11247803 30.20620361 -18.10337402 31.32744629 -18.09399414 32.48266602 C-18.07336914 36.05079102 -18.05274414 39.61891602 -18.03149414 43.29516602 C-4.17149414 43.29516602 9.68850586 43.29516602 23.96850586 43.29516602 C25.53375344 24.3076272 25.53375344 24.3076272 20.96850586 16.29516602 C16.41734259 11.90471799 12.18052853 11.8008507 6.15405273 11.79711914 C5.08219727 11.81709961 4.0103418 11.83708008 2.90600586 11.85766602 C1.8302832 11.85057617 0.75456055 11.84348633 -0.35375977 11.83618164 C-7.32738875 11.89238572 -12.33154663 12.655229 -17.03149414 18.29516602 Z " fill="#000000" transform="translate(80.031494140625,209.704833984375)"/>
<path d="M0 0 C1.41816261 0.00137466 1.41816261 0.00137466 2.86497498 0.0027771 C4.86307803 0.00881855 6.86117179 0.02458084 8.85913086 0.04931641 C11.92530498 0.08583877 14.99027168 0.09033575 18.05664062 0.08984375 C19.99610424 0.09967406 21.93555964 0.11133068 23.875 0.125 C24.79583878 0.12722565 25.71667755 0.12945129 26.66542053 0.13174438 C27.94200783 0.15088394 27.94200783 0.15088394 29.24438477 0.17041016 C30.36998558 0.18184555 30.36998558 0.18184555 31.51832581 0.19351196 C33.37109375 0.4609375 33.37109375 0.4609375 35.37109375 2.4609375 C35.74609375 5.8984375 35.74609375 5.8984375 35.37109375 9.4609375 C31.37109375 12.4609375 31.37109375 12.4609375 18.37109375 12.4609375 C18.37109375 37.2109375 18.37109375 61.9609375 18.37109375 87.4609375 C22.66109375 87.4609375 26.95109375 87.4609375 31.37109375 87.4609375 C32.69109375 88.4509375 34.01109375 89.4409375 35.37109375 90.4609375 C35.74609375 94.0234375 35.74609375 94.0234375 35.37109375 97.4609375 C32.9911686 99.84086265 32.48279072 99.71856468 29.24438477 99.75146484 C28.39332657 99.76422455 27.54226837 99.77698425 26.66542053 99.79013062 C25.28416237 99.79346909 25.28416237 99.79346909 23.875 99.796875 C22.45827248 99.8068602 22.45827248 99.8068602 21.01292419 99.81704712 C19.01311189 99.82718331 17.0132657 99.83186384 15.01342773 99.83154297 C11.94914171 99.83591532 8.88629651 99.87222227 5.82226562 99.91015625 C3.88151536 99.91602429 1.94075823 99.91999377 0 99.921875 C-0.91881454 99.93624603 -1.83762909 99.95061707 -2.7842865 99.96542358 C-9.10079798 99.91992293 -9.10079798 99.91992293 -11.73852539 97.62744141 C-13.00624388 94.54278721 -12.58789045 92.6118856 -11.62890625 89.4609375 C-8.62890625 87.4609375 -8.62890625 87.4609375 5.37109375 87.4609375 C5.37109375 62.7109375 5.37109375 37.9609375 5.37109375 12.4609375 C0.75109375 12.4609375 -3.86890625 12.4609375 -8.62890625 12.4609375 C-11.62890625 10.4609375 -11.62890625 10.4609375 -12.50390625 7.5859375 C-12.62890625 4.4609375 -12.62890625 4.4609375 -11.73852539 2.29443359 C-8.27181794 -0.71852474 -4.43633231 -0.06938797 0 0 Z " fill="#000000" transform="translate(146.62890625,209.5390625)"/>
</svg>
