<?xml version="1.0" encoding="UTF-8"?>
<svg version="1.1" xmlns="http://www.w3.org/2000/svg" width="512" height="512">
<path d="M0 0 C4.03095077 1.71604202 7.73783129 3.88903566 11.5 6.125 C12.5835376 6.75083984 13.6670752 7.37667969 14.78344727 8.02148438 C18.19834473 9.99867322 21.59902956 11.99897182 25 14 C27.20602666 15.28037826 29.41303832 16.55906111 31.62109375 17.8359375 C36.53738714 20.68460993 41.4492125 23.54020733 46.33935547 26.43359375 C48.15349827 27.50163745 49.9758703 28.55579593 51.80517578 29.59765625 C52.69575684 30.11199219 53.58633789 30.62632813 54.50390625 31.15625 C55.29740479 31.60806641 56.09090332 32.05988281 56.90844727 32.52539062 C59.27416569 34.1932953 60.50479649 35.51686148 62 38 C62.22377014 40.72711182 62.22377014 40.72711182 62.01977539 43.89160156 C61.92358665 45.67561371 61.92358665 45.67561371 61.82545471 47.4956665 C61.71269447 49.42367096 61.71269447 49.42367096 61.59765625 51.390625 C61.49740237 54.12972987 61.42409948 56.86946156 61.34960938 59.609375 C61.23046092 63.92097641 61.07899093 68.22039523 60.77612305 72.5234375 C59.78823054 86.52460824 59.78823054 86.52460824 63 100 C69.11643342 107.0016481 77.34954042 110.73821421 85.71888733 114.460495 C90.70799303 116.80139394 95.22747737 119.77349969 99.8125 122.8125 C101.29628064 123.75948843 102.78162566 124.70403722 104.26953125 125.64453125 C104.91486816 126.05396973 105.56020508 126.4634082 106.22509766 126.88525391 C108.46330354 128.29098267 110.72503525 129.65468686 113 131 C112.93039062 129.90300781 112.86078125 128.80601562 112.7890625 127.67578125 C112.73276448 126.22141562 112.6781665 124.76698348 112.625 123.3125 C112.57472656 122.59126953 112.52445312 121.87003906 112.47265625 121.12695312 C112.36333917 117.1368796 112.53621571 115.53189247 115.234375 112.4375 C116.45944785 111.58023649 117.72110338 110.77467907 119 110 C119.88026855 109.46463623 120.76053711 108.92927246 121.66748047 108.37768555 C124.96185222 106.43550485 128.28836591 104.55557 131.625 102.6875 C132.85716634 101.99266287 134.08901326 101.29725904 135.32055664 100.60131836 C137.24041764 99.51641346 139.16049545 98.43191998 141.0818634 97.34968567 C145.70558948 94.74277111 150.30463547 92.09563991 154.89453125 89.4296875 C156.79516473 88.32933262 158.69609873 87.22949861 160.59710693 86.12979126 C161.81720617 85.42222434 163.03601581 84.7124287 164.253479 84.00033569 C165.95560544 83.00550684 167.66324444 82.02012813 169.37109375 81.03515625 C170.33974365 80.4719165 171.30839355 79.90867676 172.30639648 79.32836914 C174.95472104 78.02232963 177.07231598 77.31769011 180 77 C182.70703125 77.94140625 182.70703125 77.94140625 185.8125 79.5625 C186.40232666 79.86913574 186.99215332 80.17577148 187.59985352 80.49169922 C194.6944095 84.25029876 201.60184869 88.36031896 208.51391602 92.44140625 C213.81333067 95.57026087 219.13055555 98.64861924 224.51953125 101.62109375 C225.5650415 102.19972168 226.61055176 102.77834961 227.68774414 103.37451172 C229.68349688 104.47461811 231.68380308 105.56651632 233.68920898 106.64892578 C235.04187866 107.39698486 235.04187866 107.39698486 236.421875 108.16015625 C237.21174805 108.58949463 238.00162109 109.01883301 238.81542969 109.46118164 C241.53410073 111.37622227 243.13245132 113.23926149 245 116 C245.50793457 119.00404358 245.50793457 119.00404358 245.51757812 122.37915039 C245.53018677 123.64719009 245.54279541 124.9152298 245.55578613 126.22169495 C245.54862685 127.59702107 245.54042299 128.97234209 245.53125 130.34765625 C245.53394645 131.76582607 245.53783016 133.18399408 245.54284668 134.60215759 C245.54873275 137.56869171 245.54020711 140.53474288 245.52148438 143.5012207 C245.49867348 147.30015188 245.51183555 151.09795395 245.53577423 154.89684391 C245.55023915 157.82316067 245.54562362 160.74921033 245.53526306 163.6755352 C245.53259872 165.07614718 245.5358553 166.47678356 245.54518127 167.87736702 C245.55535846 169.8349879 245.53709136 171.79269406 245.51757812 173.75024414 C245.51439575 174.8632338 245.51121338 175.97622345 245.50793457 177.12294006 C244.88410988 180.65642867 243.75631482 181.78093754 241 184 C238.70776367 185.44116211 238.70776367 185.44116211 236.16796875 186.77734375 C235.21519043 187.28475098 234.26241211 187.7921582 233.28076172 188.31494141 C231.74959717 189.11810791 231.74959717 189.11810791 230.1875 189.9375 C228.02633109 191.08794342 225.86620214 192.24034226 223.70703125 193.39453125 C222.60053223 193.98572754 221.4940332 194.57692383 220.35400391 195.18603516 C214.01043691 198.61686226 207.75129389 202.19679088 201.48901367 205.77319336 C188.80418327 213 188.80418327 213 186 213 C186 239.4 186 265.8 186 293 C187.65 293.66 189.3 294.32 191 295 C192.71934044 295.89375257 194.42309042 296.81790133 196.11328125 297.765625 C197.10295898 298.31935791 198.09263672 298.87309082 199.11230469 299.44360352 C200.16836914 300.03971436 201.22443359 300.6358252 202.3125 301.25 C203.9526709 302.17413696 203.9526709 302.17413696 205.62597656 303.11694336 C208.50586054 304.74394169 211.38329636 306.37512621 214.25860596 308.01019287 C215.98390539 308.99085183 217.71045316 309.96931349 219.43701172 310.94775391 C222.71379861 312.80942443 225.98307678 314.68358421 229.25 316.5625 C230.25458252 317.13323242 231.25916504 317.70396484 232.29418945 318.29199219 C233.23351318 318.83629883 234.17283691 319.38060547 235.140625 319.94140625 C235.96079102 320.41263916 236.78095703 320.88387207 237.62597656 321.36938477 C241.50421222 324.03317908 244.62692934 326.23881238 245.63491821 330.99731445 C245.64088516 332.66346802 245.64088516 332.66346802 245.64697266 334.36328125 C245.66273346 335.62809326 245.67849426 336.89290527 245.69473267 338.19604492 C245.68578256 339.56820551 245.67552749 340.94035812 245.6640625 342.3125 C245.66743342 343.72827572 245.67228834 345.14404861 245.67855835 346.55981445 C245.68591695 349.52225385 245.67525858 352.48393774 245.65185547 355.44628906 C245.62336623 359.23637526 245.63977594 363.02469123 245.66971779 366.81471252 C245.68781941 369.73682908 245.68202008 372.65852857 245.66907883 375.58065796 C245.66575262 376.97765311 245.66980432 378.37468661 245.68147659 379.77163696 C245.69422848 381.72665647 245.67133275 383.68180943 245.64697266 385.63671875 C245.64299469 386.74748779 245.63901672 387.85825684 245.63491821 389.00268555 C244.79733215 392.956752 243.0488367 394.4352262 240 397 C237.41064453 398.64648438 237.41064453 398.64648438 234.6328125 400.09375 C233.59326416 400.64297119 232.55371582 401.19219238 231.48266602 401.75805664 C230.37463623 402.33289795 229.26660645 402.90773926 228.125 403.5 C225.78135328 404.73608809 223.43875805 405.97396298 221.09765625 407.21484375 C220.50526657 407.52787949 219.91287689 407.84091522 219.30253601 408.16343689 C212.38633884 411.83088232 205.59876168 415.72272168 198.82666016 419.6484375 C196.23578559 421.13469795 193.62470631 422.57445792 191 424 C189.62110596 424.78479736 189.62110596 424.78479736 188.21435547 425.58544922 C180.40922253 429.67436849 180.40922253 429.67436849 175.58984375 428.22265625 C174.03502361 427.53549822 172.50620817 426.78802842 171 426 C169.59065186 425.29786377 169.59065186 425.29786377 168.15283203 424.58154297 C164.92310826 422.92248379 161.74234103 421.19014984 158.5625 419.4375 C157.42466064 418.82068359 156.28682129 418.20386719 155.11450195 417.56835938 C149.85925673 414.71067866 144.63691134 411.81107509 139.4765625 408.78515625 C138.65857178 408.31086182 137.84058105 407.83656738 136.99780273 407.34790039 C135.49551957 406.47142302 134.00215759 405.57940863 132.51977539 404.66967773 C130.31795311 403.33179972 130.31795311 403.33179972 127 402 C123.52749347 403.04166985 120.70739176 404.70350663 117.72314453 406.73046875 C116.91104523 407.27864258 116.09894592 407.82681641 115.26223755 408.39160156 C114.39452728 408.98424805 113.52681702 409.57689453 112.6328125 410.1875 C111.72103241 410.80463867 110.80925232 411.42177734 109.86984253 412.05761719 C106.95186597 414.0339868 104.03833267 416.01679291 101.125 418 C99.20342764 419.30383155 97.28155551 420.60722143 95.359375 421.91015625 C94.4196283 422.54727539 93.47988159 423.18439453 92.51165771 423.84082031 C84.37572104 429.35611189 84.37572104 429.35611189 81.53674316 431.27978516 C79.89160136 432.39538779 78.24726401 433.512178 76.60388184 434.63037109 C74.48621704 436.07042431 72.36481502 437.5047763 70.2421875 438.9375 C69.62860382 439.35676758 69.01502014 439.77603516 68.38284302 440.20800781 C64.22850499 443 64.22850499 443 62 443 C62.03927612 444.41478638 62.03927612 444.41478638 62.0793457 445.8581543 C62.16476922 449.37133145 62.22734298 452.88339908 62.2746582 456.3972168 C62.29974109 457.91529801 62.3338166 459.43325918 62.37719727 460.95092773 C62.43813293 463.13815965 62.46626895 465.32379039 62.48828125 467.51171875 C62.51446533 468.82615967 62.54064941 470.14060059 62.56762695 471.49487305 C61.84639028 475.94854825 60.50131087 477.23209017 57 480 C54.22705078 481.73828125 54.22705078 481.73828125 51.1953125 483.3125 C50.06496582 483.90708008 48.93461914 484.50166016 47.77001953 485.11425781 C46.87793793 485.57572205 46.87793793 485.57572205 45.96783447 486.04650879 C42.82286858 487.67372891 39.69352745 489.33053973 36.5625 490.984375 C35.92853302 491.31830261 35.29456604 491.65223022 34.64138794 491.99627686 C27.43637495 495.80285078 20.35756974 499.82764538 13.28564453 503.875 C11.5833562 504.84755715 9.87803338 505.814833 8.16894531 506.77539062 C6.38862233 507.78057974 4.62533564 508.81588558 2.8671875 509.859375 C-2.15821594 511.85858182 -5.77292705 511.91826035 -10.70361328 509.88525391 C-13.88038978 508.28348699 -16.97109148 506.57336776 -20.0625 504.8125 C-21.19631104 504.18408203 -22.33012207 503.55566406 -23.49829102 502.90820312 C-27.01102889 500.96000213 -30.50550516 498.98073918 -34 497 C-36.14293012 495.79504093 -38.28614767 494.59059285 -40.4296875 493.38671875 C-45.08405014 490.76732118 -49.72676329 488.12825449 -54.36279297 485.4765625 C-58.1235411 483.37093348 -61.94360511 481.3784967 -65.76977539 479.39453125 C-68 478 -68 478 -70 475 C-70.00146484 471.92822266 -70.00146484 471.92822266 -69.7109375 468.1640625 C-68.44814611 453.6876793 -68.44814611 453.6876793 -72.75976562 440.3828125 C-77.35156012 436.1740035 -82.79248011 433.62801634 -88.46142578 431.15478516 C-91.94870645 429.56843801 -94.94731522 427.52044269 -98.0625 425.3125 C-99.23790375 424.5300232 -100.41510901 423.75024827 -101.59375 422.97265625 C-104.72981128 420.8765997 -107.82713472 418.72875244 -110.91725159 416.56559753 C-113.34453107 414.87195213 -115.78348125 413.19556128 -118.22384644 411.52084351 C-119.44335812 410.67793947 -120.65775299 409.82758091 -121.86672974 408.96963501 C-123.57696372 407.75721451 -125.30334571 406.57193956 -127.03515625 405.390625 C-128.0394165 404.68969727 -129.04367676 403.98876953 -130.07836914 403.26660156 C-132.95854368 401.68697181 -132.95854368 401.68697181 -136.06787109 402.62231445 C-138.74415874 403.87979082 -141.32288505 405.16659679 -143.87890625 406.65234375 C-144.79043457 407.17666992 -145.70196289 407.70099609 -146.64111328 408.24121094 C-147.6051709 408.80098633 -148.56922852 409.36076172 -149.5625 409.9375 C-157.52236941 414.49367143 -165.51496331 418.96600845 -173.625 423.25 C-174.92932983 423.94790649 -174.92932983 423.94790649 -176.26000977 424.65991211 C-177.07397217 425.08667236 -177.88793457 425.51343262 -178.7265625 425.953125 C-179.78738037 426.51241699 -179.78738037 426.51241699 -180.86962891 427.08300781 C-184.72957965 428.74447641 -187.08835485 429.3440389 -191.07421875 427.83984375 C-192.28653635 427.22094801 -193.49040531 426.58535044 -194.6875 425.9375 C-195.36466064 425.58461914 -196.04182129 425.23173828 -196.73950195 424.86816406 C-199.16832976 423.5945656 -201.58380704 422.29740227 -204 421 C-206.03110725 419.92290786 -208.06236613 418.84610161 -210.09375 417.76953125 C-220.79582988 412.07255173 -231.43901858 406.26718427 -242 400.3125 C-243.32584106 399.57338379 -243.32584106 399.57338379 -244.6784668 398.81933594 C-245.48582275 398.35946289 -246.29317871 397.89958984 -247.125 397.42578125 C-247.82882813 397.02786377 -248.53265625 396.62994629 -249.2578125 396.2199707 C-251 395 -251 395 -253 392 C-253.27415466 389.24319458 -253.27415466 389.24319458 -253.30639648 385.86376953 C-253.33037758 383.96632492 -253.33037758 383.96632492 -253.35484314 382.0305481 C-253.36121987 380.64797366 -253.3666126 379.26539438 -253.37109375 377.8828125 C-253.3800615 376.46418157 -253.38918337 375.0455516 -253.39845276 373.62692261 C-253.41494153 370.65278832 -253.42264258 367.67876658 -253.42553711 364.70458984 C-253.43091982 360.89890988 -253.46859348 357.09429196 -253.51428127 353.28891182 C-253.54406836 350.35830858 -253.551261 347.42796054 -253.55226326 344.49721909 C-253.55646269 343.09459445 -253.5688862 341.69196885 -253.58978081 340.28949356 C-253.61671984 338.32485097 -253.60875866 336.35982435 -253.59936523 334.39501953 C-253.60443588 333.27821808 -253.60950653 332.16141663 -253.61473083 331.01077271 C-252.80230396 327.03174235 -251.06459777 325.57474983 -248 323 C-245.24291992 321.18579102 -245.24291992 321.18579102 -242.23046875 319.50390625 C-241.10495605 318.86904297 -239.97944336 318.23417969 -238.81982422 317.58007812 C-237.6091168 316.90743089 -236.39834058 316.2349075 -235.1875 315.5625 C-233.30928706 314.50822505 -231.43269726 313.45110341 -229.55627441 312.39364624 C-228.27772796 311.67320356 -226.9986714 310.95366543 -225.71911621 310.23501587 C-221.41524691 307.81386749 -217.14140763 305.34633361 -212.88671875 302.83984375 C-211.78755127 302.19265381 -210.68838379 301.54546387 -209.5559082 300.87866211 C-207.46550858 299.64406044 -205.37675034 298.40667459 -203.28979492 297.16625977 C-202.35627197 296.61639404 -201.42274902 296.06652832 -200.4609375 295.5 C-199.23576416 294.77296875 -199.23576416 294.77296875 -197.98583984 294.03125 C-196 293 -196 293 -194 293 C-194 266.6 -194 240.2 -194 213 C-196.97 212.01 -196.97 212.01 -200 211 C-201.69708464 210.18212986 -203.37346215 209.32001281 -205.02734375 208.41796875 C-205.97383789 207.90403564 -206.92033203 207.39010254 -207.89550781 206.8605957 C-209.40129395 206.03241333 -209.40129395 206.03241333 -210.9375 205.1875 C-212.50322754 204.33321411 -212.50322754 204.33321411 -214.10058594 203.46166992 C-222.67452532 198.76761175 -231.19379479 193.97738025 -239.68725586 189.1394043 C-240.58968018 188.62547119 -241.49210449 188.11153809 -242.421875 187.58203125 C-243.21174805 187.13061768 -244.00162109 186.6792041 -244.81542969 186.21411133 C-246.9655553 184.97921665 -246.9655553 184.97921665 -249.16113281 184.02612305 C-251 183 -251 183 -253 180 C-253.26742554 177.24319458 -253.26742554 177.24319458 -253.29052734 173.86376953 C-253.30328705 172.59880646 -253.31604675 171.33384338 -253.32919312 170.0305481 C-253.33225076 168.64797112 -253.33447852 167.26539209 -253.3359375 165.8828125 C-253.34236518 164.46418116 -253.34909352 163.04555116 -253.35610962 161.62692261 C-253.36808517 158.65278043 -253.37179021 155.67875443 -253.37060547 152.70458984 C-253.37040236 148.89905567 -253.39769417 145.09426894 -253.43214989 141.28891182 C-253.45442204 138.35831299 -253.45844292 135.42789388 -253.45738602 132.49721909 C-253.45974191 131.09461773 -253.46856494 129.69201141 -253.48405075 128.28949356 C-253.50371134 126.32476716 -253.49534999 124.35982128 -253.48583984 122.39501953 C-253.48868988 121.27821808 -253.49153992 120.16141663 -253.49447632 119.01077271 C-252.79698299 114.76386785 -250.71188415 112.25339565 -247.27441406 109.73657227 C-246.69401367 109.43291748 -246.11361328 109.1292627 -245.515625 108.81640625 C-244.83999512 108.45345459 -244.16436523 108.09050293 -243.46826172 107.71655273 C-242.73623535 107.33571533 -242.00420898 106.95487793 -241.25 106.5625 C-239.63137319 105.69277755 -238.01426563 104.82022355 -236.3984375 103.9453125 C-235.53057617 103.47641602 -234.66271484 103.00751953 -233.76855469 102.52441406 C-228.74752875 99.7597504 -223.81650113 96.84114401 -218.875 93.9375 C-203.43887678 84.90857071 -203.43887678 84.90857071 -197.8125 81.6875 C-196.86963135 81.13727173 -196.86963135 81.13727173 -195.90771484 80.57592773 C-192.63263597 78.71527298 -189.79854707 77.1187046 -186 77 C-183.55393447 77.90246145 -181.46820849 78.84325883 -179.1875 80.0625 C-178.16293701 80.59290894 -178.16293701 80.59290894 -177.11767578 81.1340332 C-167.60488797 86.14323786 -158.37233444 91.67201708 -149.12646484 97.15234375 C-145.98335359 99.00983758 -142.83100381 100.85066601 -139.67578125 102.6875 C-137.67958803 103.85399646 -135.68349047 105.02065664 -133.6875 106.1875 C-132.75663574 106.72785889 -131.82577148 107.26821777 -130.86669922 107.82495117 C-130.00705566 108.33002197 -129.14741211 108.83509277 -128.26171875 109.35546875 C-127.50850342 109.79528076 -126.75528809 110.23509277 -125.97924805 110.68823242 C-124.00197711 111.99868965 -122.47891913 113.14327587 -121 115 C-120.78285759 117.81127043 -120.71715724 120.3883345 -120.8125 123.1875 C-120.82603516 123.93708984 -120.83957031 124.68667969 -120.85351562 125.45898438 C-120.88881461 127.30629767 -120.94262083 129.15324066 -121 131 C-107.91402275 122.97773365 -94.8329554 114.95216313 -81.87768555 106.71972656 C-81.169104 106.26952148 -80.46052246 105.81931641 -79.73046875 105.35546875 C-79.12614014 104.97028076 -78.52181152 104.58509277 -77.89916992 104.18823242 C-76 103 -76 103 -73.41854858 101.79777527 C-70.74400632 100.21622726 -70.74400632 100.21622726 -70.38768005 97.31912231 C-70.39578453 95.69960159 -70.39578453 95.69960159 -70.40405273 94.04736328 C-70.3973204 92.82244171 -70.39058807 91.59752014 -70.38365173 90.33547974 C-70.39182356 89.68142277 -70.39999538 89.0273658 -70.40841484 88.35348892 C-70.43382875 86.30133634 -70.42904196 84.2511932 -70.41651917 82.19894409 C-70.39575986 77.8407423 -70.41544914 73.48316089 -70.4375 69.125 C-70.45862084 64.08073133 -70.46312359 59.03711028 -70.43699837 53.99285507 C-70.43364407 51.97557755 -70.45483744 49.95954372 -70.47740173 47.94241333 C-70.47382156 46.71118744 -70.47024139 45.47996155 -70.46655273 44.21142578 C-70.47275131 43.13015411 -70.47894989 42.04888245 -70.4853363 40.93484497 C-69.88065374 37.27830918 -68.54167403 35.64799204 -66 33 C-63.44824219 31.27758789 -63.44824219 31.27758789 -60.546875 29.72265625 C-58.92217285 28.83864136 -58.92217285 28.83864136 -57.26464844 27.93676758 C-56.10481445 27.31825928 -54.94498047 26.69975098 -53.75 26.0625 C-51.30965683 24.73957669 -48.87367815 23.40869897 -46.4375 22.078125 C-45.81929382 21.74174515 -45.20108765 21.4053653 -44.56414795 21.05879211 C-38.22106278 17.59829319 -31.98018197 13.97246362 -25.75 10.3125 C-24.76999023 9.73701416 -23.78998047 9.16152832 -22.78027344 8.56860352 C-21.85762695 8.02647217 -20.93498047 7.48434082 -19.984375 6.92578125 C-18.6859668 6.17095459 -18.6859668 6.17095459 -17.36132812 5.40087891 C-15.90848872 4.53896901 -14.47051184 3.65060713 -13.06054688 2.72021484 C-8.76600789 -0.04315396 -4.98368692 -1.14624799 0 0 Z M-10.06640625 18.7109375 C-11.10224854 19.29214355 -12.13809082 19.87334961 -13.20532227 20.47216797 C-14.31319092 21.10010254 -15.42105957 21.72803711 -16.5625 22.375 C-17.68390381 23.00680176 -18.80530762 23.63860352 -19.96069336 24.28955078 C-29.03803103 29.41855487 -38.04787314 34.65581423 -47 40 C-43.79047307 42.5627623 -40.42575659 44.47511185 -36.80078125 46.3984375 C-35.90905464 46.8736937 -35.90905464 46.8736937 -34.99931335 47.35855103 C-33.10537921 48.36721297 -31.2090635 49.37129213 -29.3125 50.375 C-27.43937252 51.36974367 -25.5667649 52.36544777 -23.6947937 53.36236572 C-22.47988755 54.00816987 -21.26368878 54.65154852 -20.0461731 55.29241943 C-15.94365379 57.45974265 -11.96074241 59.77335158 -8.05151367 62.27197266 C-4.01772251 63.70345727 -0.67887316 62.30784417 3.0769043 60.60473633 C4.14851807 60.01974365 5.22013184 59.43475098 6.32421875 58.83203125 C7.20458549 58.35608772 7.20458549 58.35608772 8.10273743 57.87052917 C9.96883899 56.85923879 11.82816274 55.83616376 13.6875 54.8125 C14.91558467 54.14438952 16.14409741 53.47706527 17.37304688 52.81054688 C19.77278881 51.50711543 22.16978452 50.19887314 24.56396484 48.88525391 C27.83801143 47.08887848 31.11554707 45.29906188 34.39453125 43.51171875 C35.2863208 43.02533936 36.17811035 42.53895996 37.09692383 42.0378418 C37.72493896 41.695354 38.3529541 41.35286621 39 41 C35.64287487 38.19535653 32.29328532 35.90421047 28.46484375 33.79296875 C27.40716797 33.20580078 26.34949219 32.61863281 25.25976562 32.01367188 C24.16341797 31.41103516 23.06707031 30.80839844 21.9375 30.1875 C19.7793382 28.994592 17.62178442 27.80058331 15.46484375 26.60546875 C14.40249512 26.01813965 13.34014648 25.43081055 12.24560547 24.82568359 C7.90710548 22.38523656 3.63268742 19.84129048 -0.63452148 17.27856445 C-4.67406378 15.09515203 -6.25184661 16.56324147 -10.06640625 18.7109375 Z M-55 54 C-55 67.53 -55 81.06 -55 95 C-45.6689194 99.95303162 -45.6689194 99.95303162 -36.33496094 104.90063477 C-35.134411 105.53855831 -33.93420361 106.17712703 -32.734375 106.81640625 C-31.76537262 107.33262291 -31.76537262 107.33262291 -30.77679443 107.85926819 C-25.51518877 110.68164298 -20.37633012 113.6753233 -15.26660156 116.76538086 C-13.13744873 118.15944725 -13.13744873 118.15944725 -11 118 C-11 104.47 -11 90.94 -11 77 C-15.516875 74.504375 -20.03375 72.00875 -24.6875 69.4375 C-26.08315186 68.66591553 -27.47880371 67.89433105 -28.91674805 67.09936523 C-31.97941283 65.40846742 -35.04396037 63.72112706 -38.11077881 62.03778076 C-39.37745934 61.34197198 -40.64344398 60.64489497 -41.90875244 59.94659424 C-43.71424892 58.95108725 -45.52269169 57.96115708 -47.33203125 56.97265625 C-48.37721924 56.399104 -49.42240723 55.82555176 -50.49926758 55.23461914 C-52.83407526 53.85243639 -52.83407526 53.85243639 -55 54 Z M39.171875 57 C38.58641907 57.31396729 38.00096313 57.62793457 37.39776611 57.95141602 C36.14921348 58.62206289 34.90174599 59.29473321 33.65527344 59.96923828 C31.80121804 60.9722908 29.94395648 61.96915656 28.0859375 62.96484375 C19.63961997 67.50882086 11.33386236 72.23779294 3 77 C3 90.53 3 104.06 3 118 C7.25360519 116.29855792 11.21669333 114.38056644 15.2421875 112.2265625 C15.92878448 111.86154633 16.61538147 111.49653015 17.32278442 111.12045288 C18.77068298 110.35006406 20.21792652 109.57844307 21.66455078 108.80566406 C23.85952301 107.6332667 26.05652156 106.46474336 28.25390625 105.296875 C29.6667881 104.54449883 31.07955235 103.79190176 32.4921875 103.0390625 C33.14033417 102.6941275 33.78848083 102.3491925 34.45626831 101.99380493 C35.0802652 101.66020966 35.70426208 101.32661438 36.34716797 100.98291016 C36.88501923 100.69582184 37.42287048 100.40873352 37.97702026 100.11294556 C41.00588692 98.4466097 43.99850111 96.71514222 47 95 C47 81.47 47 67.94 47 54 C43.92615857 54 41.86442443 55.55147146 39.171875 57 Z M-195.75 98.1875 C-196.53044678 98.62513672 -197.31089355 99.06277344 -198.11499023 99.51367188 C-204.79878829 103.28244027 -211.44020337 107.12434048 -218.0625 111 C-219.03219727 111.56356201 -220.00189453 112.12712402 -221.00097656 112.70776367 C-222.34820801 113.50210815 -222.34820801 113.50210815 -223.72265625 114.3125 C-224.92547241 115.01826172 -224.92547241 115.01826172 -226.15258789 115.73828125 C-228.14100457 116.87668873 -228.14100457 116.87668873 -229 119 C-228.35675781 119.34667725 -227.71351563 119.69335449 -227.05078125 120.05053711 C-225.12572744 121.08875488 -223.20112575 122.12781119 -221.27685547 123.16748047 C-219.0841396 124.35189338 -216.89044607 125.53449806 -214.69580078 126.71533203 C-209.77132926 129.37389345 -204.86636783 132.04371058 -200.0546875 134.90234375 C-199.33796875 135.32459229 -198.62125 135.74684082 -197.8828125 136.18188477 C-196.5800567 136.95602966 -195.28514186 137.74358453 -194 138.54663086 C-189.81884835 141.01873677 -187.65175136 141.13313733 -183 140 C-180.06783743 138.73373263 -180.06783743 138.73373263 -177.1484375 137.0859375 C-176.04886719 136.48910156 -174.94929688 135.89226562 -173.81640625 135.27734375 C-172.68074219 134.64957031 -171.54507813 134.02179688 -170.375 133.375 C-168.70630859 132.46814453 -168.70630859 132.46814453 -167.00390625 131.54296875 C-163.657403 129.71583252 -160.32633853 127.86356873 -157 126 C-156.42060669 125.67825806 -155.84121338 125.35651611 -155.2442627 125.02502441 C-153.54625996 124.07958991 -151.85502744 123.12202766 -150.1640625 122.1640625 C-149.17100098 121.60412598 -148.17793945 121.04418945 -147.15478516 120.46728516 C-146.44370605 119.98308105 -145.73262695 119.49887695 -145 119 C-145 118.34 -145 117.68 -145 117 C-145.74459473 116.5875 -146.48918945 116.175 -147.25634766 115.75 C-150.08550968 114.1820834 -152.91427985 112.61346309 -155.7427063 111.04421997 C-156.99364289 110.35025124 -158.24467988 109.65646346 -159.49581909 108.96286011 C-167.60910962 104.46405145 -175.69397893 99.92526332 -183.69140625 95.22265625 C-188.38104913 92.73897059 -191.55400019 95.82073232 -195.75 98.1875 Z M172.390625 97 C171.24891846 97.63671631 170.10721191 98.27343262 168.9309082 98.92944336 C167.70386051 99.6194897 166.4768924 100.30967758 165.25 101 C164.01473597 101.69113857 162.7793031 102.38197545 161.54370117 103.07250977 C153.33447007 107.66562685 145.1423526 112.28917493 137 117 C138.38444793 121.1533438 141.16081463 121.98511723 144.8515625 123.87109375 C145.54381927 124.23469498 146.23607605 124.5982962 146.9493103 124.97291565 C149.16990436 126.13691383 151.39712971 127.28749961 153.625 128.4375 C155.82987114 129.58676554 158.03331401 130.73872698 160.23641968 131.89137268 C161.60747986 132.60746573 162.97982196 133.32111184 164.35366821 134.03184509 C164.99057587 134.36221268 165.62748352 134.69258026 166.28369141 135.03295898 C166.90367004 135.35183075 167.52364868 135.67070251 168.16241455 135.99923706 C170 137 170 137 171.82147217 138.17385864 C174.75796956 140.05105803 176.57750275 141.01139998 180.10351562 140.91625977 C183.07957615 139.97482727 185.61160377 138.84794668 188.34375 137.33984375 C189.33697266 136.79674561 190.33019531 136.25364746 191.35351562 135.6940918 C192.91102539 134.82457886 192.91102539 134.82457886 194.5 133.9375 C195.56412109 133.35202393 196.62824219 132.76654785 197.72460938 132.16333008 C205.52920048 127.85716473 213.29844645 123.48805321 221 119 C217.93074765 115.63520723 214.75908095 113.51787148 210.80078125 111.28515625 C210.20629684 110.94753769 209.61181244 110.60991913 208.99931335 110.2620697 C207.10710833 109.18939951 205.20994359 108.12587059 203.3125 107.0625 C202.05760823 106.35280465 200.80304778 105.64252311 199.54882812 104.93164062 C197.1342499 103.56464416 194.71653299 102.20351477 192.29541016 100.84814453 C190.24910501 99.70052785 188.20639163 98.54645083 186.16943359 97.38232422 C185.3645752 96.92486816 184.5597168 96.46741211 183.73046875 95.99609375 C183.04750732 95.60478271 182.3645459 95.21347168 181.66088867 94.81030273 C177.98635579 93.01759736 175.70341686 95.14541612 172.390625 97 Z M44.64453125 112.421875 C43.26031982 113.21029785 43.26031982 113.21029785 41.84814453 114.01464844 C40.84638184 114.58731445 39.84461914 115.15998047 38.8125 115.75 C29.51363561 121.04222777 20.1615459 126.22320236 10.74536133 131.30371094 C9.87290771 131.77583008 9.0004541 132.24794922 8.1015625 132.734375 C6.94648193 133.35650879 6.94648193 133.35650879 5.76806641 133.99121094 C4.03517575 134.87690798 4.03517575 134.87690798 3 136 C2.90659566 137.62674778 2.88254829 139.25754051 2.88647461 140.88696289 C2.88655014 141.92796646 2.88662567 142.96897003 2.88670349 144.04151917 C2.89186478 145.1737944 2.89702606 146.30606964 2.90234375 147.47265625 C2.9037587 148.62543564 2.90517365 149.77821503 2.90663147 150.96592712 C2.91224995 154.66481064 2.92480558 158.36363464 2.9375 162.0625 C2.94251262 164.56315017 2.94707594 167.06380129 2.95117188 169.56445312 C2.96222538 175.70965588 2.97898148 181.85482369 3 188 C3.7027002 188.38631592 4.40540039 188.77263184 5.12939453 189.1706543 C7.8492512 190.66810099 10.56765578 192.16813994 13.28485107 193.67041016 C14.50948778 194.34729317 15.73446249 195.02356501 16.95977783 195.69921875 C23.54639748 199.33429638 30.08900192 203.01197972 36.515625 206.92578125 C37.50804199 207.5288208 38.50045898 208.13186035 39.52294922 208.75317383 C41.39181711 209.89781942 43.25318927 211.05481527 45.10595703 212.2253418 C45.94497559 212.7387915 46.78399414 213.25224121 47.6484375 213.78125 C48.73390869 214.4628418 48.73390869 214.4628418 49.84130859 215.15820312 C52.6380031 216.24879379 54.16142502 215.87000629 57 215 C59.24916639 213.7747962 61.35706871 212.51513981 63.5 211.125 C64.16217529 210.70371826 64.82435059 210.28243652 65.5065918 209.84838867 C74.231832 204.26687866 82.87976465 198.56073014 91.53125 192.86572266 C92.13203873 192.47138535 92.73282745 192.07704803 93.3518219 191.67076111 C94.54113457 190.88628465 95.72669634 190.09609001 96.90830994 189.30006409 C99.63102658 187.47864334 102.32188963 185.83851149 105.25219727 184.3684082 C109.62623758 182.10370749 112.35772323 180.56418508 114.27124023 175.90405273 C115.04252299 172.04501285 115.29191138 168.49759004 115.3125 164.5625 C115.32060699 163.89148254 115.32871399 163.22046509 115.33706665 162.52911377 C115.2966291 156.44785157 114.71234172 151.06552586 110.70605469 146.23291016 C104.55918187 141.22485063 97.53492234 137.8919858 90.37255859 134.60693359 C85.64230203 132.35309338 81.35789078 129.57972827 77 126.6875 C75.5051503 125.73427657 74.00777624 124.78499945 72.5078125 123.83984375 C71.77723633 123.37819824 71.04666016 122.91655273 70.29394531 122.44091797 C66.17053114 119.8508381 62.02575816 117.29596881 57.875 114.75 C57.09769531 114.27135498 56.32039063 113.79270996 55.51953125 113.29956055 C50.0535984 109.75102681 50.0535984 109.75102681 44.64453125 112.421875 Z M-62.87109375 111.44921875 C-64.42974711 112.47521035 -65.95126561 113.55915325 -67.4375 114.6875 C-68.27531006 115.25533203 -69.11312012 115.82316406 -69.97631836 116.40820312 C-71.760729 117.61837567 -73.53117043 118.84936639 -75.28808594 120.09912109 C-78.87664587 122.61447288 -82.57341726 124.93414877 -86.28637695 127.26025391 C-89.05243327 128.99369136 -91.80330652 130.74900287 -94.55078125 132.51171875 C-99.93868547 135.9641153 -105.34096505 139.39332265 -110.75 142.8125 C-111.55445557 143.32232422 -112.35891113 143.83214844 -113.18774414 144.35742188 C-114.29363892 145.05641602 -114.29363892 145.05641602 -115.421875 145.76953125 C-116.06737305 146.17792236 -116.71287109 146.58631348 -117.37792969 147.00708008 C-119 148 -119 148 -121 149 C-123.73027012 165.77588057 -123.73027012 165.77588057 -119.27587891 181.50488281 C-114.32709997 185.89004177 -108.35269407 188.50767663 -102.40283203 191.27880859 C-96.7436493 194.14128802 -91.60935909 197.75479005 -86.39419556 201.3470459 C-82.56269755 203.97932131 -78.69052062 206.55109369 -74.81738281 209.12158203 C-73.07003681 210.28658031 -71.33277736 211.46705585 -69.61230469 212.67138672 C-68.92297852 213.13947754 -68.23365234 213.60756836 -67.5234375 214.08984375 C-66.95286621 214.48937256 -66.38229492 214.88890137 -65.79443359 215.30053711 C-63.17756755 216.32058081 -61.66617081 215.81423759 -59 215 C-57.08139905 214.08058405 -55.19768574 213.08665338 -53.34375 212.04296875 C-52.23644531 211.42357422 -51.12914062 210.80417969 -49.98828125 210.16601562 C-48.82545526 209.50662604 -47.66269458 208.84712126 -46.5 208.1875 C-45.41074219 207.57712891 -44.32148438 206.96675781 -43.19921875 206.33789062 C-32.43024585 200.28880471 -21.71988279 194.13548911 -11 188 C-10.79710584 180.68643615 -10.65704145 173.37359764 -10.56054688 166.05786133 C-10.52032255 163.56962974 -10.46573389 161.08158714 -10.39648438 158.59399414 C-10.29939329 155.0166161 -10.25406159 151.44173656 -10.21875 147.86328125 C-10.17745972 146.75165115 -10.13616943 145.64002106 -10.09362793 144.4947052 C-9.94308828 138.90027526 -9.94308828 138.90027526 -12.62287903 134.27154541 C-14.69468604 132.9513299 -16.74032971 131.9579971 -19 131 C-20.01924561 130.42523926 -21.03849121 129.85047852 -22.08862305 129.25830078 C-23.05324463 128.74251465 -24.01786621 128.22672852 -25.01171875 127.6953125 C-26.10033203 127.11136719 -27.18894531 126.52742188 -28.31054688 125.92578125 C-29.42494141 125.33152344 -30.53933594 124.73726562 -31.6875 124.125 C-33.89973958 122.94010417 -36.11197917 121.75520833 -38.32421875 120.5703125 C-39.42354736 119.99531006 -40.52287598 119.42030762 -41.65551758 118.82788086 C-43.98689499 117.55369861 -46.17640751 116.26831633 -48.3972168 114.83032227 C-55.27167518 110.24576236 -55.27167518 110.24576236 -62.87109375 111.44921875 Z M-238 131 C-238 144.86 -238 158.72 -238 173 C-232.9675 175.68125 -227.935 178.3625 -222.75 181.125 C-221.18862305 181.95789551 -219.62724609 182.79079102 -218.01855469 183.64892578 C-216.73639133 184.33117348 -215.45416839 185.01330924 -214.171875 185.6953125 C-213.5423291 186.03167725 -212.9127832 186.36804199 -212.26416016 186.71459961 C-206.22602455 189.92278128 -200.12276388 192.93861806 -194 196 C-194 182.47 -194 168.94 -194 155 C-205.43318938 148.51654505 -216.86710919 142.03759396 -228.375 135.6875 C-229.2299707 135.21401123 -230.08494141 134.74052246 -230.96582031 134.25268555 C-231.74795898 133.8225415 -232.53009766 133.39239746 -233.3359375 132.94921875 C-234.02220215 132.57112061 -234.7084668 132.19302246 -235.41552734 131.8034668 C-236.85255653 130.92462272 -236.85255653 130.92462272 -238 131 Z M224.5390625 133.4921875 C223.60078613 134.02811523 222.66250977 134.56404297 221.69580078 135.11621094 C220.68243652 135.69661133 219.66907227 136.27701172 218.625 136.875 C210.05915719 141.75633492 201.43586832 146.48688688 192.67822266 151.01513672 C189.11173064 152.6769683 189.11173064 152.6769683 186 155 C185.91128727 158.02977804 185.8848065 161.03667022 185.90234375 164.06640625 C185.9037587 164.97502914 185.90517365 165.88365204 185.90663147 166.81980896 C185.91224807 169.73407221 185.92480335 172.64825981 185.9375 175.5625 C185.94251286 177.53320202 185.94707614 179.50390524 185.95117188 181.47460938 C185.96222289 186.31643559 185.97949862 191.15820495 186 196 C196.43449959 190.84445224 206.75749597 185.52754135 217 180 C221.29 177.69 225.58 175.38 230 173 C230 159.14 230 145.28 230 131 C228.03089251 131 226.18935636 132.5443085 224.5390625 133.4921875 Z M-144.37109375 135.2890625 C-145.00805679 135.62996918 -145.64501984 135.97087585 -146.30128479 136.32211304 C-148.34879132 137.41920952 -150.39313661 138.52205957 -152.4375 139.625 C-153.78040022 140.34542266 -155.12349714 141.06547879 -156.46679688 141.78515625 C-163.99605335 145.8239294 -171.49896349 149.90852554 -179 154 C-179 167.86 -179 181.72 -179 196 C-167.70105527 189.97620452 -167.70105527 189.97620452 -156.41015625 183.9375 C-155.3106665 183.34839844 -154.21117676 182.75929687 -153.07836914 182.15234375 C-151.75313232 181.44207031 -150.42789551 180.73179687 -149.0625 180 C-144.751875 177.69 -140.44125 175.38 -136 173 C-136 159.47 -136 145.94 -136 132 C-139.16897059 132 -141.64161939 133.81063188 -144.37109375 135.2890625 Z M128 132 C128 145.53 128 159.06 128 173 C137.28731431 177.95061998 137.28731431 177.95061998 146.57495117 182.90063477 C147.772635 183.53920407 148.97030816 184.17779338 150.16796875 184.81640625 C150.74921509 185.12606323 151.33046143 185.43572021 151.92932129 185.75476074 C158.29671486 189.15061954 164.64602528 192.578629 171 196 C171 182.14 171 168.28 171 154 C160.87465947 148.62952376 160.87465947 148.62952376 150.74829102 143.26098633 C149.45841319 142.57649084 148.16861459 141.89184603 146.87890625 141.20703125 C146.19236465 140.84293655 145.50582306 140.47884186 144.79847717 140.10371399 C140.34943289 137.73784922 135.94056142 135.3133495 131.58178711 132.78393555 C129.99556578 131.85198075 129.99556578 131.85198075 128 132 Z M125 188 C123.96746094 188.69222656 122.93492187 189.38445312 121.87109375 190.09765625 C110.27404347 197.85822011 98.60476193 205.50403724 86.90576172 213.10986328 C83.98904517 215.00712588 81.07437816 216.90750204 78.16015625 218.80859375 C76.33597451 219.99745262 74.51175734 221.18625713 72.6875 222.375 C71.41543701 223.20535767 71.41543701 223.20535767 70.11767578 224.05249023 C69.34020996 224.55852783 68.56274414 225.06456543 67.76171875 225.5859375 C67.08069092 226.0298584 66.39966309 226.4737793 65.69799805 226.93115234 C64 228 64 228 62 229 C61.69444355 236.09725886 61.48508914 243.19281186 61.34082031 250.29516602 C61.28065915 252.70791992 61.19890141 255.12023962 61.09472656 257.53149414 C59.74347645 271.21198244 59.74347645 271.21198244 64.3840332 283.39770508 C67.48210625 285.73381494 70.48827271 287.36553982 74 289 C75.67401351 290.13827234 77.32608175 291.30981581 78.94921875 292.51953125 C80.52723398 293.61921624 82.10667879 294.71685249 83.6875 295.8125 C85.41690113 297.0165904 87.14606347 298.22102383 88.875 299.42578125 C90.15697266 300.31837646 90.15697266 300.31837646 91.46484375 301.22900391 C94.65491065 303.45750403 97.83168242 305.70436857 101.00610352 307.95507812 C103.11380802 309.44780942 105.22617828 310.93369458 107.33984375 312.41796875 C109.53771697 313.96170634 111.71336335 315.52364935 113.87890625 317.11328125 C114.66136719 317.67402344 115.44382812 318.23476563 116.25 318.8125 C116.87390625 319.27269531 117.4978125 319.73289062 118.140625 320.20703125 C120.76871585 321.3278347 122.25939343 320.73254895 125 320 C127.49386643 318.80327987 127.49386643 318.80327987 130 317.26171875 C130.960271 316.69412842 131.92054199 316.12653809 132.90991211 315.54174805 C133.92964111 314.92984619 134.94937012 314.31794434 136 313.6875 C138.14658448 312.41573629 140.29373183 311.14492222 142.44140625 309.875 C144.07166748 308.90820312 144.07166748 308.90820312 145.73486328 307.921875 C151.67130357 304.42765802 157.66752496 301.0384348 163.66210938 297.64526367 C164.48388672 297.17838135 165.30566406 296.71149902 166.15234375 296.23046875 C166.87413818 295.82207764 167.59593262 295.41368652 168.33959961 294.99291992 C169.97429214 294.10702889 169.97429214 294.10702889 171 293 C171.09502416 290.50507612 171.12557566 288.03793986 171.11352539 285.54272461 C171.11367142 284.76229294 171.11381744 283.98186127 171.1139679 283.17778015 C171.11326858 280.5859402 171.10547536 277.99417122 171.09765625 275.40234375 C171.09579213 273.6101536 171.0943682 271.81796294 171.09336853 270.02577209 C171.08954284 265.29929203 171.07971212 260.57284248 171.06866455 255.84637451 C171.05845153 251.0271445 171.05387115 246.20790958 171.04882812 241.38867188 C171.03808989 231.92576781 171.02101286 222.46288644 171 213 C160.73575051 207.28181925 150.4623752 201.58518686 140.125 196 C139.09503906 195.44183594 138.06507813 194.88367188 137.00390625 194.30859375 C131.04140099 191.07852647 131.04140099 191.07852647 125 188 Z M-136.97583008 188.98535156 C-138.06275146 189.6140918 -139.14967285 190.24283203 -140.26953125 190.890625 C-140.86819504 191.2286615 -141.46685883 191.566698 -142.08366394 191.91497803 C-144.00568586 193.00645935 -145.90865836 194.12716585 -147.8125 195.25 C-149.05027423 195.96035505 -150.28919943 196.66870851 -151.52929688 197.375 C-153.97230809 198.76974214 -156.40784709 200.17639557 -158.83833313 201.59283447 C-163.03186819 204.02710082 -167.25412742 206.40834581 -171.4831543 208.78027344 C-172.2114016 209.18929901 -172.9396489 209.59832458 -173.68996429 210.01974487 C-175.45970618 211.01364419 -177.229814 212.00689189 -179 213 C-179.34840455 223.27416827 -179.61447768 233.54692114 -179.77718258 243.82580471 C-179.85530267 248.59978535 -179.96110639 253.3697114 -180.1315918 258.14135742 C-180.29527659 262.75181956 -180.38438795 267.35840012 -180.42315865 271.97154427 C-180.45075981 273.72590361 -180.50467556 275.48006263 -180.58595085 277.23275566 C-181.27372888 286.50126427 -181.27372888 286.50126427 -177.57559967 294.58744049 C-174.02873156 297.41835393 -170.13165228 299.32450088 -165.98033714 301.10779381 C-162.70213766 302.58472913 -159.67772789 304.44109022 -156.5859375 306.2734375 C-155.38290201 306.96207222 -154.17864117 307.64857492 -152.97265625 308.33203125 C-152.3811377 308.66799316 -151.78961914 309.00395508 -151.18017578 309.35009766 C-150.58446777 309.68831543 -149.98875977 310.0265332 -149.375 310.375 C-147.52969527 311.42440498 -145.68468052 312.47431537 -143.83999634 313.52481079 C-142.19384636 314.46200246 -140.54690197 315.39779838 -138.89990234 316.33349609 C-137.00050793 317.42503223 -135.12077452 318.55169397 -133.26513672 319.71606445 C-131.09636161 321.18770586 -131.09636161 321.18770586 -128.671875 321.01953125 C-124.7427993 319.52027868 -121.62238009 317.16964593 -118.25 314.6875 C-116.72411931 313.58701635 -115.19807304 312.48676225 -113.671875 311.38671875 C-112.89521484 310.82259277 -112.11855469 310.2584668 -111.31835938 309.67724609 C-107.73544229 307.0851399 -104.11719908 304.54392251 -100.5 302 C-99.09880079 301.01063975 -97.69776 300.0210551 -96.296875 299.03125 C-93.31031049 296.92276298 -90.32019961 294.81940985 -87.328125 292.71875 C-86.56177734 292.17992187 -85.79542969 291.64109375 -85.00585938 291.0859375 C-83.54453999 290.05858569 -82.08235436 289.03246447 -80.61914062 288.0078125 C-79.62430664 287.30785156 -79.62430664 287.30785156 -78.609375 286.59375 C-77.7426416 285.98563477 -77.7426416 285.98563477 -76.85839844 285.36523438 C-76.24512695 284.91470703 -75.63185547 284.46417969 -75 284 C-74.122229 283.51740723 -73.24445801 283.03481445 -72.34008789 282.53759766 C-68.60939015 278.49201891 -69.07143763 274.13492473 -68.94921875 268.8046875 C-68.91834671 267.70206573 -68.88747467 266.59944397 -68.85566711 265.46340942 C-68.80406564 263.1285485 -68.76718539 260.79332276 -68.74389648 258.45800781 C-68.68793747 254.90279353 -68.52021211 251.36380201 -68.34960938 247.8125 C-67.70920406 236.92143639 -67.70920406 236.92143639 -71.42071533 227.04846191 C-75.09646846 223.75026819 -79.3468812 221.83341223 -83.87075806 219.95123291 C-87.14760877 218.48730898 -89.97976622 216.49565737 -92.90625 214.4375 C-93.99212402 213.70797119 -95.07799805 212.97844238 -96.19677734 212.22680664 C-97.28684082 211.49196045 -98.3769043 210.75711426 -99.5 210 C-109.21824129 203.47676198 -118.99743468 197.08125115 -129 191 C-129.75837158 190.40727295 -130.51674316 189.8145459 -131.2980957 189.20385742 C-134.00922114 187.63240231 -134.00922114 187.63240231 -136.97583008 188.98535156 Z M-10.06640625 203.7109375 C-11.10224854 204.29214355 -12.13809082 204.87334961 -13.20532227 205.47216797 C-14.31319092 206.10010254 -15.42105957 206.72803711 -16.5625 207.375 C-17.68390381 208.00680176 -18.80530762 208.63860352 -19.96069336 209.28955078 C-29.03803103 214.41855487 -38.04787314 219.65581423 -47 225 C-43.81827503 227.53453755 -40.49160942 229.4484222 -36.90625 231.36328125 C-36.31888062 231.67774704 -35.73151123 231.99221283 -35.12634277 232.31620789 C-33.8832497 232.98085969 -32.63929306 233.6438986 -31.39453125 234.30541992 C-28.92055082 235.62051906 -26.45145205 236.94467534 -23.98194885 238.26815796 C-22.76573631 238.91441794 -21.54592658 239.55395369 -20.32261658 240.18667603 C-17.40426839 241.69615716 -14.5883523 243.25928234 -11.80688477 245.01123047 C-6.36989635 248.40177078 -6.36989635 248.40177078 -0.21630859 248.4074707 C2.74851395 246.99187975 5.35188798 245.35567745 8.0625 243.5 C10.0528954 242.2536439 12.045116 241.01019831 14.0390625 239.76953125 C15.5226123 238.81747803 15.5226123 238.81747803 17.03613281 237.84619141 C21.54077749 235.04025046 26.21802745 232.60843721 30.9375 230.1875 C32.50928371 229.3688142 34.08091606 228.5498377 35.65234375 227.73046875 C36.75707031 227.15941406 37.86179687 226.58835938 39 226 C35.64287487 223.19535653 32.29328532 220.90421047 28.46484375 218.79296875 C27.40716797 218.20580078 26.34949219 217.61863281 25.25976562 217.01367188 C24.16341797 216.41103516 23.06707031 215.80839844 21.9375 215.1875 C19.7793382 213.994592 17.62178442 212.80058331 15.46484375 211.60546875 C14.40249512 211.01813965 13.34014648 210.43081055 12.24560547 209.82568359 C7.90710548 207.38523656 3.63268742 204.84129048 -0.63452148 202.27856445 C-4.67406378 200.09515203 -6.25184661 201.56324147 -10.06640625 203.7109375 Z M-55 239 C-55 252.53 -55 266.06 -55 280 C-48.503125 283.465 -48.503125 283.465 -41.875 287 C-32.91992882 291.78178899 -24.00578856 296.5973219 -15.2734375 301.77734375 C-13.13665493 303.15788285 -13.13665493 303.15788285 -11 303 C-11 289.47 -11 275.94 -11 262 C-14.58875 260.06125 -18.1775 258.1225 -21.875 256.125 C-28.11320748 252.75450708 -34.34757398 249.37996124 -40.53125 245.91015625 C-41.35512207 245.44786621 -42.17899414 244.98557617 -43.02783203 244.50927734 C-44.56740147 243.64228869 -46.10491716 242.77164075 -47.64013672 241.89697266 C-51.10389142 239.74994465 -51.10389142 239.74994465 -55 239 Z M39.171875 242 C38.58641907 242.31396729 38.00096313 242.62793457 37.39776611 242.95141602 C36.14921348 243.62206289 34.90174599 244.29473321 33.65527344 244.96923828 C31.80121804 245.9722908 29.94395648 246.96915656 28.0859375 247.96484375 C19.63961997 252.50882086 11.33386236 257.23779294 3 262 C3 275.53 3 289.06 3 303 C7.25360519 301.29855792 11.21669333 299.38056644 15.2421875 297.2265625 C15.92878448 296.86154633 16.61538147 296.49653015 17.32278442 296.12045288 C18.77068298 295.35006406 20.21792652 294.57844307 21.66455078 293.80566406 C23.85952301 292.6332667 26.05652156 291.46474336 28.25390625 290.296875 C29.6667881 289.54449883 31.07955235 288.79190176 32.4921875 288.0390625 C33.14033417 287.6941275 33.78848083 287.3491925 34.45626831 286.99380493 C35.0802652 286.66020966 35.70426208 286.32661438 36.34716797 285.98291016 C36.88501923 285.69582184 37.42287048 285.40873352 37.97702026 285.11294556 C41.00588692 283.4466097 43.99850111 281.71514222 47 280 C47 266.47 47 252.94 47 239 C43.92615857 239 41.86442443 240.55147146 39.171875 242 Z M-69.1875 297.5 C-75.82213436 302.45248669 -82.56844359 307.22444723 -89.375 311.9375 C-97.22971092 317.37910617 -105.0644705 322.84594156 -112.86083984 328.37084961 C-115.554825 330.27906078 -118.25290162 332.16860108 -121 334 C-121.51447645 336.44121814 -121.51447645 336.44121814 -121.51513672 339.33251953 C-121.55041473 340.4477298 -121.58569275 341.56294006 -121.62203979 342.71194458 C-121.64106354 343.92333099 -121.66008728 345.13471741 -121.6796875 346.3828125 C-121.70153107 347.62618378 -121.72337463 348.86955505 -121.74588013 350.15060425 C-121.78305543 352.7888936 -121.81196069 355.42608826 -121.83056641 358.06445312 C-121.85263581 360.76251942 -121.90811504 363.45656193 -121.99462891 366.15332031 C-122.11061971 370.04354675 -122.15336243 373.92856378 -122.1796875 377.8203125 C-122.22705048 379.01955353 -122.27441345 380.21879456 -122.32321167 381.45437622 C-122.28482768 386.37202408 -122.23995213 389.66081649 -118.80770874 393.36773682 C-115.96415466 395.46385362 -113.06398664 397.24450955 -110 399 C-108.38701159 400.08555065 -106.78208603 401.18321609 -105.18701172 402.29492188 C-103.60286716 403.35530403 -102.01705828 404.41320355 -100.4296875 405.46875 C-99.58197784 406.03452759 -98.73426819 406.60030518 -97.86087036 407.18322754 C-96.09550154 408.36058868 -94.32937399 409.53681294 -92.5625 410.71191406 C-89.84401975 412.52061223 -87.12892046 414.334308 -84.4140625 416.1484375 C-82.69030179 417.29717161 -80.96635063 418.44561998 -79.2421875 419.59375 C-78.42877899 420.13737183 -77.61537048 420.68099365 -76.77731323 421.24108887 C-75.65946945 421.98316589 -75.65946945 421.98316589 -74.51904297 422.74023438 C-73.86161102 423.17799194 -73.20417908 423.61574951 -72.52682495 424.06677246 C-71.1560339 425.08691972 -71.1560339 425.08691972 -70 425 C-69.98582031 424.04738281 -69.97164062 423.09476563 -69.95703125 422.11328125 C-69.90933594 420.85902344 -69.86164063 419.60476563 -69.8125 418.3125 C-69.77769531 417.07113281 -69.74289063 415.82976562 -69.70703125 414.55078125 C-68.79477955 409.96936251 -67.69387757 408.86184079 -64 406 C-60.30771086 403.70493737 -56.51128938 401.62916087 -52.6875 399.5625 C-50.44683317 398.33139705 -48.20727977 397.09826579 -45.96875 395.86328125 C-44.24785156 394.91509521 -44.24785156 394.91509521 -42.4921875 393.94775391 C-35.80618679 390.21866318 -29.21553827 386.32619146 -22.61791992 382.44360352 C-21.67537354 381.88987061 -20.73282715 381.3361377 -19.76171875 380.765625 C-18.93631592 380.27868164 -18.11091309 379.79173828 -17.26049805 379.29003906 C-15.20354193 378.11615893 -13.12204695 377.04962174 -11 376 C-10.7971577 368.25916313 -10.65706153 360.51901095 -10.56054688 352.77612305 C-10.52031506 350.142399 -10.46572117 347.50885361 -10.39648438 344.87573242 C-10.29942964 341.08988416 -10.25406799 337.30639641 -10.21875 333.51953125 C-10.17745972 332.34227982 -10.13616943 331.16502838 -10.09362793 329.95210266 C-9.91538101 324.10934899 -9.91538101 324.10934899 -12.62658691 319.22879028 C-14.69853011 317.90766318 -16.73072944 316.93563806 -19 316 C-20.00353516 315.43571289 -21.00707031 314.87142578 -22.04101562 314.29003906 C-22.98654297 313.78698242 -23.93207031 313.28392578 -24.90625 312.765625 C-26.50629883 311.91025146 -26.50629883 311.91025146 -28.13867188 311.03759766 C-29.24791016 310.44769043 -30.35714844 309.8577832 -31.5 309.25 C-39.88265236 304.7720975 -48.23671935 300.26345924 -56.45507812 295.48925781 C-62.48266303 292.02823591 -63.96690293 293.5380013 -69.1875 297.5 Z M50.82128906 293.87353516 C49.55623535 294.57422119 49.55623535 294.57422119 48.265625 295.2890625 C47.30938232 295.81266357 46.35313965 296.33626465 45.36791992 296.87573242 C44.33900635 297.45299072 43.31009277 298.03024902 42.25 298.625 C41.19337158 299.20805908 40.13674316 299.79111816 39.0480957 300.3918457 C35.69185984 302.24918011 32.34502413 304.12255753 29 306 C27.90026855 306.61504395 26.80053711 307.23008789 25.66748047 307.86376953 C14.15883629 314.14190578 14.15883629 314.14190578 3 321 C2.56133535 323.42125971 2.56133535 323.42125971 2.65942383 326.27587891 C2.65965042 327.3768692 2.65987701 328.4778595 2.66011047 329.61221313 C2.67559433 330.80494843 2.69107819 331.99768372 2.70703125 333.2265625 C2.71127609 334.44451508 2.71552094 335.66246765 2.71989441 336.91732788 C2.73673169 340.82010704 2.77439405 344.72237604 2.8125 348.625 C2.82754026 351.26561756 2.84122981 353.90624319 2.85351562 356.546875 C2.88665178 363.03142504 2.93690139 369.51567608 3 376 C4.15020882 376.63353142 4.15020882 376.63353142 5.32365417 377.27986145 C18.05654478 384.29613513 30.75259324 391.36481515 43.3125 398.6875 C44.30056641 399.26258301 45.28863281 399.83766602 46.30664062 400.43017578 C59.61202994 408.22405989 59.61202994 408.22405989 61 411 C61.23029956 413.37123246 61.41119942 415.74741943 61.5625 418.125 C61.64628906 419.40632813 61.73007812 420.68765625 61.81640625 422.0078125 C61.87699219 422.99523437 61.93757813 423.98265625 62 425 C70.90276795 419.38961795 79.71221421 413.63991781 88.50878906 407.86499023 C90.88974499 406.3028257 93.27298809 404.74419039 95.65625 403.18554688 C97.18503782 402.18250804 98.71368861 401.17926032 100.2421875 400.17578125 C100.94745575 399.71528885 101.652724 399.25479645 102.37936401 398.78034973 C103.68744654 397.91940725 104.98656783 397.04463359 106.27461243 396.1539917 C108 395 108 395 110.91040039 393.44946289 C114.53072525 389.20565879 114.02267852 384.03361814 114.19140625 378.6328125 C114.25194435 376.79334549 114.25194435 376.79334549 114.31370544 374.91671753 C114.38287489 372.31625598 114.43650241 369.71534182 114.47583008 367.11425781 C114.53325073 364.47129055 114.63526561 361.82888777 114.78344727 359.18945312 C116.04975124 344.63194518 116.04975124 344.63194518 111.09320068 331.46569824 C106.44103817 327.12971848 101.20448139 324.14004086 95.53521729 321.32701111 C91.58451848 319.25909321 88.07755105 316.6454679 84.5 314 C83.13493649 313.03215356 81.76798627 312.06695785 80.3984375 311.10546875 C78.0535125 309.45083173 75.7098758 307.79443705 73.36816406 306.13525391 C70.6228717 304.1908737 67.87419152 302.25136189 65.125 300.3125 C64.26197266 299.69955078 63.39894531 299.08660156 62.50976562 298.45507812 C61.70474609 297.88853516 60.89972656 297.32199219 60.0703125 296.73828125 C59.35633301 296.23337158 58.64235352 295.72846191 57.90673828 295.20825195 C55.26668326 293.53531568 53.81749025 292.67223441 50.82128906 293.87353516 Z M-192.8125 308.7109375 C-193.79798828 309.29214355 -194.78347656 309.87334961 -195.79882812 310.47216797 C-196.85521484 311.10010254 -197.91160156 311.72803711 -199 312.375 C-209.24665501 318.41485783 -219.56956866 324.28433434 -230 330 C-227.0878835 332.29317525 -224.11962152 334.11087687 -220.8515625 335.85546875 C-219.85237793 336.39228271 -218.85319336 336.92909668 -217.82373047 337.48217773 C-216.76814941 338.04493408 -215.71256836 338.60769043 -214.625 339.1875 C-202.27501215 345.7780386 -202.27501215 345.7780386 -197.515625 348.703125 C-196.88575684 349.08702393 -196.25588867 349.47092285 -195.60693359 349.86645508 C-193.9962449 350.86252095 -192.39981501 351.88154332 -190.8046875 352.90234375 C-188.07405628 354.24370346 -188.07405628 354.24370346 -185.31640625 353.57421875 C-180.42090767 351.25044263 -175.75066047 348.58899672 -171.0625 345.875 C-169.01122958 344.70040213 -166.95914398 343.52722674 -164.90625 342.35546875 C-163.40384766 341.49767822 -163.40384766 341.49767822 -161.87109375 340.62255859 C-155.97945369 337.29298038 -149.99652854 334.13562551 -144 331 C-147.50321971 328.05573183 -151.03031878 325.73274797 -155.04296875 323.5390625 C-155.61147049 323.22601166 -156.17997223 322.91296082 -156.76570129 322.59042358 C-158.57053291 321.59743337 -160.37875454 320.61084012 -162.1875 319.625 C-164.557439 318.32814981 -166.92562629 317.02814568 -169.29296875 315.7265625 C-170.42782715 315.10297852 -171.56268555 314.47939453 -172.73193359 313.83691406 C-176.58544314 311.67093425 -180.35538509 309.38844369 -184.1027832 307.04443359 C-187.72898157 305.0481813 -189.48606286 306.73540885 -192.8125 308.7109375 Z M172.171875 309.21875 C171.2936911 309.722995 171.2936911 309.722995 170.39776611 310.23742676 C168.51283175 311.32093474 166.63137523 312.41032598 164.75 313.5 C163.52887524 314.20352334 162.30752324 314.9066524 161.0859375 315.609375 C158.63886932 317.0176258 156.19305605 318.42802148 153.74804688 319.83984375 C147.84350353 323.24658067 141.92118934 326.62230812 136 330 C139.82443059 333.27553705 143.86402092 335.69479155 148.3125 338.00390625 C149.00384033 338.3684642 149.69518066 338.73302216 150.4074707 339.10862732 C152.60238279 340.26494201 154.80097951 341.41402078 157 342.5625 C159.19828274 343.71589912 161.39575641 344.87081224 163.5925293 346.02708435 C164.95493815 346.74362512 166.31833187 347.45829747 167.68286133 348.17079163 C170.45280954 349.62296299 173.08603437 351.06073715 175.64453125 352.86694336 C177.94167942 354.27892175 177.94167942 354.27892175 180.35986328 353.42333984 C181.66673096 352.71878662 181.66673096 352.71878662 183 352 C184.12003418 351.43104004 185.24006836 350.86208008 186.39404297 350.27587891 C187.67818603 349.59546209 188.96082756 348.91220611 190.2421875 348.2265625 C190.92878448 347.86154633 191.61538147 347.49653015 192.32278442 347.12045288 C193.77068298 346.35006406 195.21792652 345.57844307 196.66455078 344.80566406 C198.85952301 343.6332667 201.05652156 342.46474336 203.25390625 341.296875 C204.6667881 340.54449883 206.07955235 339.79190176 207.4921875 339.0390625 C208.14033417 338.6941275 208.78848083 338.3491925 209.45626831 337.99380493 C213.68122206 335.73510037 217.84964206 333.39312568 222 331 C218.92600333 328.58784247 215.73293951 326.61311643 212.34375 324.671875 C211.23773438 324.03636719 210.13171875 323.40085937 208.9921875 322.74609375 C207.82818534 322.08062361 206.66412264 321.41525936 205.5 320.75 C203.23941796 319.45341329 200.97900051 318.15653956 198.71875 316.859375 C197.60886719 316.22451172 196.49898438 315.58964844 195.35546875 314.93554688 C193.0779807 313.62181541 190.81011745 312.29906553 188.55078125 310.95507812 C187.47183594 310.31505859 186.39289063 309.67503906 185.28125 309.015625 C184.31251953 308.43586914 183.34378906 307.85611328 182.34570312 307.25878906 C178.05481612 304.95614404 176.18139438 306.90524167 172.171875 309.21875 Z M-238 344 C-238 357.53 -238 371.06 -238 385 C-234.04 387.124375 -230.08 389.24875 -226 391.4375 C-217.45578657 396.02461308 -208.93338897 400.63800518 -200.546875 405.50952148 C-197.4732378 407.40260914 -197.4732378 407.40260914 -194 408 C-194 394.47 -194 380.94 -194 367 C-197.96 364.875625 -201.92 362.75125 -206 360.5625 C-214.54421343 355.97538692 -223.06661103 351.36199482 -231.453125 346.49047852 C-234.5267622 344.59739086 -234.5267622 344.59739086 -238 344 Z M-144.1171875 347.25390625 C-144.72958282 347.59244125 -145.34197815 347.93097626 -145.97293091 348.2797699 C-147.27699278 349.00168011 -148.57993029 349.72562445 -149.88183594 350.45141602 C-152.4672638 351.89265588 -155.05794256 353.32429135 -157.65002441 354.75352478 C-158.92285583 355.46381782 -160.18944301 356.18541437 -161.44958496 356.91798401 C-164.48313497 358.67379932 -167.29618002 360.11146971 -170.59570312 361.35327148 C-174.27009982 362.87240962 -176.41136855 363.96148504 -179 367 C-180.95333596 373.73542785 -180.1208967 381.02867413 -179.75 387.9375 C-179.68976596 389.88069537 -179.63502014 391.82406911 -179.5859375 393.76757812 C-179.45407405 398.51613625 -179.24732527 403.25611111 -179 408 C-169.3035661 403.20418152 -159.6852839 398.30672567 -150.1875 393.125 C-149.14013672 392.5578125 -148.09277344 391.990625 -147.01367188 391.40625 C-141.40807612 388.3686722 -141.40807612 388.3686722 -136 385 C-135.56445873 383.14996109 -135.56445873 383.14996109 -135.65942383 381.00927734 C-135.65965042 380.18857758 -135.65987701 379.36787781 -135.66011047 378.52230835 C-135.67559433 377.63580597 -135.69107819 376.74930359 -135.70703125 375.8359375 C-135.71339851 374.47512558 -135.71339851 374.47512558 -135.71989441 373.08682251 C-135.73671867 370.18258268 -135.7743774 367.2790309 -135.8125 364.375 C-135.82754201 362.40886417 -135.84123125 360.44271749 -135.85351562 358.4765625 C-135.88663443 353.65077561 -135.93844214 348.82550455 -136 344 C-139.17573036 344 -141.36295093 345.7261134 -144.1171875 347.25390625 Z M128 344 C128 357.53 128 371.06 128 385 C131.58875 386.93875 135.1775 388.8775 138.875 390.875 C147.52898864 395.5536163 156.15697463 400.27393071 164.72802734 405.10302734 C167.69979783 407.09971202 167.69979783 407.09971202 171 408 C171 394.47 171 380.94 171 367 C162.18046871 361.96026784 153.3672477 356.9593214 144.4375 352.125 C143.39787109 351.5578125 142.35824219 350.990625 141.28710938 350.40625 C140.28357422 349.86226563 139.28003906 349.31828125 138.24609375 348.7578125 C137.35591553 348.2745752 136.4657373 347.79133789 135.54858398 347.29345703 C133.10055818 346.05103528 130.54890818 345.01956327 128 344 Z M222.6796875 346.74609375 C221.58527344 347.33712891 220.49085938 347.92816406 219.36328125 348.53710938 C218.21214844 349.16423828 217.06101562 349.79136719 215.875 350.4375 C214.77800781 351.02982422 213.68101562 351.62214844 212.55078125 352.23242188 C203.64261232 357.05811014 194.83256636 362.03168142 186 367 C186 380.53 186 394.06 186 408 C190.28085962 406.57304679 193.31340264 405.42332316 197.08984375 403.2421875 C198.04052734 402.69820313 198.99121094 402.15421875 199.97070312 401.59375 C200.94974609 401.0265625 201.92878906 400.459375 202.9375 399.875 C211.87046861 394.72863446 220.89426197 389.85639361 230 385 C230 371.47 230 357.94 230 344 C227.07011888 344 225.24983852 345.35376965 222.6796875 346.74609375 Z M-10.06640625 391.7109375 C-11.10224854 392.29214355 -12.13809082 392.87334961 -13.20532227 393.47216797 C-14.31319092 394.10010254 -15.42105957 394.72803711 -16.5625 395.375 C-17.68390381 396.00680176 -18.80530762 396.63860352 -19.96069336 397.28955078 C-29.03803103 402.41855487 -38.04787314 407.65581423 -47 413 C-43.94324609 415.42400948 -40.78768312 417.2822331 -37.34375 419.109375 C-36.23773438 419.69976562 -35.13171875 420.29015625 -33.9921875 420.8984375 C-32.26355469 421.81496094 -32.26355469 421.81496094 -30.5 422.75 C-28.23843664 423.95096813 -25.97801378 425.15408647 -23.71875 426.359375 C-22.048125 427.24592773 -22.048125 427.24592773 -20.34375 428.15039062 C-15.99251622 430.55729389 -11.80645104 433.20801925 -7.63867188 435.91894531 C-5.07685102 437.27141897 -5.07685102 437.27141897 -2.57910156 436.40258789 C-1.72799805 435.93973389 -0.87689453 435.47687988 0 435 C1.57346191 434.19985474 1.57346191 434.19985474 3.17871094 433.38354492 C4.36537699 432.75189286 5.55052646 432.11738576 6.734375 431.48046875 C7.37183655 431.14002029 8.0092981 430.79957184 8.66607666 430.44880676 C10.011432 429.7296982 11.3561265 429.00935211 12.70019531 428.2878418 C14.7284437 427.19907149 16.75854725 426.11383265 18.7890625 425.02929688 C25.55771519 421.40964484 32.30989225 417.76347064 39 414 C35.64287487 411.19535653 32.29328532 408.90421047 28.46484375 406.79296875 C27.40716797 406.20580078 26.34949219 405.61863281 25.25976562 405.01367188 C24.16341797 404.41103516 23.06707031 403.80839844 21.9375 403.1875 C19.7793382 401.994592 17.62178442 400.80058331 15.46484375 399.60546875 C14.40249512 399.01813965 13.34014648 398.43081055 12.24560547 397.82568359 C7.90710548 395.38523656 3.63268742 392.84129048 -0.63452148 390.27856445 C-4.67406378 388.09515203 -6.25184661 389.56324147 -10.06640625 391.7109375 Z M-55 427 C-55 440.53 -55 454.06 -55 468 C-48.503125 471.465 -48.503125 471.465 -41.875 475 C-32.91992882 479.78178899 -24.00578856 484.5973219 -15.2734375 489.77734375 C-13.13665493 491.15788285 -13.13665493 491.15788285 -11 491 C-11 477.47 -11 463.94 -11 450 C-14.58875 448.06125 -18.1775 446.1225 -21.875 444.125 C-28.11320748 440.75450708 -34.34757398 437.37996124 -40.53125 433.91015625 C-41.35512207 433.44786621 -42.17899414 432.98557617 -43.02783203 432.50927734 C-44.56740147 431.64228869 -46.10491716 430.77164075 -47.64013672 429.89697266 C-51.10389142 427.74994465 -51.10389142 427.74994465 -55 427 Z M39.171875 430 C38.58641907 430.31396729 38.00096313 430.62793457 37.39776611 430.95141602 C36.14921348 431.62206289 34.90174599 432.29473321 33.65527344 432.96923828 C31.80121804 433.9722908 29.94395648 434.96915656 28.0859375 435.96484375 C19.63961997 440.50882086 11.33386236 445.23779294 3 450 C3 463.53 3 477.06 3 491 C7.25360519 489.29855792 11.21669333 487.38056644 15.2421875 485.2265625 C15.92878448 484.86154633 16.61538147 484.49653015 17.32278442 484.12045288 C18.77068298 483.35006406 20.21792652 482.57844307 21.66455078 481.80566406 C23.85952301 480.6332667 26.05652156 479.46474336 28.25390625 478.296875 C29.6667881 477.54449883 31.07955235 476.79190176 32.4921875 476.0390625 C33.14033417 475.6941275 33.78848083 475.3491925 34.45626831 474.99380493 C35.0802652 474.66020966 35.70426208 474.32661438 36.34716797 473.98291016 C36.88501923 473.69582184 37.42287048 473.40873352 37.97702026 473.11294556 C41.00588692 471.4466097 43.99850111 469.71514222 47 468 C47 454.47 47 440.94 47 427 C43.92615857 427 41.86442443 428.55147146 39.171875 430 Z " fill="#000000" transform="translate(260,1)"/>
</svg>
