<?xml version="1.0" encoding="UTF-8"?>
<svg version="1.1" xmlns="http://www.w3.org/2000/svg" width="512" height="512">
<path d="M0 0 C4.2943408 2.29461558 6.98033883 6.32456078 9.71826172 10.23291016 C11.94733703 13.30606198 14.49556794 16.08295528 17.0625 18.875 C17.56426758 19.42414063 18.06603516 19.97328125 18.58300781 20.5390625 C25.96341821 28.40508948 34.52277755 32.91148988 45.42538452 33.26069641 C47.04573639 33.27543193 48.66620952 33.27952332 50.28662109 33.2746582 C51.17880844 33.27976913 52.07099579 33.28488007 52.99021912 33.29014587 C55.91802822 33.30396231 58.84559981 33.30309106 61.7734375 33.30078125 C63.82313117 33.30467262 65.87282403 33.3090082 67.92251587 33.31376648 C72.21106586 33.32121168 76.4995335 33.32094981 80.78808594 33.31567383 C86.26422236 33.30988242 91.7400202 33.32681072 97.21610069 33.3500185 C101.44735664 33.3648018 105.67853191 33.36562127 109.90980911 33.36250877 C111.92787979 33.3630197 113.94595526 33.36821425 115.9640007 33.37832069 C118.79441629 33.3907568 121.62418343 33.38385064 124.45458984 33.37231445 C125.27568741 33.37995819 126.09678497 33.38760193 126.94276428 33.39547729 C139.01375666 33.28757678 148.27309056 28.7597755 156.72265625 20.26171875 C157.65374752 19.26273541 158.57944981 18.25870512 159.5 17.25 C159.96664062 16.74251221 160.43328125 16.23502441 160.9140625 15.7121582 C163.22293715 13.15044892 165.25266811 10.63280684 167.21484375 7.78125 C172.50858166 0.5616707 172.50858166 0.5616707 177.29150391 -0.51660156 C185.43438193 -1.37927974 193.91391515 -1.51913174 201 3 C204.20594574 5.9927237 206.91197298 9.19183021 207.12995183 13.66935074 C207.13228248 14.81556676 207.13461312 15.96178278 207.13701439 17.14273262 C207.14208893 18.46198805 207.14716347 19.78124348 207.15239179 21.14047635 C207.15299352 22.61864476 207.15349259 24.09681321 207.15390015 25.57498169 C207.15791314 27.13430672 207.16235109 28.6936307 207.1671797 30.25295341 C207.17916945 34.55418552 207.18479921 38.85540641 207.18936086 43.15665197 C207.19530794 47.78940413 207.20692007 52.42214279 207.21765137 57.05488586 C207.24219689 68.25181042 207.25680617 79.44873944 207.26971143 90.64568263 C207.27342196 93.80707202 207.27739531 96.96846096 207.2814641 100.12984991 C207.30670044 119.75194773 207.32875863 139.37404622 207.34119225 158.99615669 C207.34412206 163.54333626 207.34708371 168.0905158 207.35009766 172.63769531 C207.35084371 173.76790882 207.35158976 174.89812234 207.35235842 176.06258474 C207.36501343 194.37353674 207.39823704 212.68439167 207.43989949 230.99529828 C207.48230215 249.78524708 207.5058854 268.57514617 207.51111281 287.3651427 C207.51452895 297.9188398 207.52630789 308.47238524 207.55921555 319.02603531 C207.58719436 328.01385981 207.59822494 337.00150158 207.58702008 345.98936625 C207.58182777 350.57572076 207.58475727 355.16169247 207.60948563 359.74799156 C207.63194101 363.94777255 207.63126743 368.14689495 207.61228175 372.34668718 C207.6094765 373.86493829 207.61510959 375.38323371 207.63009469 376.90141346 C207.76900812 391.89337677 207.76900812 391.89337677 202 398 C196.52372544 402.14059784 191.21608704 402.14761485 184.55570984 402.14044189 C183.26554741 402.14489858 183.26554741 402.14489858 181.94932109 402.1494453 C179.06215151 402.15812912 176.17502341 402.15964028 173.2878418 402.16113281 C171.21981721 402.16576118 169.15179348 402.17078586 167.08377075 402.17617798 C161.4618164 402.18930148 155.83987399 402.19574675 150.21790671 402.20018864 C146.70615525 402.20311921 143.19440706 402.20722397 139.68265724 402.21169281 C128.69692395 402.2253671 117.71119811 402.23503431 106.72545689 402.2388947 C94.04063632 402.24337657 81.35592343 402.26093077 68.6711356 402.2898953 C58.86805204 402.31150343 49.06499879 402.32159851 39.26189166 402.32293582 C33.4059487 402.32398439 27.55010698 402.3299035 21.69418907 402.34775543 C16.18583375 402.3642212 10.67765596 402.36639881 5.16928482 402.35761642 C3.14845746 402.35684527 1.12762062 402.361199 -0.89318275 402.37107468 C-3.65391979 402.38377439 -6.4140262 402.37792806 -9.17475891 402.36749268 C-9.97263063 402.37554908 -10.77050235 402.38360548 -11.59255201 402.39190602 C-18.1191789 402.33428867 -22.76430749 400.93760018 -27.8125 396.5625 C-31.54489441 392.19026655 -32.25018786 389.36823762 -32.25726891 383.6055851 C-32.26077498 382.96287367 -32.26428105 382.32016225 -32.26789337 381.65797472 C-32.27722735 379.49558123 -32.27227902 377.33345587 -32.26742554 375.17105103 C-32.27116079 373.60857338 -32.27576181 372.04609761 -32.28115618 370.48362482 C-32.29341696 366.18302807 -32.29312211 361.88250894 -32.29076743 357.58189869 C-32.29036004 352.94648851 -32.30139092 348.31110348 -32.31088257 343.67570496 C-32.32751019 334.59161351 -32.3329929 325.50754801 -32.33410732 316.42344262 C-32.33505692 309.0413385 -32.3391628 301.65924297 -32.34550858 294.27714157 C-32.36312546 273.35824052 -32.3723467 252.43936002 -32.37084763 231.5204515 C-32.37076772 230.39221813 -32.3706878 229.26398476 -32.37060547 228.1015625 C-32.37052371 226.97195537 -32.37044195 225.84234824 -32.37035771 224.67851059 C-32.36954458 206.36634677 -32.3886877 188.05426515 -32.4168822 169.74212511 C-32.44558819 150.94985741 -32.45942377 132.15762983 -32.45769465 113.36533964 C-32.45702998 102.81064914 -32.46255607 92.25604484 -32.48405075 81.70137405 C-32.50223246 72.71574595 -32.50663468 63.73024311 -32.4930319 54.7446046 C-32.48648712 50.15854234 -32.48643932 45.57272059 -32.5037384 40.98668098 C-32.51940765 36.78961968 -32.51666888 32.59299083 -32.49917014 28.39594047 C-32.49608663 26.87644596 -32.49978326 25.35691966 -32.51089029 23.83746262 C-32.52498248 21.7731491 -32.51445069 19.71035863 -32.49777794 17.64609718 C-32.49821267 16.49923175 -32.49864741 15.35236633 -32.49909532 14.1707474 C-31.70646344 9.13516526 -29.15555761 6.04282028 -25.4375 2.6875 C-18.71129579 -1.96910291 -7.75723229 -1.71676452 0 0 Z M-11.3125 101.625 C-15.10875405 106.96787607 -14.29988626 112.49033191 -14.375 118.875 C-14.41238281 120.07253906 -14.44976562 121.27007812 -14.48828125 122.50390625 C-14.49988281 123.65503906 -14.51148438 124.80617188 -14.5234375 125.9921875 C-14.54325684 127.04776855 -14.56307617 128.10334961 -14.58349609 129.19091797 C-14.22560458 132.20232517 -14.22560458 132.20232517 -11.65869141 134.34423828 C-8.41181964 136.36630295 -6.7596533 136.63994099 -3 136 C-0.15219381 133.76793569 0.84997666 132.45007001 2 129 C2.08021999 127.59175107 2.10765977 126.18002769 2.09765625 124.76953125 C2.09282227 123.56586914 2.09282227 123.56586914 2.08789062 122.33789062 C2.07951172 121.50451172 2.07113281 120.67113281 2.0625 119.8125 C2.05798828 118.96751953 2.05347656 118.12253906 2.04882812 117.25195312 C2.03705403 115.16793845 2.0191189 113.08396023 2 111 C3.24136719 111.03480469 4.48273438 111.06960937 5.76171875 111.10546875 C7.40363226 111.13361584 9.04556046 111.16091501 10.6875 111.1875 C11.50412109 111.21263672 12.32074219 111.23777344 13.16210938 111.26367188 C17.97464115 111.32212368 21.07377272 111.10044334 25 108 C27.27208703 106.13287971 27.27208703 106.13287971 27.375 103.1875 C26.90681364 99.20791597 25.81559292 97.81177934 23 95 C20.21688715 94.25201771 20.21688715 94.25201771 17.1328125 94.37109375 C15.99972656 94.36916016 14.86664063 94.36722656 13.69921875 94.36523438 C11.92998047 94.40100586 11.92998047 94.40100586 10.125 94.4375 C8.95324219 94.42654297 7.78148437 94.41558594 6.57421875 94.40429688 C-1.74304883 94.47510222 -5.7415674 95.30123867 -11.3125 101.625 Z M148 99 C147.33333333 102.5 147.33333333 102.5 148 106 C150.21863029 108.90717073 151.51944929 109.83981643 155 111 C156.40824893 111.08021999 157.81997231 111.10765977 159.23046875 111.09765625 C160.03291016 111.09443359 160.83535156 111.09121094 161.66210938 111.08789062 C162.49548828 111.07951172 163.32886719 111.07113281 164.1875 111.0625 C165.4549707 111.05573242 165.4549707 111.05573242 166.74804688 111.04882812 C168.83206155 111.03705403 170.91603977 111.0191189 173 111 C172.94199219 112.30195313 172.88398438 113.60390625 172.82421875 114.9453125 C172.77730227 116.67183901 172.73180414 118.39840448 172.6875 120.125 C172.64560547 120.9809375 172.60371094 121.836875 172.56054688 122.71875 C172.47680656 127.0732463 172.56049947 130.07888799 175.33203125 133.57421875 C177.7937386 136.21083767 177.7937386 136.21083767 181 136.6875 C185.22949052 135.71824176 186.43296856 134.53660904 189 131 C189.7278949 126.84381941 189.65183748 122.77101985 189.5625 118.5625 C189.57893555 116.88317383 189.57893555 116.88317383 189.59570312 115.16992188 C189.53933888 108.83833814 189.30630025 104.77248688 185 100 C178.47316282 94.25016725 173.58963745 94.75539816 165.125 94.6875 C163.92746094 94.65849609 162.72992188 94.62949219 161.49609375 94.59960938 C160.34496094 94.59123047 159.19382812 94.58285156 158.0078125 94.57421875 C156.42444092 94.55234497 156.42444092 94.55234497 154.80908203 94.5300293 C151.28748167 95.11920718 150.13000151 96.17999358 148 99 Z M-4 157 C-6.57193065 160.85789597 -6.29545529 164.04870128 -6.29052734 168.52294922 C-6.29724457 169.39317719 -6.30396179 170.26340515 -6.31088257 171.16000366 C-6.32990651 174.04162276 -6.33378902 176.92300948 -6.3359375 179.8046875 C-6.34236252 181.80624488 -6.34909066 183.80780131 -6.35610962 185.80935669 C-6.36809349 190.00752948 -6.37178932 194.20561991 -6.37060547 198.40380859 C-6.37040225 203.78314052 -6.39770232 209.1619443 -6.43214989 214.54115105 C-6.45438884 218.67614161 -6.45844393 222.81100449 -6.45738602 226.94604874 C-6.45974659 228.92918849 -6.46859569 230.91233151 -6.48405075 232.89541245 C-6.50364927 235.67007149 -6.49789685 238.44358417 -6.48583984 241.21826172 C-6.49707886 242.03713867 -6.50831787 242.85601562 -6.51989746 243.69970703 C-6.47655431 247.62541012 -6.27083341 249.56411108 -4.14932251 252.97854614 C-2.08313243 255.17332062 -2.08313243 255.17332062 0.875 256.125 C4.43425329 255.98262987 6.07518255 254.99814851 8.72245026 252.65719604 C11.17799342 249.47194518 10.83279979 245.94355051 10.77636719 242.06640625 C10.7868811 241.17637909 10.79739502 240.28635193 10.80822754 239.36935425 C10.83459415 236.43301792 10.81716861 233.4988576 10.796875 230.5625 C10.80091757 228.51895736 10.80674136 226.47541753 10.81427002 224.43188477 C10.82311199 220.15125021 10.81027129 215.87136741 10.78222656 211.59082031 C10.74804045 206.1057807 10.7677256 200.62250245 10.80366135 195.13752747 C10.82535076 190.91836289 10.81843862 186.69961542 10.80289459 182.48043823 C10.79889424 180.45823966 10.8037965 178.43600312 10.81777191 176.41384888 C10.83302651 173.58607817 10.80976922 170.76115264 10.77636719 167.93359375 C10.78851257 167.09915741 10.80065796 166.26472107 10.81317139 165.40499878 C10.72816215 161.06575301 10.72816215 161.06575301 8.71805573 157.33840942 C3.83562461 153.01970138 1.10170293 153.46805182 -4 157 Z M30 157 C28.00438944 160.1509541 27.74353714 162.63797297 27.7253418 166.33178711 C27.71580978 167.39646713 27.70627777 168.46114716 27.69645691 169.55809021 C27.69736832 170.70294388 27.69827972 171.84779755 27.69921875 173.02734375 C27.69493362 174.20841202 27.6906485 175.38948029 27.68623352 176.6063385 C27.68049136 179.10368204 27.67998911 181.6010423 27.68432617 184.09838867 C27.68748504 187.91939832 27.66402811 191.73963302 27.63867188 195.56054688 C27.63639878 197.98697819 27.63569543 200.41341159 27.63671875 202.83984375 C27.627509 203.98267319 27.61829926 205.12550262 27.60881042 206.30296326 C27.61503922 207.37079544 27.62126801 208.43862762 27.62768555 209.53881836 C27.62705612 210.47495468 27.6264267 211.411091 27.6257782 212.37559509 C28.07930187 215.55614135 29.10476116 217.42282086 31 220 C33.80896063 221.658596 33.80896063 221.658596 37 222 C39.92878184 220.66873553 41.73304965 219.26695035 44 217 C44.3207275 214.48058015 44.3207275 214.48058015 44.29052734 211.51220703 C44.30328705 210.36406525 44.31604675 209.21592346 44.32919312 208.0329895 C44.33141876 206.78718109 44.33364441 205.54137268 44.3359375 204.2578125 C44.3425943 202.98275848 44.3492511 201.70770447 44.35610962 200.39401245 C44.36625235 197.69205813 44.3717894 194.99050593 44.37060547 192.28857422 C44.37040239 188.82927168 44.39768648 185.37079172 44.43214989 181.91168404 C44.45976383 178.61042424 44.45856821 175.30917215 44.4609375 172.0078125 C44.47530853 170.76605255 44.48967957 169.5242926 44.50448608 168.24490356 C44.49833282 167.09045746 44.49217957 165.93601135 44.48583984 164.74658203 C44.4901149 163.22340866 44.4901149 163.22340866 44.49447632 161.66946411 C43.8673556 158.28391016 42.65281666 157.12456533 40 155 C35.70193778 153.34689915 33.5635762 154.20692676 30 157 Z M64 157 C62.00438944 160.1509541 61.74353714 162.63797297 61.7253418 166.33178711 C61.71580978 167.39646713 61.70627777 168.46114716 61.69645691 169.55809021 C61.69736832 170.70294388 61.69827972 171.84779755 61.69921875 173.02734375 C61.69493362 174.20841202 61.6906485 175.38948029 61.68623352 176.6063385 C61.68049136 179.10368204 61.67998911 181.6010423 61.68432617 184.09838867 C61.68748504 187.91939832 61.66402811 191.73963302 61.63867188 195.56054688 C61.63639878 197.98697819 61.63569543 200.41341159 61.63671875 202.83984375 C61.627509 203.98267319 61.61829926 205.12550262 61.60881042 206.30296326 C61.61503922 207.37079544 61.62126801 208.43862762 61.62768555 209.53881836 C61.62705612 210.47495468 61.6264267 211.411091 61.6257782 212.37559509 C62.07930187 215.55614135 63.10476116 217.42282086 65 220 C67.80896063 221.658596 67.80896063 221.658596 71 222 C73.92878184 220.66873553 75.73304965 219.26695035 78 217 C78.3207275 214.48058015 78.3207275 214.48058015 78.29052734 211.51220703 C78.30328705 210.36406525 78.31604675 209.21592346 78.32919312 208.0329895 C78.33141876 206.78718109 78.33364441 205.54137268 78.3359375 204.2578125 C78.3425943 202.98275848 78.3492511 201.70770447 78.35610962 200.39401245 C78.36625235 197.69205813 78.3717894 194.99050593 78.37060547 192.28857422 C78.37040239 188.82927168 78.39768648 185.37079172 78.43214989 181.91168404 C78.45976383 178.61042424 78.45856821 175.30917215 78.4609375 172.0078125 C78.47530853 170.76605255 78.48967957 169.5242926 78.50448608 168.24490356 C78.49833282 167.09045746 78.49217957 165.93601135 78.48583984 164.74658203 C78.4901149 163.22340866 78.4901149 163.22340866 78.49447632 161.66946411 C77.8673556 158.28391016 76.65281666 157.12456533 74 155 C69.70193778 153.34689915 67.5635762 154.20692676 64 157 Z M98 157 C95.38739098 162.56002363 95.6939536 168.26491744 95.69921875 174.27734375 C95.69493362 175.3620546 95.6906485 176.44676544 95.68623352 177.56434631 C95.68050335 179.85303043 95.67998026 182.14173276 95.68432617 184.43041992 C95.687486 187.92202972 95.66401007 191.41279171 95.63867188 194.90429688 C95.63639867 197.13281144 95.63569549 199.36132826 95.63671875 201.58984375 C95.627509 202.62858139 95.61829926 203.66731903 95.60881042 204.73753357 C95.64590325 210.58029752 96.07260348 214.88494635 99 220 C101.73800514 221.82935152 101.73800514 221.82935152 105 222 C108.31704343 221.0915032 108.31704343 221.0915032 111 219 C112.75815436 215.50834145 113.2546597 212.63707376 113.2746582 208.75415039 C113.28419022 207.73281509 113.29372223 206.7114798 113.30354309 205.65919495 C113.30263168 204.56638718 113.30172028 203.47357941 113.30078125 202.34765625 C113.30506638 201.21476669 113.3093515 200.08187714 113.31376648 198.91465759 C113.3195029 196.52164375 113.32001512 194.12861248 113.31567383 191.7355957 C113.3125145 188.07928659 113.33598051 184.42378722 113.36132812 180.76757812 C113.36360127 178.44010519 113.36430454 176.11263007 113.36328125 173.78515625 C113.372491 172.69437271 113.38170074 171.60358917 113.39118958 170.47975159 C113.35745371 164.93100699 113.23573287 160.74439394 110 156 C105.50160197 152.90735135 102.18491866 153.7808318 98 157 Z M132 157 C130.69426496 159.61147009 130.85139448 161.56323582 130.82299805 164.48779297 C130.81016281 165.63593475 130.79732758 166.78407654 130.78410339 167.9670105 C130.77671646 169.21281891 130.76932953 170.45862732 130.76171875 171.7421875 C130.753647 173.01724152 130.74557526 174.29229553 130.73725891 175.60598755 C130.72340873 178.30783736 130.71239473 181.00956475 130.70483398 183.71142578 C130.69376616 187.17067917 130.65936168 190.62928986 130.61966228 194.08831596 C130.58722108 197.38954287 130.58271956 200.69082547 130.57421875 203.9921875 C130.55671066 205.23394745 130.53920258 206.4757074 130.52116394 207.75509644 C130.52408951 208.90954254 130.52701508 210.06398865 130.5300293 211.25341797 C130.52416306 212.26886688 130.51829681 213.2843158 130.51225281 214.33053589 C131.12952881 217.70891748 132.37432235 218.86275938 135 221 C136.84267868 222.08568503 136.84267868 222.08568503 139 222 C143.19929119 220.4276607 143.19929119 220.4276607 146.16252136 217.21995544 C147.16018915 214.57537689 147.2607371 212.49431759 147.2746582 209.66821289 C147.28419022 208.60353287 147.29372223 207.53885284 147.30354309 206.44190979 C147.30263168 205.29705612 147.30172028 204.15220245 147.30078125 202.97265625 C147.30506638 201.79158798 147.3093515 200.61051971 147.31376648 199.3936615 C147.31950864 196.89631796 147.32001089 194.3989577 147.31567383 191.90161133 C147.31251496 188.08060168 147.33597189 184.26036698 147.36132812 180.43945312 C147.36360122 178.01302181 147.36430457 175.58658841 147.36328125 173.16015625 C147.372491 172.01732681 147.38170074 170.87449738 147.39118958 169.69703674 C147.38496078 168.62920456 147.37873199 167.56137238 147.37231445 166.46118164 C147.37294388 165.52504532 147.3735733 164.588909 147.3742218 163.62440491 C146.92374686 160.4652393 145.84534047 158.58150072 144 156 C139.32176935 152.92991113 136.42876172 153.96979461 132 157 Z M166.28194427 157.33840942 C163.82246159 160.52626503 164.16713455 164.05193815 164.22363281 167.93359375 C164.2131189 168.82362091 164.20260498 169.71364807 164.19177246 170.63064575 C164.16540585 173.56698208 164.18283139 176.5011424 164.203125 179.4375 C164.19908243 181.48104264 164.19325864 183.52458247 164.18572998 185.56811523 C164.17688801 189.84874979 164.18972871 194.12863259 164.21777344 198.40917969 C164.25195955 203.8942193 164.2322744 209.37749755 164.19633865 214.86247253 C164.17464924 219.08163711 164.18156138 223.30038458 164.19710541 227.51956177 C164.20110576 229.54176034 164.1962035 231.56399688 164.18222809 233.58615112 C164.16697349 236.41392183 164.19023078 239.23884736 164.22363281 242.06640625 C164.21148743 242.90084259 164.19934204 243.73527893 164.18682861 244.59500122 C164.27312982 248.93166829 164.27312982 248.93166829 166.27535248 252.66159058 C168.98184187 255.0633882 170.53369203 256 174.1875 256 C176.99964669 255.00012562 178.25986102 254.38124281 180 252 C181.26761259 248.19716223 181.15562469 244.62336303 181.16113281 240.66064453 C181.16609772 239.80992371 181.17106262 238.95920288 181.17617798 238.08270264 C181.19079298 235.26606439 181.19760024 232.44948245 181.203125 229.6328125 C181.20887666 227.67609658 181.2146344 225.71938068 181.22039795 223.76266479 C181.23090582 219.65866839 181.23675 215.55469156 181.24023438 211.45068359 C181.24572094 206.19252447 181.26975337 200.93462405 181.29820633 195.6765461 C181.31683096 191.63421879 181.3220382 187.59195384 181.32357025 183.54958725 C181.32659732 181.611109 181.33462767 179.67263187 181.34775543 177.73419571 C181.36481343 175.02197835 181.3629364 172.3103938 181.35644531 169.59814453 C181.3656601 168.79796906 181.37487488 167.99779358 181.3843689 167.17337036 C181.35010942 162.60279751 180.84578685 159.63046714 178 156 C173.40169674 152.98236349 170.3880234 153.70641616 166.28194427 157.33840942 Z M30.625 241.6875 C28.78078193 244.31196417 28.07830977 245.78929947 28 249 C29.259753 251.85101994 30.35882201 253.5298028 32.875 255.375 C35.69841386 256.20541584 37.22386138 255.97164852 40 255 C42.97055702 252.83229623 43.87862885 251.71305549 44.5 248.0625 C43.86756104 244.18881135 42.96135546 242.58169451 40 240 C35.99254506 239.35594474 33.96740708 239.31263181 30.625 241.6875 Z M64.625 241.6875 C62.78078193 244.31196417 62.07830977 245.78929947 62 249 C63.259753 251.85101994 64.35882201 253.5298028 66.875 255.375 C69.69841386 256.20541584 71.22386138 255.97164852 74 255 C76.43695474 253.47981752 76.43695474 253.47981752 78 251 C78.56288002 247.05983987 78.60396028 244.94217804 76.4375 241.5625 C72.32501567 238.92629209 68.6327444 238.83989214 64.625 241.6875 Z M98.5625 241.5625 C96.39603972 244.94217804 96.43711998 247.05983987 97 251 C98.92982417 253.71604883 100.34200775 254.74692606 103.4375 255.9375 C106.9128169 256.02226383 108.34465998 255.22474434 111 253 C112.658596 250.19103937 112.658596 250.19103937 113 247 C111.66873553 244.07121816 110.26695035 242.26695035 108 240 C104.14493238 239.57165915 101.87199635 239.44102798 98.5625 241.5625 Z M132.5625 241.5625 C130.39603972 244.94217804 130.43711998 247.05983987 131 251 C132.92982417 253.71604883 134.34200775 254.74692606 137.4375 255.9375 C140.8471054 256.02066111 142.33782271 255.08657139 145 253 C146.74693992 250.61780919 147.02276273 249.45525467 146.875 246.5 C145.76307812 243.32308035 144.75310837 241.95615595 142 240 C138.05983987 239.43711998 135.94217804 239.39603972 132.5625 241.5625 Z M-14 278 C-14.74798229 280.78311285 -14.74798229 280.78311285 -14.62890625 283.8671875 C-14.63083984 285.00027344 -14.63277344 286.13335937 -14.63476562 287.30078125 C-14.61091797 288.48027344 -14.58707031 289.65976562 -14.5625 290.875 C-14.57345703 292.04675781 -14.58441406 293.21851563 -14.59570312 294.42578125 C-14.54087174 300.86664157 -14.43043008 305.16310845 -10 310 C-3.48579355 315.73870568 1.42345357 315.27557004 9.875 315.375 C11.07253906 315.41238281 12.27007812 315.44976562 13.50390625 315.48828125 C14.65503906 315.49988281 15.80617188 315.51148438 16.9921875 315.5234375 C18.04776855 315.54325684 19.10334961 315.56307617 20.19091797 315.58349609 C23.20232517 315.22560458 23.20232517 315.22560458 25.34423828 312.65869141 C27.36630295 309.41181964 27.63994099 307.7596533 27 304 C24.76793569 301.15219381 23.45007001 300.15002334 20 299 C18.59175107 298.91978001 17.18002769 298.89234023 15.76953125 298.90234375 C14.56586914 298.90717773 14.56586914 298.90717773 13.33789062 298.91210938 C12.08782227 298.92467773 12.08782227 298.92467773 10.8125 298.9375 C9.96751953 298.94201172 9.12253906 298.94652344 8.25195312 298.95117188 C6.16793845 298.96294597 4.08396023 298.9808811 2 299 C2.03480469 297.75863281 2.06960938 296.51726562 2.10546875 295.23828125 C2.13361584 293.59636774 2.16091501 291.95443954 2.1875 290.3125 C2.21263672 289.49587891 2.23777344 288.67925781 2.26367188 287.83789062 C2.32212368 283.02535885 2.10044334 279.92622728 -1 276 C-2.86712029 273.72791297 -2.86712029 273.72791297 -5.8125 273.625 C-9.79208403 274.09318636 -11.18822066 275.18440708 -14 278 Z M174.02978516 278.06811523 C172.03998407 281.80099717 172.48573823 285.7528519 172.6875 289.875 C172.71005859 290.75414062 172.73261719 291.63328125 172.75585938 292.5390625 C172.81440252 294.69345007 172.90407217 296.8469531 173 299 C171.75863281 298.96519531 170.51726562 298.93039062 169.23828125 298.89453125 C167.59636774 298.86638416 165.95443954 298.83908499 164.3125 298.8125 C163.49587891 298.78736328 162.67925781 298.76222656 161.83789062 298.73632812 C157.02535885 298.67787632 153.92622728 298.89955666 150 302 C147.65186266 303.93167398 147.65186266 303.93167398 147.625 307.375 C147.68105096 310.97102572 147.68105096 310.97102572 149.65673828 313.19335938 C152.59274061 315.45699943 154.18868655 315.51513894 157.8671875 315.53125 C159.00027344 315.53640625 160.13335937 315.5415625 161.30078125 315.546875 C162.48027344 315.53140625 163.65976562 315.5159375 164.875 315.5 C166.04675781 315.51546875 167.21851563 315.5309375 168.42578125 315.546875 C174.87774429 315.51758118 179.15597774 315.44510278 184 311 C189.6246378 304.61527601 189.27317684 299.96757417 189.375 291.6875 C189.41238281 290.54603516 189.44976562 289.40457031 189.48828125 288.22851562 C189.79685895 281.43762647 189.79685895 281.43762647 186.6640625 275.75 C184.0890816 273.83703433 184.0890816 273.83703433 181 273.3125 C177.58293399 274.09557763 176.18758091 275.34680064 174.02978516 278.06811523 Z " fill="#000000" transform="translate(288,51)"/>
<path d="M0 0 C15.58900093 8.5324904 34.35222695 10.23161412 51.578125 6.33691406 C61.19174072 3.47576701 61.19174072 3.47576701 76.453125 -4.16308594 C76.453125 94.17691406 76.453125 192.51691406 76.453125 293.83691406 C65.0645381 291.70155402 56.10653164 289.83785177 46.13671875 284.62597656 C39.92039472 281.49001346 34.35364186 280.51320538 27.453125 281.83691406 C22.984194 283.50587669 18.76961124 285.7075082 14.51953125 287.86035156 C-0.70786954 295.49705407 -20.60156143 296.20264645 -36.7578125 291.29003906 C-71.65012442 278.61194784 -97.7642698 246.95436212 -114.43554688 214.96582031 C-115.48031305 212.96442289 -116.55012413 210.97849884 -117.625 208.99316406 C-131.62198632 182.6515186 -139.29009554 153.21257726 -143.546875 123.83691406 C-143.72259033 122.710354 -143.72259033 122.710354 -143.90185547 121.56103516 C-145.52554717 110.93827949 -145.79035987 100.25460554 -145.89733887 89.52478027 C-145.91337251 88.01339018 -145.93533495 86.50204823 -145.96398926 84.99084473 C-146.44330886 56.73629858 -135.25075766 32.10865163 -115.859375 11.77441406 C-83.67682454 -19.61958999 -37.87255292 -21.14418264 0 0 Z M-108.41796875 32.11035156 C-121.31773376 48.6315185 -127.91238269 67.70812937 -128.078125 88.50878906 C-127.46316002 92.36136381 -126.6318609 93.53017324 -123.546875 95.83691406 C-120.64336376 97.00140288 -120.64336376 97.00140288 -117.546875 96.83691406 C-114.17142266 94.7366326 -112.81286539 93.63488522 -111.546875 89.83691406 C-111.35605366 87.87062464 -111.16825451 85.90394079 -111.00341797 83.93530273 C-109.42181688 65.9525357 -103.25201483 48.31243387 -89.546875 35.83691406 C-78.33263043 26.81974598 -67.01667638 21.78895938 -52.54296875 20.29394531 C-48.94230821 19.74469201 -46.50043791 19.06292352 -44.234375 16.14941406 C-43.21764671 12.72950983 -43.67406351 10.26581633 -44.546875 6.83691406 C-47.37773432 4.11928911 -49.40957393 3.40545024 -53.296875 3.39941406 C-75.32647102 4.13178095 -94.24543372 15.73207316 -108.41796875 32.11035156 Z " fill="#000000" transform="translate(162.546875,116.1630859375)"/>
<path d="M0 0 C0.69631436 0.28292939 1.39262873 0.56585878 2.11004353 0.85736179 C12.70491649 4.67312716 22.73226449 4.55971368 33.86987305 4.50170898 C35.95406457 4.50549834 38.03825357 4.51100345 40.12243652 4.51808167 C45.74830021 4.53197036 51.37385583 4.52091401 56.99970222 4.50437045 C62.90335275 4.49045743 68.80698654 4.49698692 74.71064758 4.50050354 C84.61875336 4.50320009 94.5267376 4.48977563 104.43481445 4.46655273 C115.87464936 4.43992454 127.31428144 4.43820503 138.75413674 4.4499411 C149.78367108 4.46073415 160.81313236 4.45452121 171.8426609 4.44038582 C176.52623035 4.43464151 181.20974607 4.43469639 185.89331627 4.43945122 C191.41004177 4.44423694 196.92654619 4.43405324 202.44322968 4.41249657 C204.46279212 4.40695107 206.48237592 4.40644274 208.50193977 4.41144943 C222.54275855 4.59492494 222.54275855 4.59492494 236 1 C236.99 0.67 237.98 0.34 239 0 C239.11698258 3.20802233 239.18750607 6.41549025 239.25 9.625 C239.28351563 10.52863281 239.31703125 11.43226563 239.3515625 12.36328125 C239.43567522 18.12500289 238.91046107 21.45675523 235 26 C229.70193254 30.66734515 226.4691165 31.1486972 219.56170654 31.14717102 C218.23629707 31.15268605 218.23629707 31.15268605 216.88411164 31.1583125 C213.90548271 31.16937842 210.92688863 31.17319809 207.94824219 31.17700195 C205.81977731 31.1832644 203.69131352 31.189911 201.56285095 31.19691467 C195.76730061 31.21434454 189.97175854 31.2248818 184.17618847 31.2331202 C180.55758456 31.23826602 176.93898325 31.24434193 173.32038116 31.25063133 C162.00520658 31.26968873 150.69003854 31.28391884 139.37485099 31.2922433 C126.30113741 31.30201951 113.22759297 31.32834687 100.15393901 31.36874419 C90.05707171 31.39887567 79.96025297 31.41370935 69.86334157 31.41702431 C63.82907317 31.41937814 57.79498536 31.42838192 51.76076508 31.45348549 C46.08414594 31.47671926 40.40782687 31.48101825 34.73117256 31.47072411 C32.64703182 31.4702275 30.56287655 31.47658461 28.47878075 31.49028015 C25.6342348 31.50792777 22.79077406 31.50092792 19.94622803 31.48774719 C19.12073354 31.49871644 18.29523904 31.50968568 17.44472957 31.52098733 C12.1635544 31.46187355 9.2052825 30.47038264 5 27 C1.48072146 23.00514328 -0.13116446 20.72398467 -0.09765625 15.4296875 C-0.09443359 14.53378906 -0.09121094 13.63789063 -0.08789062 12.71484375 C-0.07951172 11.77769531 -0.07113281 10.84054687 -0.0625 9.875 C-0.05798828 8.93011719 -0.05347656 7.98523438 -0.04882812 7.01171875 C-0.03702355 4.67441299 -0.01970965 2.33724853 0 0 Z " fill="#000000" transform="translate(256,464)"/>
<path d="M0 0 C19.33948988 -0.72120874 37.17846038 0.93080289 55 9 C55.86625 9.37898438 56.7325 9.75796875 57.625 10.1484375 C68.67980273 15.29583002 81.17214268 23.75821402 88 34 C88.23046875 36.87109375 88.23046875 36.87109375 88.1875 40.4375 C88.18105469 41.07695557 88.17460937 41.71641113 88.16796875 42.37524414 C88.03336733 51.25788603 87.50415697 60.13223907 87 69 C82.47347485 67.60351884 78.36985276 65.78206083 74.125 63.6875 C54.35707603 54.2475393 34.65647792 52.65136246 13 52 C4.02741471 35.41583954 -0.22842718 18.92349942 0 0 Z " fill="#000000" transform="translate(85,34)"/>
<path d="M0 0 C43.89 0 87.78 0 133 0 C125.80821918 8.39041096 125.80821918 8.39041096 122.5 11.8125 C121.7884375 12.56144531 121.076875 13.31039062 120.34375 14.08203125 C115.15287794 18.32989489 109.46682364 18.29400413 103.07641602 18.2746582 C102.19920898 18.27976913 101.32200195 18.28488007 100.41821289 18.29014587 C97.5300405 18.30400044 94.64210784 18.30308829 91.75390625 18.30078125 C89.73900769 18.30467029 87.72410995 18.30900539 85.70921326 18.31376648 C81.49027852 18.32121968 77.27142749 18.3209438 73.05249023 18.31567383 C67.65446911 18.30987869 62.25679105 18.32681576 56.85882664 18.3500185 C52.69888822 18.36477195 48.53903214 18.36562537 44.37907219 18.36250877 C42.38922381 18.36302112 40.39937073 18.36824248 38.40954781 18.37832069 C35.6237998 18.39069973 32.83871642 18.38388472 30.05297852 18.37231445 C29.23665451 18.37995819 28.42033051 18.38760193 27.57926941 18.39547729 C21.28167341 18.33785791 16.4573484 17.19868014 11.625 12.875 C10.75875 11.92625 9.8925 10.9775 9 10 C7.39945987 8.41300081 5.79501741 6.8299313 4.1875 5.25 C2.77085032 3.85414942 1.36852543 2.44306385 0 1 C0 0.67 0 0.34 0 0 Z " fill="#000000" transform="translate(309,51)"/>
<path d="M0 0 C2.4375 1.5625 2.4375 1.5625 4 4 C5.00402416 8.85181616 4.93819061 12.40561525 3.75 17.1875 C-1.58203584 41.23877922 -1.86999816 66.46861356 -3 91 C-6.04982258 92.52491129 -9.22122539 92.14361434 -12.5625 92.125 C-13.26052734 92.12886719 -13.95855469 92.13273437 -14.67773438 92.13671875 C-19.87336006 92.12663994 -19.87336006 92.12663994 -21 91 C-23.16652432 67.31923262 -19.79362506 41.58029827 -16 18.1875 C-15.8462793 17.2284375 -15.69255859 16.269375 -15.53417969 15.28125 C-14.67604443 10.41315352 -13.66872446 6.2499437 -11 2 C-7.3115914 -0.45893906 -4.28260461 -0.6821084 0 0 Z " fill="#000000" transform="translate(209,17)"/>
</svg>
